SplineFontDB: 3.2
FontName: NotoSerifDevanagari
FullName: Noto Serif Devanagari
FamilyName: Noto Serif Devanagari
Weight: Regular
Copyright: Copyright 2016 Google Inc. All Rights Reserved.
Version: 1.01
ItalicAngle: 0
UnderlinePosition: -205
UnderlineWidth: 102
Ascent: 1638
Descent: 410
InvalidEm: 0
sfntRevision: 0x0001028f
LayerCount: 2
Layer: 0 1 "+BBcEMAQ0BD0EOAQ5 +BD8EOwQwBD0A" 1
Layer: 1 1 "+BB8ENQRABDUENAQ9BDgEOQAA +BD8EOwQwBD0A" 0
XUID: [1021 59 1751208496 12111]
StyleMap: 0x0040
FSType: 0
OS2Version: 4
OS2_WeightWidthSlopeOnly: 0
OS2_UseTypoMetrics: 0
CreationTime: 1463682277
ModificationTime: 1633542851
PfmFamily: 17
TTFWeight: 400
TTFWidth: 5
LineGap: 0
VLineGap: 0
Panose: 2 2 5 2 4 5 4 2 2 4
OS2TypoAscent: 2143
OS2TypoAOffset: 0
OS2TypoDescent: -1281
OS2TypoDOffset: 0
OS2TypoLinegap: 0
OS2WinAscent: 2143
OS2WinAOffset: 0
OS2WinDescent: 1281
OS2WinDOffset: 0
HheadAscent: 2143
HheadAOffset: 0
HheadDescent: -1281
HheadDOffset: 0
OS2SubXSize: 1433
OS2SubYSize: 1331
OS2SubXOff: 0
OS2SubYOff: 191
OS2SupXSize: 1433
OS2SupYSize: 1331
OS2SupXOff: 0
OS2SupYOff: 642
OS2StrikeYSize: 102
OS2StrikeYPos: 641
OS2CapHeight: 1274
OS2XHeight: 1274
OS2Vendor: 'GOOG'
OS2CodePages: 00000001.00000000
OS2UnicodeRanges: 00008000.00000000.00000000.00000000
Lookup: 1 0 0 "'locl' Localized Forms lookup 0" { "'locl' Localized Forms lookup 0 subtable"  } ['locl' ('dev2' <'MAR ' > 'deva' <'MAR ' > ) ]
Lookup: 1 0 0 "'locl' Localized Forms in +BBQENQQyBDAEPQQwBDMEMARABDgA lookup 1" { "'locl' Localized Forms in +BBQENQQyBDAEPQQwBDMEMARABDgA lookup 1 subtable"  } ['locl' ('deva' <'MAR ' > ) ]
Lookup: 4 0 0 "'nukt' Nukta Forms lookup 2" { "'nukt' Nukta Forms lookup 2 subtable"  } ['nukt' ('DFLT' <'dflt' > 'dev2' <'MAR ' 'dflt' > 'deva' <'MAR ' 'dflt' > ) ]
Lookup: 4 0 0 "'akhn' Akhand lookup 3" { "'akhn' Akhand lookup 3 subtable"  } ['akhn' ('DFLT' <'dflt' > 'dev2' <'MAR ' 'dflt' > 'deva' <'MAR ' 'dflt' > ) ]

StartChar: .notdef
Encoding: 256 -1 0
Width: 1229
Flags: W
LayerCount: 2
Fore
SplineSet
193 1462 m 1,0,-1
 1034 1462 l 1,1,-1
 1034 0 l 1,2,-1
 193 0 l 1,3,-1
 193 1462 l 1,0,-1
930 104 m 1,4,-1
 930 1358 l 1,5,-1
 297 1358 l 1,6,-1
 297 104 l 1,7,-1
 930 104 l 1,4,-1
EndSplineSet
EndChar

StartChar: dvA
Encoding: 260 2309 4
Width: 1382
Flags: W
LayerCount: 2
Fore
SplineSet
1449 1142 m 1,0,-1
 1212 1142 l 1,1,-1
 1212 -10 l 1,2,-1
 1193 -10 l 1,3,-1
 1069 83 l 1,4,-1
 1069 592 l 1,5,6
 1008 569 1008 569 947 569 c 0,7,8
 828 569 828 569 713 646 c 1,9,10
 783 551 783 551 783 429 c 0,11,12
 783 315 783 315 706.5 245.5 c 128,-1,13
 630 176 630 176 503 176 c 0,14,15
 342 176 342 176 219.5 307 c 128,-1,16
 97 438 97 438 20 644 c 1,17,-1
 102 677 l 1,18,19
 170 507 170 507 260.5 415 c 128,-1,20
 351 323 351 323 472 323 c 0,21,22
 549 323 549 323 600 371 c 128,-1,23
 651 419 651 419 651 490 c 0,24,25
 651 551 651 551 626 610.5 c 128,-1,26
 601 670 601 670 555 711 c 1,27,28
 511 693 511 693 421 666 c 1,29,-1
 351 806 l 1,30,31
 528 852 528 852 597 900.5 c 128,-1,32
 666 949 666 949 666 1020 c 0,33,34
 666 1078 666 1078 627.5 1111 c 128,-1,35
 589 1144 589 1144 529 1144 c 0,36,37
 424 1144 424 1144 274 1076 c 1,38,-1
 199 1221 l 1,39,40
 331 1284 331 1284 455 1284 c 0,41,42
 550 1284 550 1284 623.5 1232.5 c 128,-1,43
 697 1181 697 1181 736.5 1108 c 128,-1,44
 776 1035 776 1035 776 961 c 0,45,46
 776 890 776 890 742 838.5 c 128,-1,47
 708 787 708 787 633 747 c 1,48,49
 743 697 743 697 851 697 c 0,50,51
 980 697 980 697 1069 766 c 1,52,-1
 1069 1142 l 1,53,-1
 898 1142 l 1,54,-1
 821 1254 l 1,55,-1
 821 1274 l 1,56,-1
 1372 1274 l 1,57,-1
 1449 1162 l 1,58,-1
 1449 1142 l 1,0,-1
EndSplineSet
EndChar

StartChar: dvAA
Encoding: 261 2310 5
Width: 1865
Flags: W
LayerCount: 2
Fore
SplineSet
1932 1142 m 1,0,-1
 1695 1142 l 1,1,-1
 1695 -10 l 1,2,-1
 1676 -10 l 1,3,-1
 1552 83 l 1,4,-1
 1552 1142 l 1,5,-1
 1212 1142 l 1,6,-1
 1212 -10 l 1,7,-1
 1193 -10 l 1,8,-1
 1069 83 l 1,9,-1
 1069 592 l 1,10,11
 1008 569 1008 569 947 569 c 0,12,13
 828 569 828 569 713 646 c 1,14,15
 783 551 783 551 783 429 c 0,16,17
 783 315 783 315 706.5 245.5 c 128,-1,18
 630 176 630 176 503 176 c 0,19,20
 342 176 342 176 219.5 307 c 128,-1,21
 97 438 97 438 20 644 c 1,22,-1
 102 677 l 1,23,24
 170 507 170 507 260.5 415 c 128,-1,25
 351 323 351 323 472 323 c 0,26,27
 549 323 549 323 600 371 c 128,-1,28
 651 419 651 419 651 490 c 0,29,30
 651 551 651 551 626 610.5 c 128,-1,31
 601 670 601 670 555 711 c 1,32,33
 511 693 511 693 421 666 c 1,34,-1
 351 806 l 1,35,36
 528 852 528 852 597 900.5 c 128,-1,37
 666 949 666 949 666 1020 c 0,38,39
 666 1078 666 1078 627.5 1111 c 128,-1,40
 589 1144 589 1144 529 1144 c 0,41,42
 424 1144 424 1144 274 1076 c 1,43,-1
 199 1221 l 1,44,45
 331 1284 331 1284 455 1284 c 0,46,47
 550 1284 550 1284 623.5 1232.5 c 128,-1,48
 697 1181 697 1181 736.5 1108 c 128,-1,49
 776 1035 776 1035 776 961 c 0,50,51
 776 890 776 890 742 838.5 c 128,-1,52
 708 787 708 787 633 747 c 1,53,54
 743 697 743 697 851 697 c 0,55,56
 980 697 980 697 1069 766 c 1,57,-1
 1069 1142 l 1,58,-1
 898 1142 l 1,59,-1
 821 1254 l 1,60,-1
 821 1274 l 1,61,-1
 1855 1274 l 1,62,-1
 1932 1162 l 1,63,-1
 1932 1142 l 1,0,-1
EndSplineSet
EndChar

StartChar: dvI
Encoding: 262 2311 6
Width: 920
Flags: W
AnchorPoint: "+BBEENQQ3BEsEPARPBD0EPQQ+BDUA--0" 707 1274 basechar 0
LayerCount: 2
Fore
SplineSet
222 672 m 0,0,1
 222 599 222 599 292 552 c 1,2,3
 357 592 357 592 424 611.5 c 128,-1,4
 491 631 491 631 543 631 c 0,5,6
 632 631 632 631 693.5 593 c 128,-1,7
 755 555 755 555 805 479 c 128,-1,8
 855 403 855 403 855 322 c 0,9,10
 855 189 855 189 744 104 c 128,-1,11
 633 19 633 19 458 17 c 1,12,13
 582 -95 582 -95 775 -179 c 1,14,-1
 676 -297 l 1,15,16
 603 -248 603 -248 515.5 -160 c 128,-1,17
 428 -72 428 -72 357 17 c 1,18,19
 247 22 247 22 183 61.5 c 128,-1,20
 119 101 119 101 119 162 c 0,21,22
 119 202 119 202 146 224.5 c 128,-1,23
 173 247 173 247 218 247 c 0,24,25
 304 247 304 247 382 149 c 1,26,27
 541 149 541 149 642 211 c 128,-1,28
 743 273 743 273 743 368 c 0,29,30
 743 429 743 429 704 460.5 c 128,-1,31
 665 492 665 492 607 492 c 0,32,33
 492 492 492 492 341 397 c 1,34,35
 233 462 233 462 166 556.5 c 128,-1,36
 99 651 99 651 99 740 c 0,37,38
 99 844 99 844 174.5 901.5 c 128,-1,39
 250 959 250 959 390 959 c 0,40,41
 457 959 457 959 567 948 c 1,42,-1
 567 1142 l 1,43,-1
 -10 1142 l 1,44,-1
 -87 1254 l 1,45,-1
 -87 1274 l 1,46,-1
 910 1274 l 1,47,-1
 987 1162 l 1,48,-1
 987 1142 l 1,49,-1
 712 1142 l 1,50,-1
 712 838 l 1,51,52
 609 847 609 847 555 847 c 0,53,54
 382 847 382 847 302 799 c 128,-1,55
 222 751 222 751 222 672 c 0,0,1
EndSplineSet
EndChar

StartChar: dvII
Encoding: 263 2312 7
Width: 920
Flags: W
LayerCount: 2
Fore
SplineSet
222 672 m 0,0,1
 222 599 222 599 292 552 c 1,2,3
 357 592 357 592 424 611.5 c 128,-1,4
 491 631 491 631 543 631 c 0,5,6
 632 631 632 631 693.5 593 c 128,-1,7
 755 555 755 555 805 479 c 128,-1,8
 855 403 855 403 855 322 c 0,9,10
 855 189 855 189 744 104 c 128,-1,11
 633 19 633 19 458 17 c 1,12,13
 582 -95 582 -95 775 -179 c 1,14,-1
 676 -297 l 1,15,16
 603 -248 603 -248 515.5 -160 c 128,-1,17
 428 -72 428 -72 357 17 c 1,18,19
 247 22 247 22 183 61.5 c 128,-1,20
 119 101 119 101 119 162 c 0,21,22
 119 202 119 202 146 224.5 c 128,-1,23
 173 247 173 247 218 247 c 0,24,25
 304 247 304 247 382 149 c 1,26,27
 541 149 541 149 642 211 c 128,-1,28
 743 273 743 273 743 368 c 0,29,30
 743 429 743 429 704 460.5 c 128,-1,31
 665 492 665 492 607 492 c 0,32,33
 492 492 492 492 341 397 c 1,34,35
 233 462 233 462 166 556.5 c 128,-1,36
 99 651 99 651 99 740 c 0,37,38
 99 844 99 844 174.5 901.5 c 128,-1,39
 250 959 250 959 390 959 c 0,40,41
 457 959 457 959 567 948 c 1,42,-1
 567 1142 l 1,43,-1
 -10 1142 l 1,44,-1
 -87 1254 l 1,45,-1
 -87 1274 l 1,46,-1
 605 1274 l 1,47,48
 536 1365 536 1365 502 1440 c 128,-1,49
 468 1515 468 1515 468 1596 c 0,50,51
 468 1694 468 1694 529 1754.5 c 128,-1,52
 590 1815 590 1815 689 1815 c 0,53,54
 845 1815 845 1815 938 1656 c 1,55,-1
 897 1621 l 1,56,57
 836 1680 836 1680 757 1680 c 0,58,59
 686 1680 686 1680 644 1636 c 128,-1,60
 602 1592 602 1592 602 1516 c 0,61,62
 602 1405 602 1405 686 1274 c 1,63,-1
 910 1274 l 1,64,-1
 987 1162 l 1,65,-1
 987 1142 l 1,66,-1
 712 1142 l 1,67,-1
 712 838 l 1,68,69
 609 847 609 847 555 847 c 0,70,71
 382 847 382 847 302 799 c 128,-1,72
 222 751 222 751 222 672 c 0,0,1
EndSplineSet
EndChar

StartChar: dvU
Encoding: 264 2313 8
Width: 984
Flags: W
AnchorPoint: "+BBEENQQ3BEsEPARPBD0EPQQ+BDUA--0" 577 1274 basechar 0
LayerCount: 2
Fore
SplineSet
1051 1142 m 1,0,-1
 740 1142 l 1,1,2
 825 1040 825 1040 825 907 c 0,3,4
 825 769 825 769 695 677 c 1,5,6
 783 602 783 602 832.5 509 c 128,-1,7
 882 416 882 416 882 328 c 0,8,9
 882 192 882 192 797 111 c 128,-1,10
 712 30 712 30 567 30 c 0,11,12
 421 30 421 30 279.5 156 c 128,-1,13
 138 282 138 282 24 564 c 1,14,-1
 106 597 l 1,15,16
 182 427 182 427 288 307 c 128,-1,17
 394 187 394 187 530 187 c 0,18,19
 626 187 626 187 683 239 c 128,-1,20
 740 291 740 291 740 377 c 0,21,22
 740 449 740 449 709 517 c 128,-1,23
 678 585 678 585 623 635 c 1,24,25
 543 596 543 596 436 573 c 1,26,-1
 361 722 l 1,27,28
 525 756 525 756 614 818.5 c 128,-1,29
 703 881 703 881 703 971 c 0,30,31
 703 1069 703 1069 632 1142 c 1,32,-1
 -10 1142 l 1,33,-1
 -87 1254 l 1,34,-1
 -87 1274 l 1,35,-1
 974 1274 l 1,36,-1
 1051 1162 l 1,37,-1
 1051 1142 l 1,0,-1
EndSplineSet
EndChar

StartChar: dvUU
Encoding: 265 2314 9
Width: 1394
Flags: W
AnchorPoint: "+BBEENQQ3BEsEPARPBD0EPQQ+BDUA--0" 770 1274 basechar 0
LayerCount: 2
Fore
SplineSet
1461 1142 m 1,0,-1
 740 1142 l 1,1,2
 825 1040 825 1040 825 907 c 0,3,4
 825 769 825 769 695 677 c 1,5,6
 742 638 742 638 778 591 c 1,7,8
 922 695 922 695 1030 695 c 0,9,10
 1111 695 1111 695 1183 645.5 c 128,-1,11
 1255 596 1255 596 1294.5 522.5 c 128,-1,12
 1334 449 1334 449 1334 366 c 0,13,14
 1334 287 1334 287 1284.5 184 c 128,-1,15
 1235 81 1235 81 1161 -1 c 1,16,-1
 1023 85 l 1,17,18
 1110 173 1110 173 1162 269.5 c 128,-1,19
 1214 366 1214 366 1214 458 c 0,20,21
 1214 506 1214 506 1184.5 538 c 128,-1,22
 1155 570 1155 570 1098 570 c 0,23,24
 1039 570 1039 570 981.5 542 c 128,-1,25
 924 514 924 514 854 463 c 1,26,27
 882 391 882 391 882 328 c 0,28,29
 882 192 882 192 797 111 c 128,-1,30
 712 30 712 30 567 30 c 0,31,32
 421 30 421 30 279.5 156 c 128,-1,33
 138 282 138 282 24 564 c 1,34,-1
 106 597 l 1,35,36
 182 427 182 427 288 307 c 128,-1,37
 394 187 394 187 530 187 c 0,38,39
 626 187 626 187 683 239 c 128,-1,40
 740 291 740 291 740 377 c 0,41,42
 740 449 740 449 709 517 c 128,-1,43
 678 585 678 585 623 635 c 1,44,45
 543 596 543 596 436 573 c 1,46,-1
 361 722 l 1,47,48
 525 756 525 756 614 818.5 c 128,-1,49
 703 881 703 881 703 971 c 0,50,51
 703 1069 703 1069 632 1142 c 1,52,-1
 -10 1142 l 1,53,-1
 -87 1254 l 1,54,-1
 -87 1274 l 1,55,-1
 1384 1274 l 1,56,-1
 1461 1162 l 1,57,-1
 1461 1142 l 1,0,-1
EndSplineSet
EndChar

StartChar: dvvR
Encoding: 266 2315 10
Width: 1629
Flags: W
AnchorPoint: "+BBEENQQ3BEsEPARPBD0EPQQ+BDUA--0" 916 1274 basechar 0
LayerCount: 2
Fore
SplineSet
916 1142 m 1,0,-1
 916 634 l 1,1,2
 1009 638 1009 638 1074 670.5 c 128,-1,3
 1139 703 1139 703 1174 752 c 1,4,5
 1154 788 1154 788 1154 833 c 0,6,7
 1154 892 1154 892 1189 928 c 128,-1,8
 1224 964 1224 964 1280 964 c 0,9,10
 1337 964 1337 964 1376 919.5 c 128,-1,11
 1415 875 1415 875 1415 810 c 0,12,13
 1415 728 1415 728 1345 679 c 1,14,-1
 1503 484 l 1,15,16
 1351 419 1351 419 1280 352 c 128,-1,17
 1209 285 1209 285 1209 227 c 0,18,19
 1209 184 1209 184 1237 158 c 128,-1,20
 1265 132 1265 132 1311 132 c 0,21,22
 1450 132 1450 132 1557 215 c 1,23,-1
 1632 90 l 1,24,25
 1542 16 1542 16 1426 16 c 0,26,27
 1333 16 1333 16 1264 53 c 128,-1,28
 1195 90 1195 90 1147.5 152.5 c 128,-1,29
 1100 215 1100 215 1100 299 c 256,30,31
 1100 383 1100 383 1164 440.5 c 128,-1,32
 1228 498 1228 498 1329 549 c 1,33,-1
 1257 632 l 1,34,35
 1206 597 1206 597 1123.5 572 c 128,-1,36
 1041 547 1041 547 948 547 c 1,37,-1
 916 549 l 1,38,-1
 916 -10 l 1,39,-1
 897 -10 l 1,40,-1
 773 83 l 1,41,-1
 773 289 l 1,42,-1
 776 471 l 1,43,-1
 278 159 l 1,44,-1
 166 291 l 1,45,-1
 720 594 l 1,46,47
 635 701 635 701 573.5 738.5 c 128,-1,48
 512 776 512 776 432 776 c 0,49,50
 332 776 332 776 175 688 c 1,51,-1
 74 845 l 1,52,53
 244 933 244 933 372 933 c 0,54,55
 490 933 490 933 574 875.5 c 128,-1,56
 658 818 658 818 773 666 c 1,57,-1
 773 1142 l 1,58,-1
 -10 1142 l 1,59,-1
 -87 1254 l 1,60,-1
 -87 1274 l 1,61,-1
 1619 1274 l 1,62,-1
 1696 1162 l 1,63,-1
 1696 1142 l 1,64,-1
 916 1142 l 1,0,-1
EndSplineSet
EndChar

StartChar: dvvRR
Encoding: 267 2400 11
Width: 1644
Flags: W
AnchorPoint: "+BBEENQQ3BEsEPARPBD0EPQQ+BDUA--0" 916 1274 basechar 0
LayerCount: 2
Fore
SplineSet
916 1142 m 1,0,-1
 916 634 l 1,1,2
 1009 638 1009 638 1074 670.5 c 128,-1,3
 1139 703 1139 703 1174 752 c 1,4,5
 1154 788 1154 788 1154 833 c 0,6,7
 1154 892 1154 892 1189 928 c 128,-1,8
 1224 964 1224 964 1280 964 c 0,9,10
 1337 964 1337 964 1376 919.5 c 128,-1,11
 1415 875 1415 875 1415 810 c 0,12,13
 1415 731 1415 731 1343 680 c 1,14,-1
 1503 483 l 1,15,16
 1351 425 1351 425 1282.5 374.5 c 128,-1,17
 1214 324 1214 324 1214 261 c 0,18,19
 1214 199 1214 199 1278 176 c 1,20,21
 1340 248 1340 248 1500 298 c 1,22,-1
 1566 174 l 1,23,24
 1462 138 1462 138 1405 98 c 128,-1,25
 1348 58 1348 58 1348 9 c 0,26,27
 1348 -18 1348 -18 1367 -32 c 128,-1,28
 1386 -46 1386 -46 1416 -46 c 0,29,30
 1471 -46 1471 -46 1536.5 -18.5 c 128,-1,31
 1602 9 1602 9 1635 37 c 1,32,-1
 1701 -94 l 1,33,34
 1586 -164 1586 -164 1479 -164 c 0,35,36
 1398 -164 1398 -164 1317 -89.5 c 128,-1,37
 1236 -15 1236 -15 1236 60 c 0,38,39
 1236 88 1236 88 1243 109 c 1,40,41
 1175 140 1175 140 1137.5 191.5 c 128,-1,42
 1100 243 1100 243 1100 308 c 0,43,44
 1100 393 1100 393 1162 449.5 c 128,-1,45
 1224 506 1224 506 1327 551 c 1,46,-1
 1259 629 l 1,47,48
 1209 595 1209 595 1125.5 571 c 128,-1,49
 1042 547 1042 547 948 547 c 1,50,-1
 916 549 l 1,51,-1
 916 -10 l 1,52,-1
 897 -10 l 1,53,-1
 773 83 l 1,54,-1
 773 289 l 1,55,-1
 776 471 l 1,56,-1
 278 159 l 1,57,-1
 166 291 l 1,58,-1
 720 594 l 1,59,60
 635 701 635 701 573.5 738.5 c 128,-1,61
 512 776 512 776 432 776 c 0,62,63
 332 776 332 776 175 688 c 1,64,-1
 74 845 l 1,65,66
 244 933 244 933 372 933 c 0,67,68
 490 933 490 933 574 875.5 c 128,-1,69
 658 818 658 818 773 666 c 1,70,-1
 773 1142 l 1,71,-1
 -10 1142 l 1,72,-1
 -87 1254 l 1,73,-1
 -87 1274 l 1,74,-1
 1634 1274 l 1,75,-1
 1711 1162 l 1,76,-1
 1711 1142 l 1,77,-1
 916 1142 l 1,0,-1
EndSplineSet
EndChar

StartChar: dvvL
Encoding: 268 2316 12
Width: 1324
Flags: W
AnchorPoint: "+BBEENQQ3BEsEPARPBD0EPQQ+BDUA--0" 1022 1274 basechar 0
LayerCount: 2
Fore
SplineSet
1022 1142 m 1,0,-1
 1022 832 l 1,1,2
 1079 806 1079 806 1125 757 c 128,-1,3
 1171 708 1171 708 1197.5 654.5 c 128,-1,4
 1224 601 1224 601 1224 534 c 0,5,6
 1224 468 1224 468 1190.5 403 c 128,-1,7
 1157 338 1157 338 1059 238 c 0,8,9
 976 151 976 151 951.5 106.5 c 128,-1,10
 927 62 927 62 927 20 c 0,11,12
 927 -101 927 -101 1059 -101 c 0,13,14
 1163 -101 1163 -101 1270 -22 c 1,15,-1
 1355 -156 l 1,16,17
 1288 -194 1288 -194 1239.5 -210 c 128,-1,18
 1191 -226 1191 -226 1133 -226 c 0,19,20
 1055 -226 1055 -226 975.5 -178 c 128,-1,21
 896 -130 896 -130 843 -53 c 128,-1,22
 790 24 790 24 790 85 c 0,23,24
 790 143 790 143 811 191 c 128,-1,25
 832 239 832 239 862.5 275.5 c 128,-1,26
 893 312 893 312 942 361 c 0,27,28
 1027 446 1027 446 1054.5 498 c 128,-1,29
 1082 550 1082 550 1082 606 c 0,30,31
 1082 669 1082 669 1043.5 712 c 128,-1,32
 1005 755 1005 755 945 755 c 0,33,34
 849 755 849 755 789 679 c 128,-1,35
 729 603 729 603 729 478 c 1,36,-1
 733 401 l 1,37,-1
 572 433 l 1,38,39
 567 470 567 470 567 508 c 0,40,41
 567 595 567 595 598 668 c 1,42,43
 530 709 530 709 460 709 c 0,44,45
 370 709 370 709 312.5 649 c 128,-1,46
 255 589 255 589 255 493 c 0,47,48
 255 383 255 383 317 280.5 c 128,-1,49
 379 178 379 178 537 48 c 1,50,-1
 475 -21 l 1,51,52
 93 296 93 296 93 571 c 0,53,54
 93 700 93 700 167.5 778 c 128,-1,55
 242 856 242 856 366 856 c 0,56,57
 507 856 507 856 641 743 c 1,58,59
 728 855 728 855 879 861 c 1,60,-1
 879 1142 l 1,61,-1
 -10 1142 l 1,62,-1
 -87 1254 l 1,63,-1
 -87 1274 l 1,64,-1
 1314 1274 l 1,65,-1
 1391 1162 l 1,66,-1
 1391 1142 l 1,67,-1
 1022 1142 l 1,0,-1
EndSplineSet
EndChar

StartChar: dvvLL
Encoding: 269 2401 13
Width: 1327
Flags: W
AnchorPoint: "+BBEENQQ3BEsEPARPBD0EPQQ+BDUA--0" 1022 1274 basechar 0
LayerCount: 2
Fore
SplineSet
1447 -192 m 1,0,1
 1332 -262 1332 -262 1225 -262 c 0,2,3
 1144 -262 1144 -262 1063 -187.5 c 128,-1,4
 982 -113 982 -113 982 -38 c 0,5,6
 982 -10 982 -10 990 17 c 1,7,8
 956 32 956 32 921 61 c 128,-1,9
 886 90 886 90 866 130 c 128,-1,10
 846 170 846 170 846 217 c 0,11,12
 846 260 846 260 863 297 c 128,-1,13
 880 334 880 334 904 362 c 128,-1,14
 928 390 928 390 969 430 c 0,15,16
 1008 468 1008 468 1030 493 c 128,-1,17
 1052 518 1052 518 1067 550 c 128,-1,18
 1082 582 1082 582 1082 618 c 0,19,20
 1082 677 1082 677 1043.5 716 c 128,-1,21
 1005 755 1005 755 945 755 c 0,22,23
 849 755 849 755 789 679 c 128,-1,24
 729 603 729 603 729 478 c 1,25,-1
 733 401 l 1,26,-1
 572 433 l 1,27,28
 567 470 567 470 567 508 c 0,29,30
 567 595 567 595 598 668 c 1,31,32
 530 709 530 709 460 709 c 0,33,34
 370 709 370 709 312.5 649 c 128,-1,35
 255 589 255 589 255 493 c 0,36,37
 255 383 255 383 317 280.5 c 128,-1,38
 379 178 379 178 537 48 c 1,39,-1
 475 -21 l 1,40,41
 93 296 93 296 93 571 c 0,42,43
 93 700 93 700 167.5 778 c 128,-1,44
 242 856 242 856 366 856 c 0,45,46
 507 856 507 856 641 743 c 1,47,48
 728 855 728 855 879 861 c 1,49,-1
 879 1142 l 1,50,-1
 -10 1142 l 1,51,-1
 -87 1254 l 1,52,-1
 -87 1274 l 1,53,-1
 1317 1274 l 1,54,-1
 1394 1162 l 1,55,-1
 1394 1142 l 1,56,-1
 1022 1142 l 1,57,-1
 1022 832 l 1,58,59
 1101 795 1101 795 1162.5 710.5 c 128,-1,60
 1224 626 1224 626 1224 544 c 0,61,62
 1224 500 1224 500 1204 460 c 128,-1,63
 1184 420 1184 420 1156 388 c 128,-1,64
 1128 356 1128 356 1083 312 c 0,65,66
 1029 260 1029 260 1002.5 225 c 128,-1,67
 976 190 976 190 976 154 c 0,68,69
 976 103 976 103 1029 83 c 1,70,71
 1092 152 1092 152 1246 200 c 1,72,-1
 1312 76 l 1,73,74
 1208 40 1208 40 1151 0 c 128,-1,75
 1094 -40 1094 -40 1094 -89 c 0,76,77
 1094 -116 1094 -116 1113 -130 c 128,-1,78
 1132 -144 1132 -144 1162 -144 c 0,79,80
 1217 -144 1217 -144 1282.5 -116.5 c 128,-1,81
 1348 -89 1348 -89 1381 -61 c 1,82,-1
 1447 -192 l 1,0,1
EndSplineSet
EndChar

StartChar: dvE
Encoding: 270 2319 14
Width: 1038
Flags: W
AnchorPoint: "+BBEENQQ3BEsEPARPBD0EPQQ+BDUA--0" 582 1274 basechar 0
LayerCount: 2
Fore
SplineSet
736 767 m 2,0,-1
 736 1142 l 1,1,-1
 302 1142 l 1,2,-1
 302 610 l 2,3,4
 302 522 302 522 313.5 480 c 128,-1,5
 325 438 325 438 361 404 c 128,-1,6
 397 370 397 370 488 312 c 2,7,-1
 690 184 l 2,8,9
 798 115 798 115 851.5 46 c 128,-1,10
 905 -23 905 -23 905 -106 c 0,11,12
 905 -202 905 -202 834 -318 c 1,13,-1
 677 -254 l 1,14,15
 752 -143 752 -143 752 -61 c 0,16,17
 752 -11 752 -11 722.5 27 c 128,-1,18
 693 65 693 65 589 131 c 2,19,-1
 383 260 l 2,20,21
 286 321 286 321 239.5 364 c 128,-1,22
 193 407 193 407 174 460 c 128,-1,23
 155 513 155 513 155 602 c 2,24,-1
 155 1142 l 1,25,-1
 -10 1142 l 1,26,-1
 -87 1254 l 1,27,-1
 -87 1274 l 1,28,-1
 1028 1274 l 1,29,-1
 1105 1162 l 1,30,-1
 1105 1142 l 1,31,-1
 883 1142 l 1,32,-1
 883 733 l 2,33,34
 883 560 883 560 776 435 c 1,35,-1
 645 519 l 1,36,37
 693 559 693 559 714.5 616.5 c 128,-1,38
 736 674 736 674 736 767 c 2,0,-1
EndSplineSet
EndChar

StartChar: dvAI
Encoding: 271 2320 15
Width: 1038
Flags: W
LayerCount: 2
Fore
SplineSet
736 767 m 2,0,-1
 736 1142 l 1,1,-1
 302 1142 l 1,2,-1
 302 610 l 2,3,4
 302 522 302 522 313.5 480 c 128,-1,5
 325 438 325 438 361 404 c 128,-1,6
 397 370 397 370 488 312 c 2,7,-1
 690 184 l 2,8,9
 798 115 798 115 851.5 46 c 128,-1,10
 905 -23 905 -23 905 -106 c 0,11,12
 905 -202 905 -202 834 -318 c 1,13,-1
 677 -254 l 1,14,15
 752 -143 752 -143 752 -61 c 0,16,17
 752 -11 752 -11 722.5 27 c 128,-1,18
 693 65 693 65 589 131 c 2,19,-1
 383 260 l 2,20,21
 286 321 286 321 239.5 364 c 128,-1,22
 193 407 193 407 174 460 c 128,-1,23
 155 513 155 513 155 602 c 2,24,-1
 155 1142 l 1,25,-1
 -10 1142 l 1,26,-1
 -87 1254 l 1,27,-1
 -87 1274 l 1,28,-1
 775 1274 l 1,29,30
 729 1366 729 1366 656 1473 c 128,-1,31
 583 1580 583 1580 527.5 1615.5 c 128,-1,32
 472 1651 472 1651 388 1651 c 0,33,34
 309 1651 309 1651 231 1614 c 1,35,-1
 138 1790 l 1,36,37
 233 1820 233 1820 311 1820 c 0,38,39
 475 1820 475 1820 602.5 1691.5 c 128,-1,40
 730 1563 730 1563 866 1274 c 1,41,-1
 1028 1274 l 1,42,-1
 1105 1162 l 1,43,-1
 1105 1142 l 1,44,-1
 883 1142 l 1,45,-1
 883 733 l 2,46,47
 883 560 883 560 776 435 c 1,48,-1
 645 519 l 1,49,50
 693 559 693 559 714.5 616.5 c 128,-1,51
 736 674 736 674 736 767 c 2,0,-1
EndSplineSet
EndChar

StartChar: dvO
Encoding: 272 2323 16
Width: 1865
Flags: W
LayerCount: 2
Fore
SplineSet
1932 1142 m 1,0,-1
 1695 1142 l 1,1,-1
 1695 -10 l 1,2,-1
 1676 -10 l 1,3,-1
 1552 83 l 1,4,-1
 1552 1142 l 1,5,-1
 1212 1142 l 1,6,-1
 1212 -10 l 1,7,-1
 1193 -10 l 1,8,-1
 1069 83 l 1,9,-1
 1069 592 l 1,10,11
 1008 569 1008 569 947 569 c 0,12,13
 828 569 828 569 713 646 c 1,14,15
 783 551 783 551 783 429 c 0,16,17
 783 315 783 315 706.5 245.5 c 128,-1,18
 630 176 630 176 503 176 c 0,19,20
 342 176 342 176 219.5 307 c 128,-1,21
 97 438 97 438 20 644 c 1,22,-1
 102 677 l 1,23,24
 170 507 170 507 260.5 415 c 128,-1,25
 351 323 351 323 472 323 c 0,26,27
 549 323 549 323 600 371 c 128,-1,28
 651 419 651 419 651 490 c 0,29,30
 651 551 651 551 626 610.5 c 128,-1,31
 601 670 601 670 555 711 c 1,32,33
 511 693 511 693 421 666 c 1,34,-1
 351 806 l 1,35,36
 528 852 528 852 597 900.5 c 128,-1,37
 666 949 666 949 666 1020 c 0,38,39
 666 1078 666 1078 627.5 1111 c 128,-1,40
 589 1144 589 1144 529 1144 c 0,41,42
 424 1144 424 1144 274 1076 c 1,43,-1
 199 1221 l 1,44,45
 331 1284 331 1284 455 1284 c 0,46,47
 550 1284 550 1284 623.5 1232.5 c 128,-1,48
 697 1181 697 1181 736.5 1108 c 128,-1,49
 776 1035 776 1035 776 961 c 0,50,51
 776 890 776 890 742 838.5 c 128,-1,52
 708 787 708 787 633 747 c 1,53,54
 743 697 743 697 851 697 c 0,55,56
 980 697 980 697 1069 766 c 1,57,-1
 1069 1142 l 1,58,-1
 898 1142 l 1,59,-1
 821 1254 l 1,60,-1
 821 1274 l 1,61,-1
 1587 1274 l 1,62,63
 1541 1366 1541 1366 1468 1473 c 128,-1,64
 1395 1580 1395 1580 1339.5 1615.5 c 128,-1,65
 1284 1651 1284 1651 1200 1651 c 0,66,67
 1121 1651 1121 1651 1043 1614 c 1,68,-1
 950 1790 l 1,69,70
 1045 1820 1045 1820 1123 1820 c 0,71,72
 1287 1820 1287 1820 1414.5 1691.5 c 128,-1,73
 1542 1563 1542 1563 1678 1274 c 1,74,-1
 1855 1274 l 1,75,-1
 1932 1162 l 1,76,-1
 1932 1142 l 1,0,-1
EndSplineSet
EndChar

StartChar: dvAU
Encoding: 273 2324 17
Width: 1865
Flags: W
LayerCount: 2
Fore
SplineSet
1932 1142 m 1,0,-1
 1695 1142 l 1,1,-1
 1695 -10 l 1,2,-1
 1676 -10 l 1,3,-1
 1552 83 l 1,4,-1
 1552 1142 l 1,5,-1
 1212 1142 l 1,6,-1
 1212 -10 l 1,7,-1
 1193 -10 l 1,8,-1
 1069 83 l 1,9,-1
 1069 592 l 1,10,11
 1008 569 1008 569 947 569 c 0,12,13
 828 569 828 569 713 646 c 1,14,15
 783 551 783 551 783 429 c 0,16,17
 783 315 783 315 706.5 245.5 c 128,-1,18
 630 176 630 176 503 176 c 0,19,20
 342 176 342 176 219.5 307 c 128,-1,21
 97 438 97 438 20 644 c 1,22,-1
 102 677 l 1,23,24
 170 507 170 507 260.5 415 c 128,-1,25
 351 323 351 323 472 323 c 0,26,27
 549 323 549 323 600 371 c 128,-1,28
 651 419 651 419 651 490 c 0,29,30
 651 551 651 551 626 610.5 c 128,-1,31
 601 670 601 670 555 711 c 1,32,33
 511 693 511 693 421 666 c 1,34,-1
 351 806 l 1,35,36
 528 852 528 852 597 900.5 c 128,-1,37
 666 949 666 949 666 1020 c 0,38,39
 666 1078 666 1078 627.5 1111 c 128,-1,40
 589 1144 589 1144 529 1144 c 0,41,42
 424 1144 424 1144 274 1076 c 1,43,-1
 199 1221 l 1,44,45
 331 1284 331 1284 455 1284 c 0,46,47
 550 1284 550 1284 623.5 1232.5 c 128,-1,48
 697 1181 697 1181 736.5 1108 c 128,-1,49
 776 1035 776 1035 776 961 c 0,50,51
 776 890 776 890 742 838.5 c 128,-1,52
 708 787 708 787 633 747 c 1,53,54
 743 697 743 697 851 697 c 0,55,56
 980 697 980 697 1069 766 c 1,57,-1
 1069 1142 l 1,58,-1
 898 1142 l 1,59,-1
 821 1254 l 1,60,-1
 821 1274 l 1,61,-1
 1544 1274 l 1,62,63
 1485 1355 1485 1355 1420.5 1396.5 c 128,-1,64
 1356 1438 1356 1438 1277 1438 c 0,65,66
 1212 1438 1212 1438 1137 1410 c 1,67,-1
 1086 1550 l 1,68,69
 1150 1573 1150 1573 1225 1573 c 0,70,71
 1414 1573 1414 1573 1567 1349 c 1,72,-1
 1575 1352 l 1,73,74
 1516 1522 1516 1522 1441 1608 c 128,-1,75
 1366 1694 1366 1694 1264 1694 c 0,76,77
 1208 1694 1208 1694 1145 1669 c 1,78,-1
 1091 1807 l 1,79,80
 1162 1836 1162 1836 1238 1836 c 0,81,82
 1331 1836 1331 1836 1400.5 1787.5 c 128,-1,83
 1470 1739 1470 1739 1536 1618.5 c 128,-1,84
 1602 1498 1602 1498 1680 1274 c 1,85,-1
 1855 1274 l 1,86,-1
 1932 1162 l 1,87,-1
 1932 1142 l 1,0,-1
EndSplineSet
EndChar

StartChar: dvAshort
Encoding: 277 2308 21
Width: 1382
Flags: W
LayerCount: 2
Fore
SplineSet
1449 1142 m 1,0,-1
 1212 1142 l 1,1,-1
 1212 -10 l 1,2,-1
 1193 -10 l 1,3,-1
 1069 83 l 1,4,-1
 1069 592 l 1,5,6
 1008 569 1008 569 947 569 c 0,7,8
 828 569 828 569 713 646 c 1,9,10
 783 551 783 551 783 429 c 0,11,12
 783 315 783 315 706.5 245.5 c 128,-1,13
 630 176 630 176 503 176 c 0,14,15
 342 176 342 176 219.5 307 c 128,-1,16
 97 438 97 438 20 644 c 1,17,-1
 102 677 l 1,18,19
 170 507 170 507 260.5 415 c 128,-1,20
 351 323 351 323 472 323 c 0,21,22
 549 323 549 323 600 371 c 128,-1,23
 651 419 651 419 651 490 c 0,24,25
 651 551 651 551 626 610.5 c 128,-1,26
 601 670 601 670 555 711 c 1,27,28
 511 693 511 693 421 666 c 1,29,-1
 351 806 l 1,30,31
 528 852 528 852 597 900.5 c 128,-1,32
 666 949 666 949 666 1020 c 0,33,34
 666 1078 666 1078 627.5 1111 c 128,-1,35
 589 1144 589 1144 529 1144 c 0,36,37
 424 1144 424 1144 274 1076 c 1,38,-1
 199 1221 l 1,39,40
 331 1284 331 1284 455 1284 c 0,41,42
 550 1284 550 1284 623.5 1232.5 c 128,-1,43
 697 1181 697 1181 736.5 1108 c 128,-1,44
 776 1035 776 1035 776 961 c 0,45,46
 776 890 776 890 742 838.5 c 128,-1,47
 708 787 708 787 633 747 c 1,48,49
 743 697 743 697 851 697 c 0,50,51
 980 697 980 697 1069 766 c 1,52,-1
 1069 1142 l 1,53,-1
 898 1142 l 1,54,-1
 821 1254 l 1,55,-1
 821 1274 l 1,56,-1
 1126 1274 l 1,57,58
 1100 1398 1100 1398 1061.5 1447 c 128,-1,59
 1023 1496 1023 1496 949 1496 c 2,60,-1
 795 1491 l 1,61,62
 687 1492 687 1492 616 1561.5 c 128,-1,63
 545 1631 545 1631 500 1787 c 1,64,-1
 573 1810 l 1,65,66
 594 1737 594 1737 633 1696 c 128,-1,67
 672 1655 672 1655 742 1655 c 2,68,-1
 920 1662 l 1,69,70
 1039 1662 1039 1662 1102.5 1569 c 128,-1,71
 1166 1476 1166 1476 1200 1274 c 1,72,-1
 1372 1274 l 1,73,-1
 1449 1162 l 1,74,-1
 1449 1142 l 1,0,-1
EndSplineSet
EndChar

StartChar: dvEshort
Encoding: 278 2318 22
Width: 1038
Flags: W
LayerCount: 2
Fore
SplineSet
736 767 m 2,0,-1
 736 1142 l 1,1,-1
 302 1142 l 1,2,-1
 302 610 l 2,3,4
 302 522 302 522 313.5 480 c 128,-1,5
 325 438 325 438 361 404 c 128,-1,6
 397 370 397 370 488 312 c 2,7,-1
 690 184 l 2,8,9
 798 115 798 115 851.5 46 c 128,-1,10
 905 -23 905 -23 905 -106 c 0,11,12
 905 -202 905 -202 834 -318 c 1,13,-1
 677 -254 l 1,14,15
 752 -143 752 -143 752 -61 c 0,16,17
 752 -11 752 -11 722.5 27 c 128,-1,18
 693 65 693 65 589 131 c 2,19,-1
 383 260 l 2,20,21
 286 321 286 321 239.5 364 c 128,-1,22
 193 407 193 407 174 460 c 128,-1,23
 155 513 155 513 155 602 c 2,24,-1
 155 1142 l 1,25,-1
 -10 1142 l 1,26,-1
 -87 1254 l 1,27,-1
 -87 1274 l 1,28,-1
 797 1274 l 1,29,30
 771 1398 771 1398 732.5 1447 c 128,-1,31
 694 1496 694 1496 620 1496 c 2,32,-1
 466 1491 l 1,33,34
 358 1492 358 1492 287 1561.5 c 128,-1,35
 216 1631 216 1631 171 1787 c 1,36,-1
 244 1810 l 1,37,38
 265 1737 265 1737 304 1696 c 128,-1,39
 343 1655 343 1655 413 1655 c 2,40,-1
 591 1662 l 1,41,42
 710 1662 710 1662 773.5 1569 c 128,-1,43
 837 1476 837 1476 871 1274 c 1,44,-1
 1028 1274 l 1,45,-1
 1105 1162 l 1,46,-1
 1105 1142 l 1,47,-1
 883 1142 l 1,48,-1
 883 733 l 2,49,50
 883 560 883 560 776 435 c 1,51,-1
 645 519 l 1,52,53
 693 559 693 559 714.5 616.5 c 128,-1,54
 736 674 736 674 736 767 c 2,0,-1
EndSplineSet
EndChar

StartChar: dvOshort
Encoding: 279 2322 23
Width: 1865
Flags: W
LayerCount: 2
Fore
SplineSet
1932 1142 m 1,0,-1
 1695 1142 l 1,1,-1
 1695 -10 l 1,2,-1
 1676 -10 l 1,3,-1
 1552 83 l 1,4,-1
 1552 1142 l 1,5,-1
 1212 1142 l 1,6,-1
 1212 -10 l 1,7,-1
 1193 -10 l 1,8,-1
 1069 83 l 1,9,-1
 1069 592 l 1,10,11
 1008 569 1008 569 947 569 c 0,12,13
 828 569 828 569 713 646 c 1,14,15
 783 551 783 551 783 429 c 0,16,17
 783 315 783 315 706.5 245.5 c 128,-1,18
 630 176 630 176 503 176 c 0,19,20
 342 176 342 176 219.5 307 c 128,-1,21
 97 438 97 438 20 644 c 1,22,-1
 102 677 l 1,23,24
 170 507 170 507 260.5 415 c 128,-1,25
 351 323 351 323 472 323 c 0,26,27
 549 323 549 323 600 371 c 128,-1,28
 651 419 651 419 651 490 c 0,29,30
 651 551 651 551 626 610.5 c 128,-1,31
 601 670 601 670 555 711 c 1,32,33
 511 693 511 693 421 666 c 1,34,-1
 351 806 l 1,35,36
 528 852 528 852 597 900.5 c 128,-1,37
 666 949 666 949 666 1020 c 0,38,39
 666 1078 666 1078 627.5 1111 c 128,-1,40
 589 1144 589 1144 529 1144 c 0,41,42
 424 1144 424 1144 274 1076 c 1,43,-1
 199 1221 l 1,44,45
 331 1284 331 1284 455 1284 c 0,46,47
 550 1284 550 1284 623.5 1232.5 c 128,-1,48
 697 1181 697 1181 736.5 1108 c 128,-1,49
 776 1035 776 1035 776 961 c 0,50,51
 776 890 776 890 742 838.5 c 128,-1,52
 708 787 708 787 633 747 c 1,53,54
 743 697 743 697 851 697 c 0,55,56
 980 697 980 697 1069 766 c 1,57,-1
 1069 1142 l 1,58,-1
 898 1142 l 1,59,-1
 821 1254 l 1,60,-1
 821 1274 l 1,61,-1
 1609 1274 l 1,62,63
 1583 1398 1583 1398 1544.5 1447 c 128,-1,64
 1506 1496 1506 1496 1432 1496 c 2,65,-1
 1278 1491 l 1,66,67
 1170 1492 1170 1492 1099 1561.5 c 128,-1,68
 1028 1631 1028 1631 983 1787 c 1,69,-1
 1056 1810 l 1,70,71
 1077 1737 1077 1737 1116 1696 c 128,-1,72
 1155 1655 1155 1655 1225 1655 c 2,73,-1
 1403 1662 l 1,74,75
 1522 1662 1522 1662 1585.5 1569 c 128,-1,76
 1649 1476 1649 1476 1683 1274 c 1,77,-1
 1855 1274 l 1,78,-1
 1932 1162 l 1,79,-1
 1932 1142 l 1,0,-1
EndSplineSet
EndChar

StartChar: dvOE
Encoding: 282 2419 26
Width: 1382
Flags: W
LayerCount: 2
Fore
SplineSet
1449 1142 m 1,0,-1
 1212 1142 l 1,1,-1
 1212 -10 l 1,2,-1
 1193 -10 l 1,3,-1
 1069 83 l 1,4,-1
 1069 592 l 1,5,6
 1008 569 1008 569 947 569 c 0,7,8
 828 569 828 569 713 646 c 1,9,10
 783 551 783 551 783 429 c 0,11,12
 783 315 783 315 706.5 245.5 c 128,-1,13
 630 176 630 176 503 176 c 0,14,15
 342 176 342 176 219.5 307 c 128,-1,16
 97 438 97 438 20 644 c 1,17,-1
 102 677 l 1,18,19
 170 507 170 507 260.5 415 c 128,-1,20
 351 323 351 323 472 323 c 0,21,22
 549 323 549 323 600 371 c 128,-1,23
 651 419 651 419 651 490 c 0,24,25
 651 551 651 551 626 610.5 c 128,-1,26
 601 670 601 670 555 711 c 1,27,28
 511 693 511 693 421 666 c 1,29,-1
 351 806 l 1,30,31
 528 852 528 852 597 900.5 c 128,-1,32
 666 949 666 949 666 1020 c 0,33,34
 666 1078 666 1078 627.5 1111 c 128,-1,35
 589 1144 589 1144 529 1144 c 0,36,37
 424 1144 424 1144 274 1076 c 1,38,-1
 199 1221 l 1,39,40
 331 1284 331 1284 455 1284 c 0,41,42
 550 1284 550 1284 623.5 1232.5 c 128,-1,43
 697 1181 697 1181 736.5 1108 c 128,-1,44
 776 1035 776 1035 776 961 c 0,45,46
 776 890 776 890 742 838.5 c 128,-1,47
 708 787 708 787 633 747 c 1,48,49
 743 697 743 697 851 697 c 0,50,51
 980 697 980 697 1069 766 c 1,52,-1
 1069 1142 l 1,53,-1
 898 1142 l 1,54,-1
 821 1254 l 1,55,-1
 821 1274 l 1,56,-1
 1069 1274 l 1,57,-1
 1069 1607 l 1,58,-1
 1088 1607 l 1,59,-1
 1212 1514 l 1,60,-1
 1212 1274 l 1,61,-1
 1372 1274 l 1,62,-1
 1449 1162 l 1,63,-1
 1449 1142 l 1,0,-1
EndSplineSet
EndChar

StartChar: dvOOE
Encoding: 283 2420 27
Width: 1865
Flags: W
LayerCount: 2
Fore
SplineSet
1932 1142 m 1,0,-1
 1695 1142 l 1,1,-1
 1695 -10 l 1,2,-1
 1676 -10 l 1,3,-1
 1552 83 l 1,4,-1
 1552 1142 l 1,5,-1
 1212 1142 l 1,6,-1
 1212 -10 l 1,7,-1
 1193 -10 l 1,8,-1
 1069 83 l 1,9,-1
 1069 592 l 1,10,11
 1008 569 1008 569 947 569 c 0,12,13
 828 569 828 569 713 646 c 1,14,15
 783 551 783 551 783 429 c 0,16,17
 783 315 783 315 706.5 245.5 c 128,-1,18
 630 176 630 176 503 176 c 0,19,20
 342 176 342 176 219.5 307 c 128,-1,21
 97 438 97 438 20 644 c 1,22,-1
 102 677 l 1,23,24
 170 507 170 507 260.5 415 c 128,-1,25
 351 323 351 323 472 323 c 0,26,27
 549 323 549 323 600 371 c 128,-1,28
 651 419 651 419 651 490 c 0,29,30
 651 551 651 551 626 610.5 c 128,-1,31
 601 670 601 670 555 711 c 1,32,33
 511 693 511 693 421 666 c 1,34,-1
 351 806 l 1,35,36
 528 852 528 852 597 900.5 c 128,-1,37
 666 949 666 949 666 1020 c 0,38,39
 666 1078 666 1078 627.5 1111 c 128,-1,40
 589 1144 589 1144 529 1144 c 0,41,42
 424 1144 424 1144 274 1076 c 1,43,-1
 199 1221 l 1,44,45
 331 1284 331 1284 455 1284 c 0,46,47
 550 1284 550 1284 623.5 1232.5 c 128,-1,48
 697 1181 697 1181 736.5 1108 c 128,-1,49
 776 1035 776 1035 776 961 c 0,50,51
 776 890 776 890 742 838.5 c 128,-1,52
 708 787 708 787 633 747 c 1,53,54
 743 697 743 697 851 697 c 0,55,56
 980 697 980 697 1069 766 c 1,57,-1
 1069 1142 l 1,58,-1
 898 1142 l 1,59,-1
 821 1254 l 1,60,-1
 821 1274 l 1,61,-1
 1552 1274 l 1,62,-1
 1552 1607 l 1,63,-1
 1571 1607 l 1,64,-1
 1695 1514 l 1,65,-1
 1695 1274 l 1,66,-1
 1855 1274 l 1,67,-1
 1932 1162 l 1,68,-1
 1932 1142 l 1,0,-1
EndSplineSet
EndChar

StartChar: dvAW
Encoding: 284 2421 28
Width: 1865
Flags: W
LayerCount: 2
Fore
SplineSet
1932 1142 m 1,0,-1
 1695 1142 l 1,1,-1
 1695 -10 l 1,2,-1
 1676 -10 l 1,3,-1
 1552 83 l 1,4,-1
 1552 1142 l 1,5,-1
 1212 1142 l 1,6,-1
 1212 -10 l 1,7,-1
 1193 -10 l 1,8,-1
 1069 83 l 1,9,-1
 1069 592 l 1,10,11
 1008 569 1008 569 947 569 c 0,12,13
 828 569 828 569 713 646 c 1,14,15
 783 551 783 551 783 429 c 0,16,17
 783 315 783 315 706.5 245.5 c 128,-1,18
 630 176 630 176 503 176 c 0,19,20
 342 176 342 176 219.5 307 c 128,-1,21
 97 438 97 438 20 644 c 1,22,-1
 102 677 l 1,23,24
 170 507 170 507 260.5 415 c 128,-1,25
 351 323 351 323 472 323 c 0,26,27
 549 323 549 323 600 371 c 128,-1,28
 651 419 651 419 651 490 c 0,29,30
 651 551 651 551 626 610.5 c 128,-1,31
 601 670 601 670 555 711 c 1,32,33
 511 693 511 693 421 666 c 1,34,-1
 351 806 l 1,35,36
 528 852 528 852 597 900.5 c 128,-1,37
 666 949 666 949 666 1020 c 0,38,39
 666 1078 666 1078 627.5 1111 c 128,-1,40
 589 1144 589 1144 529 1144 c 0,41,42
 424 1144 424 1144 274 1076 c 1,43,-1
 199 1221 l 1,44,45
 331 1284 331 1284 455 1284 c 0,46,47
 550 1284 550 1284 623.5 1232.5 c 128,-1,48
 697 1181 697 1181 736.5 1108 c 128,-1,49
 776 1035 776 1035 776 961 c 0,50,51
 776 890 776 890 742 838.5 c 128,-1,52
 708 787 708 787 633 747 c 1,53,54
 743 697 743 697 851 697 c 0,55,56
 980 697 980 697 1069 766 c 1,57,-1
 1069 1142 l 1,58,-1
 898 1142 l 1,59,-1
 821 1254 l 1,60,-1
 821 1274 l 1,61,-1
 1541 1274 l 1,62,-1
 1541 1276 l 2,63,64
 1541 1336 1541 1336 1493.5 1368.5 c 128,-1,65
 1446 1401 1446 1401 1369 1401 c 0,66,67
 1328 1401 1328 1401 1264 1389 c 0,68,69
 1206 1377 1206 1377 1165 1377 c 0,70,71
 1048 1377 1048 1377 984.5 1442 c 128,-1,72
 921 1507 921 1507 901 1631 c 1,73,-1
 973 1648 l 1,74,75
 991 1577 991 1577 1031.5 1547 c 128,-1,76
 1072 1517 1072 1517 1146 1517 c 0,77,78
 1172 1517 1172 1517 1203.5 1522 c 128,-1,79
 1235 1527 1235 1527 1244 1528 c 0,80,81
 1311 1541 1311 1541 1355 1541 c 0,82,83
 1473 1541 1473 1541 1539 1479 c 128,-1,84
 1605 1417 1605 1417 1605 1306 c 2,85,-1
 1604 1274 l 1,86,-1
 1643 1274 l 1,87,88
 1655 1330 1655 1330 1655 1376 c 0,89,90
 1655 1452 1655 1452 1618.5 1505 c 128,-1,91
 1582 1558 1582 1558 1502 1597 c 0,92,93
 1391 1651 1391 1651 1339 1716.5 c 128,-1,94
 1287 1782 1287 1782 1287 1879 c 0,95,96
 1287 1931 1287 1931 1300 1990 c 1,97,-1
 1374 1980 l 1,98,-1
 1371 1945 l 1,99,100
 1371 1884 1371 1884 1413.5 1837.5 c 128,-1,101
 1456 1791 1456 1791 1563 1737 c 0,102,103
 1750 1639 1750 1639 1750 1461 c 0,104,105
 1750 1377 1750 1377 1707 1274 c 1,106,-1
 1855 1274 l 1,107,-1
 1932 1162 l 1,108,-1
 1932 1142 l 1,0,-1
EndSplineSet
EndChar

StartChar: dvmAA
Encoding: 285 2366 29
Width: 483
Flags: W
LayerCount: 2
Fore
SplineSet
550 1142 m 1,0,-1
 313 1142 l 1,1,-1
 313 -10 l 1,2,-1
 294 -10 l 1,3,-1
 170 83 l 1,4,-1
 170 1142 l 1,5,-1
 -10 1142 l 1,6,-1
 -87 1254 l 1,7,-1
 -87 1274 l 1,8,-1
 473 1274 l 1,9,-1
 550 1162 l 1,10,-1
 550 1142 l 1,0,-1
EndSplineSet
EndChar

StartChar: dvmII
Encoding: 287 2368 31
Width: 483
Flags: W
LayerCount: 2
Fore
SplineSet
550 1142 m 1,0,-1
 313 1142 l 1,1,-1
 313 -10 l 1,2,-1
 294 -10 l 1,3,-1
 170 83 l 1,4,-1
 170 1142 l 1,5,-1
 -10 1142 l 1,6,-1
 -87 1254 l 1,7,-1
 -87 1274 l 1,8,-1
 216 1274 l 1,9,10
 157 1470 157 1470 71.5 1577.5 c 128,-1,11
 -14 1685 -14 1685 -118 1685 c 0,12,13
 -198 1685 -198 1685 -242.5 1639.5 c 128,-1,14
 -287 1594 -287 1594 -287 1508 c 0,15,16
 -287 1446 -287 1446 -256 1374 c 128,-1,17
 -225 1302 -225 1302 -174 1252 c 1,18,-1
 -251 1252 l 1,19,20
 -326 1306 -326 1306 -374.5 1396 c 128,-1,21
 -423 1486 -423 1486 -423 1574 c 0,22,23
 -423 1688 -423 1688 -355 1760.5 c 128,-1,24
 -287 1833 -287 1833 -175 1833 c 0,25,26
 143 1833 143 1833 302 1274 c 1,27,-1
 473 1274 l 1,28,-1
 550 1162 l 1,29,-1
 550 1142 l 1,0,-1
EndSplineSet
Substitution2: "Single Substitution lookup 55 subtable" dvmII.03
Substitution2: "Single Substitution lookup 54 subtable" dvmII.02
Substitution2: "Single Substitution lookup 53 subtable" dvmII.01
EndChar

StartChar: dvmU
Encoding: 288 2369 32
Width: 0
GlyphClass: 4
Flags: W
AnchorPoint: "+BBEENQQ3BEsEPARPBD0EPQQ+BDUA--1" -170 0 mark 0
LayerCount: 2
Fore
SplineSet
-840 -187 m 1,0,-1
 -745 -106 l 1,1,2
 -648 -261 -648 -261 -545.5 -352 c 128,-1,3
 -443 -443 -443 -443 -319 -443 c 0,4,5
 -217 -443 -217 -443 -142 -375.5 c 128,-1,6
 -67 -308 -67 -308 -67 -217 c 0,7,8
 -67 -119 -67 -119 -169 -119 c 0,9,10
 -215 -119 -215 -119 -258.5 -135 c 128,-1,11
 -302 -151 -302 -151 -361 -193 c 1,12,-1
 -456 -69 l 1,13,14
 -345 10 -345 10 -246 10 c 0,15,16
 -173 10 -173 10 -106 -31 c 128,-1,17
 -39 -72 -39 -72 2.5 -143 c 128,-1,18
 44 -214 44 -214 44 -286 c 0,19,20
 44 -405 44 -405 -41.5 -477 c 128,-1,21
 -127 -549 -127 -549 -269 -549 c 0,22,23
 -436 -549 -436 -549 -577 -448 c 128,-1,24
 -718 -347 -718 -347 -840 -187 c 1,0,-1
EndSplineSet
Substitution2: "Single Substitution lookup 26 subtable" dvNukta_mU
EndChar

StartChar: dvmUU
Encoding: 289 2370 33
Width: 0
GlyphClass: 4
Flags: W
AnchorPoint: "+BBEENQQ3BEsEPARPBD0EPQQ+BDUA--1" -170 0 mark 0
LayerCount: 2
Fore
SplineSet
-223 -133 m 0,0,1
 -316 -133 -316 -133 -367.5 -179 c 128,-1,2
 -419 -225 -419 -225 -419 -304 c 0,3,4
 -419 -368 -419 -368 -387 -401.5 c 128,-1,5
 -355 -435 -355 -435 -300 -435 c 0,6,7
 -247 -435 -247 -435 -198.5 -421.5 c 128,-1,8
 -150 -408 -150 -408 -85 -363 c 1,9,-1
 -36 -509 l 1,10,11
 -93 -534 -93 -534 -134 -544.5 c 128,-1,12
 -175 -555 -175 -555 -226 -555 c 0,13,14
 -293 -555 -293 -555 -366 -510.5 c 128,-1,15
 -439 -466 -439 -466 -495.5 -393 c 128,-1,16
 -552 -320 -552 -320 -552 -240 c 0,17,18
 -552 -132 -552 -132 -476.5 -60.5 c 128,-1,19
 -401 11 -401 11 -285 11 c 0,20,21
 -198 11 -198 11 -119 -36 c 128,-1,22
 -40 -83 -40 -83 29.5 -155.5 c 128,-1,23
 99 -228 99 -228 211 -363 c 2,24,-1
 327 -500 l 1,25,-1
 238 -561 l 1,26,27
 116 -400 116 -400 47 -317.5 c 128,-1,28
 -22 -235 -22 -235 -90 -184 c 128,-1,29
 -158 -133 -158 -133 -223 -133 c 0,0,1
EndSplineSet
Substitution2: "Single Substitution lookup 26 subtable" dvNukta_mUU
EndChar

StartChar: dvmvR
Encoding: 290 2371 34
Width: 0
GlyphClass: 4
Flags: W
AnchorPoint: "+BBEENQQ3BEsEPARPBD0EPQQ+BDUA--1" -170 0 mark 0
LayerCount: 2
Fore
SplineSet
-529 -289 m 0,0,1
 -529 -110 -529 -110 -288 -33 c 1,2,-1
 -170 -140 l 1,3,4
 -289 -179 -289 -179 -348 -227.5 c 128,-1,5
 -407 -276 -407 -276 -407 -344 c 256,6,7
 -407 -412 -407 -412 -361 -446.5 c 128,-1,8
 -315 -481 -315 -481 -249 -481 c 0,9,10
 -198 -481 -198 -481 -142.5 -458 c 128,-1,11
 -87 -435 -87 -435 -42 -400 c 1,12,-1
 71 -503 l 1,13,14
 -61 -606 -61 -606 -192 -606 c 0,15,16
 -319 -606 -319 -606 -424 -501 c 128,-1,17
 -529 -396 -529 -396 -529 -289 c 0,0,1
EndSplineSet
Substitution2: "Single Substitution lookup 26 subtable" dvNukta_mvR
Substitution2: "Single Substitution lookup 16 subtable" dvReph
EndChar

StartChar: dvmvRR
Encoding: 291 2372 35
Width: 0
GlyphClass: 4
Flags: W
AnchorPoint: "+BBEENQQ3BEsEPARPBD0EPQQ+BDUA--1" -170 0 mark 0
LayerCount: 2
Fore
SplineSet
172 -712 m 1,0,1
 42 -815 42 -815 -91 -815 c 0,2,3
 -158 -815 -158 -815 -218 -778.5 c 128,-1,4
 -278 -742 -278 -742 -320 -688.5 c 128,-1,5
 -362 -635 -362 -635 -362 -569 c 0,6,7
 -362 -546 -362 -546 -357 -521 c 1,8,9
 -415 -499 -415 -499 -472 -435 c 128,-1,10
 -529 -371 -529 -371 -529 -289 c 0,11,12
 -529 -110 -529 -110 -288 -33 c 1,13,-1
 -170 -140 l 1,14,15
 -288 -178 -288 -178 -347.5 -227 c 128,-1,16
 -407 -276 -407 -276 -407 -344 c 0,17,18
 -407 -379 -407 -379 -382.5 -402 c 128,-1,19
 -358 -425 -358 -425 -310 -430 c 1,20,21
 -260 -374 -260 -374 -121 -313 c 1,22,-1
 -3 -420 l 1,23,24
 -94 -461 -94 -461 -140.5 -487.5 c 128,-1,25
 -187 -514 -187 -514 -213.5 -546.5 c 128,-1,26
 -240 -579 -240 -579 -240 -624 c 0,27,28
 -240 -658 -240 -658 -211.5 -675.5 c 128,-1,29
 -183 -693 -183 -693 -143 -693 c 0,30,31
 -92 -693 -92 -693 -35.5 -670 c 128,-1,32
 21 -647 21 -647 64 -612 c 1,33,-1
 172 -712 l 1,0,1
EndSplineSet
Substitution2: "Single Substitution lookup 26 subtable" dvNukta_mvRR
Substitution2: "Single Substitution lookup 16 subtable" dvReph
EndChar

StartChar: dvmvL
Encoding: 292 2402 36
Width: 0
GlyphClass: 4
Flags: W
AnchorPoint: "+BBEENQQ3BEsEPARPBD0EPQQ+BDUA--1" -169 0 mark 0
LayerCount: 2
Fore
SplineSet
239 -564 m 1,0,1
 177 -643 177 -643 96 -643 c 0,2,3
 33 -643 33 -643 -41.5 -582.5 c 128,-1,4
 -116 -522 -116 -522 -116 -451 c 0,5,6
 -116 -412 -116 -412 -95.5 -379.5 c 128,-1,7
 -75 -347 -75 -347 -36 -305 c 0,8,9
 1 -264 1 -264 19 -236 c 128,-1,10
 37 -208 37 -208 37 -175 c 0,11,12
 37 -140 37 -140 16.5 -118.5 c 128,-1,13
 -4 -97 -4 -97 -38 -97 c 0,14,15
 -94 -97 -94 -97 -130 -140 c 128,-1,16
 -166 -183 -166 -183 -166 -260 c 0,17,18
 -166 -291 -166 -291 -161 -319 c 1,19,-1
 -279 -296 l 1,20,21
 -284 -265 -284 -265 -284 -228 c 0,22,23
 -284 -184 -284 -184 -270 -142 c 1,24,25
 -307 -121 -307 -121 -344 -121 c 0,26,27
 -393 -121 -393 -121 -426 -155.5 c 128,-1,28
 -459 -190 -459 -190 -459 -246 c 0,29,30
 -459 -303 -459 -303 -432.5 -349.5 c 128,-1,31
 -406 -396 -406 -396 -355 -449 c 1,32,-1
 -412 -503 l 1,33,34
 -583 -339 -583 -339 -583 -189 c 0,35,36
 -583 -105 -583 -105 -534 -54 c 128,-1,37
 -485 -3 -485 -3 -405 -3 c 0,38,39
 -316 -3 -316 -3 -232 -72 c 1,40,41
 -173 0 -173 0 -71 0 c 0,42,43
 9 0 9 0 84.5 -68.5 c 128,-1,44
 160 -137 160 -137 160 -219 c 0,45,46
 160 -267 160 -267 135.5 -307 c 128,-1,47
 111 -347 111 -347 66 -397 c 0,48,49
 31 -437 31 -437 15 -460.5 c 128,-1,50
 -1 -484 -1 -484 -1 -509 c 0,51,52
 -1 -546 -1 -546 36 -546 c 0,53,54
 89 -546 89 -546 153 -484 c 1,55,-1
 239 -564 l 1,0,1
EndSplineSet
Substitution2: "Single Substitution lookup 26 subtable" dvNukta_mvL
Substitution2: "Single Substitution lookup 16 subtable" dvReph
EndChar

StartChar: dvmvLL
Encoding: 293 2403 37
Width: 0
GlyphClass: 4
Flags: W
AnchorPoint: "+BBEENQQ3BEsEPARPBD0EPQQ+BDUA--1" -169 0 mark 0
LayerCount: 2
Fore
SplineSet
372 -687 m 1,0,1
 310 -766 310 -766 229 -766 c 0,2,3
 169 -766 169 -766 97.5 -710 c 128,-1,4
 26 -654 26 -654 26 -586 c 2,5,-1
 26 -581 l 1,6,7
 -93 -510 -93 -510 -93 -418 c 0,8,9
 -93 -384 -93 -384 -76 -355.5 c 128,-1,10
 -59 -327 -59 -327 -25 -290 c 0,11,12
 6 -254 6 -254 21.5 -229 c 128,-1,13
 37 -204 37 -204 37 -175 c 0,14,15
 37 -140 37 -140 16.5 -118.5 c 128,-1,16
 -4 -97 -4 -97 -38 -97 c 0,17,18
 -94 -97 -94 -97 -130 -140 c 128,-1,19
 -166 -183 -166 -183 -166 -260 c 0,20,21
 -166 -291 -166 -291 -161 -319 c 1,22,-1
 -279 -296 l 1,23,24
 -284 -265 -284 -265 -284 -228 c 0,25,26
 -284 -184 -284 -184 -270 -142 c 1,27,28
 -307 -121 -307 -121 -344 -121 c 0,29,30
 -393 -121 -393 -121 -426 -155.5 c 128,-1,31
 -459 -190 -459 -190 -459 -246 c 0,32,33
 -459 -303 -459 -303 -432.5 -349.5 c 128,-1,34
 -406 -396 -406 -396 -355 -449 c 1,35,-1
 -412 -503 l 1,36,37
 -583 -339 -583 -339 -583 -189 c 0,38,39
 -583 -105 -583 -105 -534 -54 c 128,-1,40
 -485 -3 -485 -3 -405 -3 c 0,41,42
 -316 -3 -316 -3 -232 -72 c 1,43,44
 -173 0 -173 0 -71 0 c 0,45,46
 9 0 9 0 84.5 -68.5 c 128,-1,47
 160 -137 160 -137 160 -219 c 0,48,49
 160 -261 160 -261 138.5 -296 c 128,-1,50
 117 -331 117 -331 77 -375 c 0,51,52
 46 -410 46 -410 32 -431 c 128,-1,53
 18 -452 18 -452 18 -473 c 0,54,55
 18 -511 18 -511 56 -515 c 1,56,57
 102 -463 102 -463 177 -439 c 1,58,-1
 265 -531 l 1,59,60
 203 -552 203 -552 170 -583 c 128,-1,61
 137 -614 137 -614 137 -644 c 0,62,63
 137 -669 137 -669 169 -669 c 0,64,65
 222 -669 222 -669 286 -607 c 1,66,-1
 372 -687 l 1,0,1
EndSplineSet
Substitution2: "Single Substitution lookup 26 subtable" dvNukta_mvLL
Substitution2: "Single Substitution lookup 16 subtable" dvReph
EndChar

StartChar: dvmE
Encoding: 294 2375 38
Width: 0
GlyphClass: 4
Flags: W
AnchorPoint: "+BBEENQQ3BEsEPARPBD0EPQQ+BDUA--0" -170 1274 mark 0
LayerCount: 2
Fore
SplineSet
-661 1651 m 0,0,1
 -735 1651 -735 1651 -818 1614 c 1,2,-1
 -911 1790 l 1,3,4
 -821 1820 -821 1820 -738 1820 c 0,5,6
 -571 1820 -571 1820 -443 1688.5 c 128,-1,7
 -315 1557 -315 1557 -176 1259 c 1,8,-1
 -267 1259 l 1,9,10
 -310 1351 -310 1351 -374 1446.5 c 128,-1,11
 -438 1542 -438 1542 -477 1580 c 128,-1,12
 -516 1618 -516 1618 -558 1634.5 c 128,-1,13
 -600 1651 -600 1651 -661 1651 c 0,0,1
EndSplineSet
EndChar

StartChar: dvmAI
Encoding: 295 2376 39
Width: 0
GlyphClass: 4
Flags: W
AnchorPoint: "+BBEENQQ3BEsEPARPBD0EPQQ+BDUA--0" -170 1274 mark 0
LayerCount: 2
Fore
SplineSet
-580 1438 m 0,0,1
 -645 1438 -645 1438 -720 1410 c 1,2,-1
 -771 1550 l 1,3,4
 -707 1573 -707 1573 -632 1573 c 0,5,6
 -446 1575 -446 1575 -290 1349 c 1,7,-1
 -282 1352 l 1,8,9
 -341 1522 -341 1522 -416 1608 c 128,-1,10
 -491 1694 -491 1694 -593 1694 c 0,11,12
 -649 1694 -649 1694 -712 1669 c 1,13,-1
 -766 1807 l 1,14,15
 -695 1836 -695 1836 -619 1836 c 0,16,17
 -525 1836 -525 1836 -455 1786.5 c 128,-1,18
 -385 1737 -385 1737 -318.5 1613 c 128,-1,19
 -252 1489 -252 1489 -172 1259 c 1,20,-1
 -302 1259 l 1,21,22
 -364 1347 -364 1347 -430.5 1392.5 c 128,-1,23
 -497 1438 -497 1438 -580 1438 c 0,0,1
EndSplineSet
EndChar

StartChar: dvmO
Encoding: 296 2379 40
Width: 483
Flags: W
LayerCount: 2
Fore
SplineSet
550 1142 m 1,0,-1
 313 1142 l 1,1,-1
 313 -10 l 1,2,-1
 294 -10 l 1,3,-1
 170 83 l 1,4,-1
 170 1142 l 1,5,-1
 -10 1142 l 1,6,-1
 -87 1254 l 1,7,-1
 -87 1274 l 1,8,-1
 208 1274 l 1,9,10
 162 1366 162 1366 89 1473 c 128,-1,11
 16 1580 16 1580 -39.5 1615.5 c 128,-1,12
 -95 1651 -95 1651 -179 1651 c 0,13,14
 -258 1651 -258 1651 -336 1614 c 1,15,-1
 -429 1790 l 1,16,17
 -334 1820 -334 1820 -256 1820 c 0,18,19
 -92 1820 -92 1820 35.5 1691.5 c 128,-1,20
 163 1563 163 1563 299 1274 c 1,21,-1
 473 1274 l 1,22,-1
 550 1162 l 1,23,-1
 550 1142 l 1,0,-1
EndSplineSet
EndChar

StartChar: dvmAU
Encoding: 297 2380 41
Width: 483
Flags: W
LayerCount: 2
Fore
SplineSet
550 1142 m 1,0,-1
 313 1142 l 1,1,-1
 313 -10 l 1,2,-1
 294 -10 l 1,3,-1
 170 83 l 1,4,-1
 170 1142 l 1,5,-1
 -10 1142 l 1,6,-1
 -87 1254 l 1,7,-1
 -87 1274 l 1,8,-1
 173 1274 l 1,9,10
 114 1355 114 1355 49.5 1396.5 c 128,-1,11
 -15 1438 -15 1438 -94 1438 c 0,12,13
 -159 1438 -159 1438 -234 1410 c 1,14,-1
 -285 1550 l 1,15,16
 -221 1573 -221 1573 -146 1573 c 0,17,18
 43 1573 43 1573 196 1349 c 1,19,-1
 204 1352 l 1,20,21
 145 1522 145 1522 70 1608 c 128,-1,22
 -5 1694 -5 1694 -107 1694 c 0,23,24
 -163 1694 -163 1694 -226 1669 c 1,25,-1
 -280 1807 l 1,26,27
 -209 1836 -209 1836 -133 1836 c 0,28,29
 -40 1836 -40 1836 29.5 1787.5 c 128,-1,30
 99 1739 99 1739 165 1618.5 c 128,-1,31
 231 1498 231 1498 309 1274 c 1,32,-1
 473 1274 l 1,33,-1
 550 1162 l 1,34,-1
 550 1142 l 1,0,-1
EndSplineSet
EndChar

StartChar: dvmEcandra
Encoding: 298 2373 42
Width: 0
GlyphClass: 4
Flags: W
AnchorPoint: "+BBEENQQ3BEsEPARPBD0EPQQ+BDUA--0" -170 1274 mark 0
LayerCount: 2
Fore
SplineSet
-658 1709 m 1,0,-1
 -584 1737 l 1,1,2
 -539 1631 -539 1631 -469 1579 c 128,-1,3
 -399 1527 -399 1527 -289 1527 c 0,4,5
 -191 1527 -191 1527 -122 1586.5 c 128,-1,6
 -53 1646 -53 1646 -28 1763 c 1,7,-1
 103 1720 l 1,8,9
 70 1570 70 1570 -31 1485.5 c 128,-1,10
 -132 1401 -132 1401 -276 1401 c 0,11,12
 -403 1401 -403 1401 -505 1483.5 c 128,-1,13
 -607 1566 -607 1566 -658 1709 c 1,0,-1
EndSplineSet
EndChar

StartChar: dvmEshort
Encoding: 300 2374 44
Width: 0
GlyphClass: 4
Flags: W
AnchorPoint: "+BBEENQQ3BEsEPARPBD0EPQQ+BDUA--0" -170 1274 mark 0
LayerCount: 2
Fore
SplineSet
-430 1496 m 0,0,1
 -470 1496 -470 1496 -508 1493.5 c 128,-1,2
 -546 1491 -546 1491 -584 1491 c 0,3,4
 -692 1492 -692 1492 -763 1561.5 c 128,-1,5
 -834 1631 -834 1631 -879 1787 c 1,6,-1
 -806 1810 l 1,7,8
 -785 1737 -785 1737 -746 1696 c 128,-1,9
 -707 1655 -707 1655 -637 1655 c 0,10,11
 -592 1655 -592 1655 -548 1658.5 c 128,-1,12
 -504 1662 -504 1662 -459 1662 c 0,13,14
 -339 1662 -339 1662 -275 1565.5 c 128,-1,15
 -211 1469 -211 1469 -177 1259 c 1,16,-1
 -250 1259 l 1,17,18
 -279 1398 -279 1398 -317.5 1447 c 128,-1,19
 -356 1496 -356 1496 -430 1496 c 0,0,1
EndSplineSet
EndChar

StartChar: dvmOshort
Encoding: 301 2378 45
Width: 483
Flags: W
LayerCount: 2
Fore
SplineSet
550 1142 m 1,0,-1
 313 1142 l 1,1,-1
 313 -10 l 1,2,-1
 294 -10 l 1,3,-1
 170 83 l 1,4,-1
 170 1142 l 1,5,-1
 -10 1142 l 1,6,-1
 -87 1254 l 1,7,-1
 -87 1274 l 1,8,-1
 235 1274 l 1,9,10
 209 1398 209 1398 170.5 1447 c 128,-1,11
 132 1496 132 1496 58 1496 c 2,12,-1
 -96 1491 l 1,13,14
 -204 1492 -204 1492 -275 1561.5 c 128,-1,15
 -346 1631 -346 1631 -391 1787 c 1,16,-1
 -318 1810 l 1,17,18
 -297 1737 -297 1737 -258 1696 c 128,-1,19
 -219 1655 -219 1655 -149 1655 c 2,20,-1
 29 1662 l 1,21,22
 148 1662 148 1662 211.5 1569 c 128,-1,23
 275 1476 275 1476 309 1274 c 1,24,-1
 473 1274 l 1,25,-1
 550 1162 l 1,26,-1
 550 1142 l 1,0,-1
EndSplineSet
EndChar

StartChar: dvmUE
Encoding: 302 2390 46
Width: 0
GlyphClass: 4
Flags: W
AnchorPoint: "+BBEENQQ3BEsEPARPBD0EPQQ+BDUA--1" -330 0 mark 0
LayerCount: 2
Fore
SplineSet
-879 -129 m 1,0,1
 -815 -176 -815 -176 -727 -200.5 c 128,-1,2
 -639 -225 -639 -225 -548 -225 c 0,3,4
 -370 -225 -370 -225 -229 -116 c 1,5,-1
 -118 -219 l 1,6,7
 -300 -351 -300 -351 -515 -351 c 0,8,9
 -639 -351 -639 -351 -748 -308.5 c 128,-1,10
 -857 -266 -857 -266 -942 -190 c 1,11,-1
 -879 -129 l 1,0,1
EndSplineSet
EndChar

StartChar: dvmUUE
Encoding: 303 2391 47
Width: 0
GlyphClass: 4
Flags: W
AnchorPoint: "+BBEENQQ3BEsEPARPBD0EPQQ+BDUA--1" -330 0 mark 0
LayerCount: 2
Fore
SplineSet
-942 -190 m 1,0,-1
 -879 -129 l 1,1,2
 -815 -176 -815 -176 -727 -200.5 c 128,-1,3
 -639 -225 -639 -225 -548 -225 c 0,4,5
 -370 -225 -370 -225 -229 -116 c 1,6,-1
 -118 -219 l 1,7,8
 -300 -351 -300 -351 -515 -351 c 0,9,10
 -639 -351 -639 -351 -748 -308.5 c 128,-1,11
 -857 -266 -857 -266 -942 -190 c 1,0,-1
-942 -476 m 1,12,-1
 -879 -415 l 1,13,14
 -815 -462 -815 -462 -727 -486.5 c 128,-1,15
 -639 -511 -639 -511 -548 -511 c 0,16,17
 -370 -511 -370 -511 -229 -402 c 1,18,-1
 -118 -505 l 1,19,20
 -300 -637 -300 -637 -515 -637 c 0,21,22
 -639 -637 -639 -637 -748 -594.5 c 128,-1,23
 -857 -552 -857 -552 -942 -476 c 1,12,-1
EndSplineSet
EndChar

StartChar: dvmOE
Encoding: 304 2362 48
Width: 0
GlyphClass: 4
Flags: W
AnchorPoint: "+BBEENQQ3BEsEPARPBD0EPQQ+BDUA--0" -170 1274 mark 0
LayerCount: 2
Fore
SplineSet
-170 1514 m 1,0,-1
 -170 1214 l 1,1,-1
 -313 1214 l 1,2,-1
 -313 1607 l 1,3,-1
 -294 1607 l 1,4,-1
 -170 1514 l 1,0,-1
EndSplineSet
EndChar

StartChar: dvmOOE
Encoding: 305 2363 49
Width: 483
Flags: W
LayerCount: 2
Fore
SplineSet
550 1142 m 1,0,-1
 313 1142 l 1,1,-1
 313 -10 l 1,2,-1
 294 -10 l 1,3,-1
 170 83 l 1,4,-1
 170 1142 l 1,5,-1
 -10 1142 l 1,6,-1
 -87 1254 l 1,7,-1
 -87 1274 l 1,8,-1
 170 1274 l 1,9,-1
 170 1607 l 1,10,-1
 189 1607 l 1,11,-1
 313 1514 l 1,12,-1
 313 1274 l 1,13,-1
 473 1274 l 1,14,-1
 550 1162 l 1,15,-1
 550 1142 l 1,0,-1
EndSplineSet
EndChar

StartChar: dvmAW
Encoding: 306 2383 50
Width: 483
Flags: W
LayerCount: 2
Fore
SplineSet
550 1142 m 1,0,-1
 313 1142 l 1,1,-1
 313 -10 l 1,2,-1
 294 -10 l 1,3,-1
 170 83 l 1,4,-1
 170 1142 l 1,5,-1
 -10 1142 l 1,6,-1
 -87 1254 l 1,7,-1
 -87 1274 l 1,8,-1
 159 1274 l 1,9,-1
 159 1276 l 2,10,11
 159 1336 159 1336 111.5 1368.5 c 128,-1,12
 64 1401 64 1401 -13 1401 c 0,13,14
 -54 1401 -54 1401 -118 1389 c 0,15,16
 -176 1377 -176 1377 -217 1377 c 0,17,18
 -334 1377 -334 1377 -397.5 1442 c 128,-1,19
 -461 1507 -461 1507 -481 1631 c 1,20,-1
 -409 1648 l 1,21,22
 -391 1577 -391 1577 -350.5 1547 c 128,-1,23
 -310 1517 -310 1517 -236 1517 c 0,24,25
 -210 1517 -210 1517 -178.5 1522 c 128,-1,26
 -147 1527 -147 1527 -138 1528 c 0,27,28
 -71 1541 -71 1541 -27 1541 c 0,29,30
 91 1541 91 1541 157 1479 c 128,-1,31
 223 1417 223 1417 223 1306 c 2,32,-1
 222 1274 l 1,33,-1
 261 1274 l 1,34,35
 273 1330 273 1330 273 1376 c 0,36,37
 273 1452 273 1452 236.5 1505 c 128,-1,38
 200 1558 200 1558 120 1597 c 0,39,40
 9 1651 9 1651 -43 1716.5 c 128,-1,41
 -95 1782 -95 1782 -95 1879 c 0,42,43
 -95 1931 -95 1931 -82 1990 c 1,44,-1
 -8 1980 l 1,45,-1
 -11 1945 l 1,46,47
 -11 1884 -11 1884 31.5 1837.5 c 128,-1,48
 74 1791 74 1791 181 1737 c 0,49,50
 368 1639 368 1639 368 1461 c 0,51,52
 368 1377 368 1377 325 1274 c 1,53,-1
 473 1274 l 1,54,-1
 550 1162 l 1,55,-1
 550 1142 l 1,0,-1
EndSplineSet
EndChar

StartChar: dvmEprishthamatra
Encoding: 307 2382 51
Width: 560
Flags: W
LayerCount: 2
Fore
SplineSet
627 1142 m 1,0,-1
 390 1142 l 1,1,-1
 390 -10 l 1,2,-1
 371 -10 l 1,3,-1
 247 83 l 1,4,-1
 247 1142 l 1,5,-1
 170 1254 l 1,6,-1
 170 1274 l 1,7,-1
 550 1274 l 1,8,-1
 627 1162 l 1,9,-1
 627 1142 l 1,0,-1
EndSplineSet
EndChar

StartChar: dvmEcandralong
Encoding: 308 2389 52
Width: 0
GlyphClass: 4
Flags: W
AnchorPoint: "+BBEENQQ3BEsEPARPBD0EPQQ+BDUA--0" -170 1274 mark 0
LayerCount: 2
Fore
SplineSet
-658 1934 m 1,0,-1
 -584 1962 l 1,1,2
 -539 1856 -539 1856 -469 1804 c 128,-1,3
 -399 1752 -399 1752 -289 1752 c 0,4,5
 -191 1752 -191 1752 -122 1811.5 c 128,-1,6
 -53 1871 -53 1871 -28 1988 c 1,7,-1
 103 1945 l 1,8,9
 70 1795 70 1795 -31 1710.5 c 128,-1,10
 -132 1626 -132 1626 -276 1626 c 0,11,12
 -403 1626 -403 1626 -505 1708.5 c 128,-1,13
 -607 1791 -607 1791 -658 1934 c 1,0,-1
-600 1501 m 1,14,-1
 -600 1521 l 1,15,-1
 40 1521 l 1,16,-1
 117 1409 l 1,17,-1
 117 1389 l 1,18,-1
 -523 1389 l 1,19,-1
 -600 1501 l 1,14,-1
EndSplineSet
EndChar

StartChar: dvKA
Encoding: 309 2325 53
Width: 1436
Flags: W
AnchorPoint: "+BBEENQQ3BEsEPARPBD0EPQQ+BDUA--1" 840 0 basechar 0
AnchorPoint: "+BBEENQQ3BEsEPARPBD0EPQQ+BDUA--0" 840 1274 basechar 0
LayerCount: 2
Fore
SplineSet
840 1142 m 1,0,-1
 840 741 l 1,1,2
 945 831 945 831 1051 831 c 0,3,4
 1179 831 1179 831 1271.5 735.5 c 128,-1,5
 1364 640 1364 640 1364 486 c 0,6,7
 1364 406 1364 406 1324 316.5 c 128,-1,8
 1284 227 1284 227 1225 159 c 1,9,-1
 1089 257 l 1,10,11
 1155 339 1155 339 1198.5 418 c 128,-1,12
 1242 497 1242 497 1242 579 c 0,13,14
 1242 637 1242 637 1211 672 c 128,-1,15
 1180 707 1180 707 1128 707 c 0,16,17
 1059 707 1059 707 986.5 655 c 128,-1,18
 914 603 914 603 840 523 c 1,19,-1
 840 -10 l 1,20,-1
 821 -10 l 1,21,-1
 697 83 l 1,22,-1
 697 362 l 1,23,24
 653 317 653 317 592 289.5 c 128,-1,25
 531 262 531 262 461 262 c 0,26,27
 373 262 373 262 312.5 291 c 128,-1,28
 252 320 252 320 191 376 c 0,29,30
 72 487 72 487 72 629 c 0,31,32
 72 754 72 754 163 838 c 128,-1,33
 254 922 254 922 387 922 c 0,34,35
 558 922 558 922 697 812 c 1,36,-1
 697 1142 l 1,37,-1
 -10 1142 l 1,38,-1
 -87 1254 l 1,39,-1
 -87 1274 l 1,40,-1
 1426 1274 l 1,41,-1
 1503 1162 l 1,42,-1
 1503 1142 l 1,43,-1
 840 1142 l 1,0,-1
697 578 m 1,44,-1
 697 718 l 1,45,46
 638 756 638 756 585.5 772.5 c 128,-1,47
 533 789 533 789 468 789 c 0,48,49
 387 789 387 789 326.5 754.5 c 128,-1,50
 266 720 266 720 234.5 666.5 c 128,-1,51
 203 613 203 613 203 556 c 0,52,53
 203 483 203 483 252.5 438 c 128,-1,54
 302 393 302 393 386 393 c 0,55,56
 472 393 472 393 552.5 442.5 c 128,-1,57
 633 492 633 492 697 578 c 1,44,-1
EndSplineSet
EndChar

StartChar: dvKHA
Encoding: 310 2326 54
Width: 1493
Flags: W
LayerCount: 2
Fore
SplineSet
1560 1142 m 1,0,-1
 1323 1142 l 1,1,-1
 1323 -10 l 1,2,-1
 1304 -10 l 1,3,-1
 1180 83 l 1,4,-1
 1180 137 l 1,5,6
 1025 25 1025 25 783 25 c 0,7,8
 612 25 612 25 455.5 119.5 c 128,-1,9
 299 214 299 214 187 385 c 128,-1,10
 75 556 75 556 75 680 c 0,11,12
 75 735 75 735 105.5 767 c 128,-1,13
 136 799 136 799 183 799 c 0,14,15
 225 799 225 799 256.5 779 c 128,-1,16
 288 759 288 759 324 719 c 1,17,18
 438 780 438 780 438 955 c 0,19,20
 438 1055 438 1055 389 1142 c 1,21,-1
 -10 1142 l 1,22,-1
 -87 1254 l 1,23,-1
 -87 1274 l 1,24,-1
 1483 1274 l 1,25,-1
 1560 1162 l 1,26,-1
 1560 1142 l 1,0,-1
1180 1142 m 1,27,-1
 498 1142 l 1,28,29
 565 1002 565 1002 565 881 c 0,30,31
 565 625 565 625 255 466 c 1,32,33
 395 166 395 166 761 166 c 0,34,35
 1017 166 1017 166 1180 299 c 1,36,-1
 1180 425 l 1,37,38
 1108 369 1108 369 1009 369 c 0,39,40
 921 369 921 369 836.5 414 c 128,-1,41
 752 459 752 459 696 538.5 c 128,-1,42
 640 618 640 618 640 707 c 0,43,44
 640 821 640 821 724.5 893.5 c 128,-1,45
 809 966 809 966 939 966 c 0,46,47
 1001 966 1001 966 1064 942 c 128,-1,48
 1127 918 1127 918 1180 877 c 1,49,-1
 1180 1142 l 1,27,-1
1180 798 m 1,50,51
 1104 831 1104 831 1020 831 c 0,52,53
 912 831 912 831 842.5 779.5 c 128,-1,54
 773 728 773 728 773 644 c 0,55,56
 773 571 773 571 821 530.5 c 128,-1,57
 869 490 869 490 942 490 c 0,58,59
 1004 490 1004 490 1069 521 c 128,-1,60
 1134 552 1134 552 1180 601 c 1,61,-1
 1180 798 l 1,50,51
EndSplineSet
EndChar

StartChar: dvGA
Encoding: 311 2327 55
Width: 1053
Flags: W
LayerCount: 2
Fore
SplineSet
1120 1142 m 1,0,-1
 883 1142 l 1,1,-1
 883 -10 l 1,2,-1
 864 -10 l 1,3,-1
 740 83 l 1,4,-1
 740 1142 l 1,5,-1
 361 1142 l 1,6,7
 411 842 411 842 411 574 c 0,8,9
 411 388 411 388 305 388 c 0,10,11
 224 388 224 388 144 477 c 128,-1,12
 64 566 64 566 64 654 c 0,13,14
 64 746 64 746 162 746 c 0,15,16
 206 746 206 746 249 741 c 1,17,18
 257 805 257 805 257 874 c 0,19,20
 257 1003 257 1003 244 1142 c 1,21,-1
 -10 1142 l 1,22,-1
 -87 1254 l 1,23,-1
 -87 1274 l 1,24,-1
 1043 1274 l 1,25,-1
 1120 1162 l 1,26,-1
 1120 1142 l 1,0,-1
EndSplineSet
EndChar

StartChar: dvGHA
Encoding: 312 2328 56
Width: 1102
Flags: W
LayerCount: 2
Fore
SplineSet
1169 1142 m 1,0,-1
 932 1142 l 1,1,-1
 932 -10 l 1,2,-1
 913 -10 l 1,3,-1
 789 83 l 1,4,-1
 789 341 l 1,5,6
 741 295 741 295 671.5 263 c 128,-1,7
 602 231 602 231 520 231 c 0,8,9
 359 231 359 231 245.5 350.5 c 128,-1,10
 132 470 132 470 132 575 c 0,11,12
 132 717 132 717 290 794 c 1,13,14
 83 884 83 884 83 1061 c 0,15,16
 83 1101 83 1101 97 1142 c 1,17,-1
 -10 1142 l 1,18,-1
 -87 1254 l 1,19,-1
 -87 1274 l 1,20,-1
 1092 1274 l 1,21,-1
 1169 1162 l 1,22,-1
 1169 1142 l 1,0,-1
789 1142 m 1,23,-1
 280 1142 l 1,24,25
 250 1096 250 1096 250 1043 c 0,26,27
 250 919 250 919 375 828 c 1,28,29
 443 847 443 847 519 855 c 1,30,-1
 622 713 l 1,31,32
 464 702 464 702 370.5 643.5 c 128,-1,33
 277 585 277 585 277 498 c 0,34,35
 277 439 277 439 318.5 405.5 c 128,-1,36
 360 372 360 372 444 372 c 0,37,38
 539 372 539 372 630.5 423.5 c 128,-1,39
 722 475 722 475 789 557 c 1,40,-1
 789 1142 l 1,23,-1
EndSplineSet
EndChar

StartChar: dvNGA
Encoding: 313 2329 57
Width: 1134
Flags: W
AnchorPoint: "+BBEENQQ3BEsEPARPBD0EPQQ+BDUA--1" 707 -66 basechar 0
AnchorPoint: "+BBEENQQ3BEsEPARPBD0EPQQ+BDUA--0" 818 1274 basechar 0
LayerCount: 2
Fore
SplineSet
1201 1162 m 1,0,-1
 1201 1142 l 1,1,-1
 818 1142 l 1,2,-1
 818 838 l 1,3,4
 715 847 715 847 661 847 c 0,5,6
 488 847 488 847 408 799 c 128,-1,7
 328 751 328 751 328 672 c 0,8,9
 328 599 328 599 398 552 c 1,10,11
 463 592 463 592 530 611.5 c 128,-1,12
 597 631 597 631 649 631 c 0,13,14
 738 631 738 631 799.5 593 c 128,-1,15
 861 555 861 555 911 479 c 128,-1,16
 961 403 961 403 961 322 c 0,17,18
 961 239 961 239 920.5 168.5 c 128,-1,19
 880 98 880 98 800 56 c 128,-1,20
 720 14 720 14 608 14 c 0,21,22
 445 14 445 14 297.5 105.5 c 128,-1,23
 150 197 150 197 28 374 c 1,24,-1
 102 427 l 1,25,26
 194 294 194 294 306.5 222.5 c 128,-1,27
 419 151 419 151 534 151 c 0,28,29
 671 151 671 151 760 212 c 128,-1,30
 849 273 849 273 849 368 c 0,31,32
 849 429 849 429 810 460.5 c 128,-1,33
 771 492 771 492 713 492 c 0,34,35
 598 492 598 492 447 397 c 1,36,37
 339 462 339 462 272 556.5 c 128,-1,38
 205 651 205 651 205 740 c 0,39,40
 205 844 205 844 280.5 901.5 c 128,-1,41
 356 959 356 959 496 959 c 0,42,43
 563 959 563 959 673 948 c 1,44,-1
 673 1142 l 1,45,-1
 -10 1142 l 1,46,-1
 -87 1254 l 1,47,-1
 -87 1274 l 1,48,-1
 1124 1274 l 1,49,-1
 1201 1162 l 1,0,-1
1095 722 m 0,50,51
 1095 614 1095 614 995 614 c 0,52,53
 894 614 894 614 894 722 c 0,54,55
 894 831 894 831 995 831 c 0,56,57
 1095 831 1095 831 1095 722 c 0,50,51
EndSplineSet
EndChar

StartChar: dvCA
Encoding: 314 2330 58
Width: 1151
Flags: W
LayerCount: 2
Fore
SplineSet
1218 1142 m 1,0,-1
 981 1142 l 1,1,-1
 981 -10 l 1,2,-1
 962 -10 l 1,3,-1
 838 83 l 1,4,-1
 838 335 l 1,5,6
 741 245 741 245 613 245 c 0,7,8
 532 245 532 245 473.5 270 c 128,-1,9
 415 295 415 295 349 353.5 c 128,-1,10
 283 412 283 412 254 471 c 128,-1,11
 225 530 225 530 225 596 c 0,12,13
 225 708 225 708 311 771 c 1,14,-1
 126 771 l 1,15,-1
 40 883 l 1,16,-1
 40 904 l 1,17,-1
 646 904 l 1,18,-1
 732 790 l 1,19,-1
 732 767 l 1,20,-1
 655 767 l 2,21,22
 528 767 528 767 440.5 698.5 c 128,-1,23
 353 630 353 630 353 535 c 0,24,25
 353 465 353 465 404 420.5 c 128,-1,26
 455 376 455 376 538 376 c 0,27,28
 620 376 620 376 697.5 421.5 c 128,-1,29
 775 467 775 467 838 547 c 1,30,-1
 838 1142 l 1,31,-1
 -10 1142 l 1,32,-1
 -87 1254 l 1,33,-1
 -87 1274 l 1,34,-1
 1141 1274 l 1,35,-1
 1218 1162 l 1,36,-1
 1218 1142 l 1,0,-1
EndSplineSet
EndChar

StartChar: dvCHA
Encoding: 315 2331 59
Width: 1252
Flags: W
AnchorPoint: "+BBEENQQ3BEsEPARPBD0EPQQ+BDUA--1" 752 -70 basechar 0
AnchorPoint: "+BBEENQQ3BEsEPARPBD0EPQQ+BDUA--0" 973 1274 basechar 0
LayerCount: 2
Fore
SplineSet
973 1142 m 1,0,-1
 973 968 l 1,1,2
 1064 930 1064 930 1120 833 c 128,-1,3
 1176 736 1176 736 1176 614 c 0,4,5
 1176 456 1176 456 1098 317 c 128,-1,6
 1020 178 1020 178 881.5 94 c 128,-1,7
 743 10 743 10 573 10 c 0,8,9
 479 10 479 10 388 55 c 128,-1,10
 297 100 297 100 237.5 176 c 128,-1,11
 178 252 178 252 178 329 c 0,12,13
 178 440 178 440 262 512 c 1,14,15
 178 544 178 544 128 611 c 128,-1,16
 78 678 78 678 78 768 c 0,17,18
 78 868 78 868 145.5 930 c 128,-1,19
 213 992 213 992 319 992 c 0,20,21
 379 992 379 992 435.5 969.5 c 128,-1,22
 492 947 492 947 529 904 c 1,23,-1
 507 857 l 1,24,25
 466 877 466 877 418 877 c 0,26,27
 340 877 340 877 288.5 835 c 128,-1,28
 237 793 237 793 237 722 c 0,29,30
 237 679 237 679 261 633.5 c 128,-1,31
 285 588 285 588 329 556 c 1,32,33
 413 600 413 600 524 600 c 2,34,-1
 537 600 l 1,35,-1
 591 480 l 1,36,37
 471 480 471 480 392 431.5 c 128,-1,38
 313 383 313 383 313 295 c 0,39,40
 313 217 313 217 362 174 c 128,-1,41
 411 131 411 131 506 131 c 0,42,43
 643 131 643 131 760 192 c 128,-1,44
 877 253 877 253 954 357 c 1,45,46
 796 429 796 429 710.5 529 c 128,-1,47
 625 629 625 629 625 751 c 0,48,49
 625 844 625 844 680 908 c 128,-1,50
 735 972 735 972 830 985 c 1,51,-1
 830 1142 l 1,52,-1
 -10 1142 l 1,53,-1
 -87 1254 l 1,54,-1
 -87 1274 l 1,55,-1
 1242 1274 l 1,56,-1
 1319 1162 l 1,57,-1
 1319 1142 l 1,58,-1
 973 1142 l 1,0,-1
913 871 m 0,59,60
 846 871 846 871 802.5 828 c 128,-1,61
 759 785 759 785 759 711 c 0,62,63
 759 619 759 619 829 546 c 128,-1,64
 899 473 899 473 997 424 c 1,65,66
 1065 548 1065 548 1065 690 c 0,67,68
 1065 776 1065 776 1022 823.5 c 128,-1,69
 979 871 979 871 913 871 c 0,59,60
EndSplineSet
EndChar

StartChar: dvJA
Encoding: 316 2332 60
Width: 1319
Flags: W
LayerCount: 2
Fore
SplineSet
1386 1142 m 1,0,-1
 1149 1142 l 1,1,-1
 1149 -10 l 1,2,-1
 1130 -10 l 1,3,-1
 1006 83 l 1,4,-1
 1006 769 l 1,5,-1
 732 769 l 2,6,7
 651 769 651 769 628 773 c 1,8,9
 794 605 794 605 794 426 c 0,10,11
 794 310 794 310 731.5 245 c 128,-1,12
 669 180 669 180 560 180 c 0,13,14
 394 180 394 180 263.5 343.5 c 128,-1,15
 133 507 133 507 47 810 c 1,16,-1
 134 838 l 1,17,18
 217 578 217 578 311.5 454 c 128,-1,19
 406 330 406 330 503 330 c 0,20,21
 647 330 647 330 647 478 c 0,22,23
 647 576 647 576 594.5 671 c 128,-1,24
 542 766 542 766 461 828 c 1,25,-1
 496 900 l 1,26,-1
 1006 900 l 1,27,-1
 1006 1142 l 1,28,-1
 -10 1142 l 1,29,-1
 -87 1254 l 1,30,-1
 -87 1274 l 1,31,-1
 1309 1274 l 1,32,-1
 1386 1162 l 1,33,-1
 1386 1142 l 1,0,-1
EndSplineSet
EndChar

StartChar: dvJHA
Encoding: 317 2333 61
Width: 1400
Flags: W
LayerCount: 2
Fore
SplineSet
1467 1142 m 1,0,-1
 1230 1142 l 1,1,-1
 1230 -10 l 1,2,-1
 1211 -10 l 1,3,-1
 1087 83 l 1,4,-1
 1087 471 l 1,5,6
 1031 449 1031 449 972 449 c 0,7,8
 881 449 881 449 798 490 c 1,9,10
 855 409 855 409 855 322 c 0,11,12
 855 189 855 189 744 104 c 128,-1,13
 633 19 633 19 458 17 c 1,14,15
 582 -95 582 -95 775 -179 c 1,16,-1
 676 -297 l 1,17,18
 603 -248 603 -248 515.5 -160 c 128,-1,19
 428 -72 428 -72 357 17 c 1,20,21
 247 22 247 22 183 61.5 c 128,-1,22
 119 101 119 101 119 162 c 0,23,24
 119 202 119 202 146 224.5 c 128,-1,25
 173 247 173 247 218 247 c 0,26,27
 304 247 304 247 382 149 c 1,28,29
 541 149 541 149 642 211 c 128,-1,30
 743 273 743 273 743 368 c 0,31,32
 743 429 743 429 704 460.5 c 128,-1,33
 665 492 665 492 607 492 c 0,34,35
 492 492 492 492 341 397 c 1,36,37
 233 462 233 462 166 556.5 c 128,-1,38
 99 651 99 651 99 740 c 0,39,40
 99 844 99 844 174.5 901.5 c 128,-1,41
 250 959 250 959 390 959 c 0,42,43
 457 959 457 959 567 948 c 1,44,-1
 567 1142 l 1,45,-1
 -10 1142 l 1,46,-1
 -87 1254 l 1,47,-1
 -87 1274 l 1,48,-1
 1390 1274 l 1,49,-1
 1467 1162 l 1,50,-1
 1467 1142 l 1,0,-1
1087 1142 m 1,51,-1
 712 1142 l 1,52,-1
 712 838 l 1,53,54
 609 847 609 847 555 847 c 0,55,56
 382 847 382 847 302 799 c 128,-1,57
 222 751 222 751 222 672 c 0,58,59
 222 599 222 599 292 552 c 1,60,61
 357 592 357 592 424 611.5 c 128,-1,62
 491 631 491 631 543 631 c 0,63,64
 588 631 588 631 620.5 623 c 128,-1,65
 653 615 653 615 695 599 c 0,66,67
 742 582 742 582 780 573 c 128,-1,68
 818 564 818 564 874 564 c 0,69,70
 935 564 935 564 992 580 c 128,-1,71
 1049 596 1049 596 1087 624 c 1,72,-1
 1087 1142 l 1,51,-1
EndSplineSet
EndChar

StartChar: dvNYA
Encoding: 318 2334 62
Width: 1361
Flags: W
LayerCount: 2
Fore
SplineSet
1428 1142 m 1,0,-1
 1191 1142 l 1,1,-1
 1191 -10 l 1,2,-1
 1172 -10 l 1,3,-1
 1048 83 l 1,4,-1
 1048 533 l 1,5,6
 992 519 992 519 924 519 c 1,7,-1
 874 523 l 1,8,9
 859 398 859 398 769 330 c 128,-1,10
 679 262 679 262 539 262 c 0,11,12
 377 262 377 262 249 383 c 128,-1,13
 121 504 121 504 40 723 c 1,14,-1
 123 763 l 1,15,16
 189 585 189 585 276.5 491.5 c 128,-1,17
 364 398 364 398 484 398 c 256,18,19
 604 398 604 398 674 465 c 128,-1,20
 744 532 744 532 744 646 c 0,21,22
 744 719 744 719 709 751.5 c 128,-1,23
 674 784 674 784 602 784 c 0,24,25
 553 784 553 784 506.5 769.5 c 128,-1,26
 460 755 460 755 400 724 c 1,27,-1
 327 878 l 1,28,29
 451 934 451 934 547 934 c 0,30,31
 630 934 630 934 694.5 891.5 c 128,-1,32
 759 849 759 849 811 767.5 c 128,-1,33
 863 686 863 686 874 617 c 1,34,35
 973 628 973 628 1048 687 c 1,36,-1
 1048 1142 l 1,37,-1
 -10 1142 l 1,38,-1
 -87 1254 l 1,39,-1
 -87 1274 l 1,40,-1
 1351 1274 l 1,41,-1
 1428 1162 l 1,42,-1
 1428 1142 l 1,0,-1
EndSplineSet
EndChar

StartChar: dvTTA
Encoding: 319 2335 63
Width: 930
Flags: W
AnchorPoint: "+BBEENQQ3BEsEPARPBD0EPQQ+BDUA--1" 637 -21 basechar 0
AnchorPoint: "+BBEENQQ3BEsEPARPBD0EPQQ+BDUA--0" 778 1274 basechar 0
LayerCount: 2
Fore
SplineSet
236 466 m 0,0,1
 236 347 236 347 317 276 c 128,-1,2
 398 205 398 205 535 205 c 0,3,4
 626 205 626 205 689 224 c 128,-1,5
 752 243 752 243 819 281 c 1,6,-1
 905 145 l 1,7,8
 767 59 767 59 596 59 c 0,9,10
 468 59 468 59 353 126 c 128,-1,11
 238 193 238 193 168 304.5 c 128,-1,12
 98 416 98 416 98 541 c 0,13,14
 98 695 98 695 217 788.5 c 128,-1,15
 336 882 336 882 529 882 c 0,16,17
 577 882 577 882 635 877 c 1,18,-1
 635 1142 l 1,19,-1
 -10 1142 l 1,20,-1
 -87 1254 l 1,21,-1
 -87 1274 l 1,22,-1
 920 1274 l 1,23,-1
 997 1162 l 1,24,-1
 997 1142 l 1,25,-1
 778 1142 l 1,26,-1
 778 763 l 1,27,-1
 694 765 l 1,28,29
 490 765 490 765 363 681.5 c 128,-1,30
 236 598 236 598 236 466 c 0,0,1
EndSplineSet
EndChar

StartChar: dvTTHA
Encoding: 320 2336 64
Width: 1081
Flags: W
AnchorPoint: "+BBEENQQ3BEsEPARPBD0EPQQ+BDUA--1" 657 -30 basechar 0
AnchorPoint: "+BBEENQQ3BEsEPARPBD0EPQQ+BDUA--0" 706 1274 basechar 0
LayerCount: 2
Fore
SplineSet
706 1142 m 1,0,-1
 706 860 l 1,1,2
 843 810 843 810 921 697 c 128,-1,3
 999 584 999 584 999 437 c 0,4,5
 999 259 999 259 887.5 154.5 c 128,-1,6
 776 50 776 50 586 50 c 0,7,8
 457 50 457 50 344 113 c 128,-1,9
 231 176 231 176 162.5 286 c 128,-1,10
 94 396 94 396 94 531 c 0,11,12
 94 637 94 637 148 719.5 c 128,-1,13
 202 802 202 802 291.5 847 c 128,-1,14
 381 892 381 892 483 892 c 0,15,16
 520 892 520 892 563 886 c 1,17,-1
 563 1142 l 1,18,-1
 -12 1142 l 1,19,-1
 -89 1254 l 1,20,-1
 -89 1274 l 1,21,-1
 1071 1274 l 1,22,-1
 1148 1162 l 1,23,-1
 1148 1142 l 1,24,-1
 706 1142 l 1,0,-1
638 804 m 1,25,26
 512 803 512 803 421.5 754.5 c 128,-1,27
 331 706 331 706 285 627 c 128,-1,28
 239 548 239 548 239 456 c 0,29,30
 239 329 239 329 318 246 c 128,-1,31
 397 163 397 163 519 163 c 0,32,33
 663 163 663 163 757.5 255 c 128,-1,34
 852 347 852 347 852 489 c 0,35,36
 852 582 852 582 798.5 668 c 128,-1,37
 745 754 745 754 638 804 c 1,25,26
EndSplineSet
EndChar

StartChar: dvDDA
Encoding: 321 2337 65
Width: 1043
Flags: W
AnchorPoint: "+BBEENQQ3BEsEPARPBD0EPQQ+BDUA--1" 707 -66 basechar 0
AnchorPoint: "+BBEENQQ3BEsEPARPBD0EPQQ+BDUA--0" 818 1274 basechar 0
LayerCount: 2
Fore
SplineSet
328 672 m 0,0,1
 328 599 328 599 398 552 c 1,2,3
 463 592 463 592 530 611.5 c 128,-1,4
 597 631 597 631 649 631 c 0,5,6
 738 631 738 631 799.5 593 c 128,-1,7
 861 555 861 555 911 479 c 128,-1,8
 961 403 961 403 961 322 c 0,9,10
 961 239 961 239 920.5 168.5 c 128,-1,11
 880 98 880 98 800 56 c 128,-1,12
 720 14 720 14 608 14 c 0,13,14
 445 14 445 14 297.5 105.5 c 128,-1,15
 150 197 150 197 28 374 c 1,16,-1
 102 427 l 1,17,18
 194 294 194 294 306.5 222.5 c 128,-1,19
 419 151 419 151 534 151 c 0,20,21
 671 151 671 151 760 212 c 128,-1,22
 849 273 849 273 849 368 c 0,23,24
 849 429 849 429 810 460.5 c 128,-1,25
 771 492 771 492 713 492 c 0,26,27
 598 492 598 492 447 397 c 1,28,29
 339 462 339 462 272 556.5 c 128,-1,30
 205 651 205 651 205 740 c 0,31,32
 205 844 205 844 280.5 901.5 c 128,-1,33
 356 959 356 959 496 959 c 0,34,35
 563 959 563 959 673 948 c 1,36,-1
 673 1142 l 1,37,-1
 -10 1142 l 1,38,-1
 -87 1254 l 1,39,-1
 -87 1274 l 1,40,-1
 1033 1274 l 1,41,-1
 1110 1162 l 1,42,-1
 1110 1142 l 1,43,-1
 818 1142 l 1,44,-1
 818 838 l 1,45,46
 715 847 715 847 661 847 c 0,47,48
 488 847 488 847 408 799 c 128,-1,49
 328 751 328 751 328 672 c 0,0,1
EndSplineSet
EndChar

StartChar: dvDDHA
Encoding: 322 2338 66
Width: 1033
Flags: W
AnchorPoint: "+BBEENQQ3BEsEPARPBD0EPQQ+BDUA--1" 687 -80 basechar 0
AnchorPoint: "+BBEENQQ3BEsEPARPBD0EPQQ+BDUA--0" 821 1274 basechar 0
LayerCount: 2
Fore
SplineSet
249 421 m 0,0,1
 249 295 249 295 335 211.5 c 128,-1,2
 421 128 421 128 557 125 c 1,3,4
 508 171 508 171 478.5 239 c 128,-1,5
 449 307 449 307 449 372 c 0,6,7
 449 471 449 471 512.5 531 c 128,-1,8
 576 591 576 591 683 591 c 0,9,10
 802 591 802 591 885 496.5 c 128,-1,11
 968 402 968 402 968 291 c 0,12,13
 968 163 968 163 872.5 81.5 c 128,-1,14
 777 0 777 0 623 0 c 0,15,16
 507 0 507 0 397 55.5 c 128,-1,17
 287 111 287 111 196.5 239 c 128,-1,18
 106 367 106 367 106 506 c 0,19,20
 106 679 106 679 230.5 781.5 c 128,-1,21
 355 884 355 884 565 884 c 1,22,-1
 673 880 l 1,23,-1
 673 1142 l 1,24,-1
 -10 1142 l 1,25,-1
 -87 1254 l 1,26,-1
 -87 1274 l 1,27,-1
 1023 1274 l 1,28,-1
 1100 1162 l 1,29,-1
 1100 1142 l 1,30,-1
 821 1142 l 1,31,-1
 821 769 l 1,32,33
 738 774 738 774 678 774 c 0,34,35
 477 774 477 774 363 679.5 c 128,-1,36
 249 585 249 585 249 421 c 0,0,1
587 294 m 0,37,38
 587 208 587 208 639 133 c 1,39,40
 726 152 726 152 781.5 213 c 128,-1,41
 837 274 837 274 837 347 c 0,42,43
 837 402 837 402 809 433.5 c 128,-1,44
 781 465 781 465 735 465 c 0,45,46
 668 465 668 465 627.5 416 c 128,-1,47
 587 367 587 367 587 294 c 0,37,38
EndSplineSet
EndChar

StartChar: dvNNA
Encoding: 323 2339 67
Width: 1405
Flags: W
LayerCount: 2
Fore
SplineSet
1472 1142 m 1,0,-1
 1235 1142 l 1,1,-1
 1235 -10 l 1,2,-1
 1216 -10 l 1,3,-1
 1092 83 l 1,4,-1
 1092 1142 l 1,5,-1
 786 1142 l 1,6,-1
 786 658 l 2,7,8
 786 489 786 489 717 403.5 c 128,-1,9
 648 318 648 318 514 318 c 0,10,11
 439 318 439 318 358 369 c 128,-1,12
 277 420 277 420 217 502.5 c 128,-1,13
 157 585 157 585 157 684 c 2,14,-1
 157 1142 l 1,15,-1
 -10 1142 l 1,16,-1
 -87 1254 l 1,17,-1
 -87 1274 l 1,18,-1
 1395 1274 l 1,19,-1
 1472 1162 l 1,20,-1
 1472 1142 l 1,0,-1
638 1142 m 1,21,-1
 304 1142 l 1,22,-1
 304 649 l 2,23,24
 304 541 304 541 344 490.5 c 128,-1,25
 384 440 384 440 469 440 c 0,26,27
 638 440 638 440 638 682 c 2,28,-1
 638 1142 l 1,21,-1
EndSplineSet
EndChar

StartChar: dvTA
Encoding: 324 2340 68
Width: 1076
Flags: W
LayerCount: 2
Fore
SplineSet
1143 1142 m 1,0,-1
 906 1142 l 1,1,-1
 906 -10 l 1,2,-1
 887 -10 l 1,3,-1
 763 83 l 1,4,-1
 763 731 l 1,5,6
 649 745 649 745 519 745 c 0,7,8
 391 745 391 745 318 676.5 c 128,-1,9
 245 608 245 608 245 490 c 0,10,11
 245 373 245 373 323.5 256.5 c 128,-1,12
 402 140 402 140 524 41 c 1,13,-1
 465 -25 l 1,14,15
 315 93 315 93 205 238.5 c 128,-1,16
 95 384 95 384 95 548 c 0,17,18
 95 698 95 698 203.5 791 c 128,-1,19
 312 884 312 884 485 884 c 0,20,21
 590 884 590 884 763 858 c 1,22,-1
 763 1142 l 1,23,-1
 -10 1142 l 1,24,-1
 -87 1254 l 1,25,-1
 -87 1274 l 1,26,-1
 1066 1274 l 1,27,-1
 1143 1162 l 1,28,-1
 1143 1142 l 1,0,-1
EndSplineSet
EndChar

StartChar: dvTHA
Encoding: 325 2341 69
Width: 1182
Flags: W
LayerCount: 2
Fore
SplineSet
1249 1142 m 1,0,-1
 1012 1142 l 1,1,-1
 1012 -10 l 1,2,-1
 993 -10 l 1,3,-1
 869 83 l 1,4,-1
 869 369 l 1,5,6
 818 312 818 312 739.5 278.5 c 128,-1,7
 661 245 661 245 579 245 c 0,8,9
 404 245 404 245 282 356.5 c 128,-1,10
 160 468 160 468 82 650 c 1,11,12
 247 709 247 709 295.5 730 c 128,-1,13
 344 751 344 751 384 774 c 1,14,15
 129 904 129 904 129 1074 c 0,16,17
 129 1164 129 1164 187.5 1222 c 128,-1,18
 246 1280 246 1280 335 1280 c 0,19,20
 432 1280 432 1280 513.5 1222 c 128,-1,21
 595 1164 595 1164 633 1095 c 128,-1,22
 671 1026 671 1026 671 943 c 0,23,24
 671 821 671 821 584.5 731 c 128,-1,25
 498 641 498 641 289 558 c 0,26,27
 267 549 267 549 267 525 c 0,28,29
 267 471 267 471 339.5 426.5 c 128,-1,30
 412 382 412 382 508 382 c 0,31,32
 614 382 614 382 709.5 437 c 128,-1,33
 805 492 805 492 869 586 c 1,34,-1
 869 1142 l 1,35,-1
 763 1142 l 1,36,-1
 686 1254 l 1,37,-1
 686 1274 l 1,38,-1
 1172 1274 l 1,39,-1
 1249 1162 l 1,40,-1
 1249 1142 l 1,0,-1
455 824 m 1,41,42
 542 900 542 900 542 1005 c 0,43,44
 542 1073 542 1073 502.5 1115 c 128,-1,45
 463 1157 463 1157 402 1157 c 0,46,47
 351 1157 351 1157 315.5 1125.5 c 128,-1,48
 280 1094 280 1094 280 1034 c 0,49,50
 280 966 280 966 328 915.5 c 128,-1,51
 376 865 376 865 455 824 c 1,41,42
EndSplineSet
EndChar

StartChar: dvDA
Encoding: 326 2342 70
Width: 930
Flags: W
AnchorPoint: "+BBEENQQ3BEsEPARPBD0EPQQ+BDUA--0" 740 1274 basechar 0
LayerCount: 2
Fore
SplineSet
209 494 m 0,0,1
 209 394 209 394 274 329 c 128,-1,2
 339 264 339 264 441 264 c 0,3,4
 534 264 534 264 581 293 c 1,5,6
 567 329 567 329 567 373 c 0,7,8
 567 419 567 419 598 451 c 128,-1,9
 629 483 629 483 677 483 c 0,10,11
 745 483 745 483 797.5 430.5 c 128,-1,12
 850 378 850 378 850 308 c 0,13,14
 850 267 850 267 822.5 228 c 128,-1,15
 795 189 795 189 733 165 c 1,16,17
 810 43 810 43 979 -109 c 1,18,-1
 817 -176 l 1,19,20
 711 -19 711 -19 645 144 c 1,21,22
 606 133 606 133 534 133 c 0,23,24
 416 133 416 133 309.5 191 c 128,-1,25
 203 249 203 249 138 349.5 c 128,-1,26
 73 450 73 450 73 557 c 0,27,28
 73 701 73 701 186.5 791 c 128,-1,29
 300 881 300 881 485 881 c 0,30,31
 539 881 539 881 597 875 c 1,32,-1
 597 1142 l 1,33,-1
 -10 1142 l 1,34,-1
 -87 1254 l 1,35,-1
 -87 1274 l 1,36,-1
 920 1274 l 1,37,-1
 997 1162 l 1,38,-1
 997 1142 l 1,39,-1
 740 1142 l 1,40,-1
 740 775 l 1,41,-1
 644 777 l 1,42,43
 440 777 440 777 324.5 701.5 c 128,-1,44
 209 626 209 626 209 494 c 0,0,1
EndSplineSet
EndChar

StartChar: dvDHA
Encoding: 327 2343 71
Width: 1136
Flags: W
LayerCount: 2
Fore
SplineSet
1203 1142 m 1,0,-1
 966 1142 l 1,1,-1
 966 -10 l 1,2,-1
 947 -10 l 1,3,-1
 823 83 l 1,4,-1
 823 329 l 1,5,6
 775 283 775 283 705 250 c 128,-1,7
 635 217 635 217 552 217 c 0,8,9
 391 217 391 217 277.5 336.5 c 128,-1,10
 164 456 164 456 164 561 c 0,11,12
 164 685 164 685 294 757 c 1,13,14
 163 865 163 865 131.5 904 c 128,-1,15
 100 943 100 943 84 983.5 c 128,-1,16
 68 1024 68 1024 68 1075 c 0,17,18
 68 1175 68 1175 131 1236.5 c 128,-1,19
 194 1298 194 1298 297 1298 c 0,20,21
 392 1298 392 1298 477.5 1212 c 128,-1,22
 563 1126 563 1126 563 1027 c 0,23,24
 563 946 563 946 512 901 c 128,-1,25
 461 856 461 856 384 856 c 0,26,27
 322 856 322 856 272 874 c 1,28,29
 299 851 299 851 392 796 c 1,30,31
 468 818 468 818 564 824 c 1,32,-1
 666 686 l 1,33,34
 503 679 503 679 406 627 c 128,-1,35
 309 575 309 575 309 484 c 0,36,37
 309 425 309 425 350.5 391.5 c 128,-1,38
 392 358 392 358 476 358 c 0,39,40
 571 358 571 358 663.5 410.5 c 128,-1,41
 756 463 756 463 823 546 c 1,42,-1
 823 1142 l 1,43,-1
 743 1142 l 1,44,-1
 666 1254 l 1,45,-1
 666 1274 l 1,46,-1
 1126 1274 l 1,47,-1
 1203 1162 l 1,48,-1
 1203 1142 l 1,0,-1
211 1010 m 0,49,50
 211 958 211 958 230 923 c 1,51,52
 247 918 247 918 267 918 c 0,53,54
 350 918 350 918 404 962.5 c 128,-1,55
 458 1007 458 1007 458 1086 c 0,56,57
 458 1181 458 1181 369 1181 c 0,58,59
 303 1181 303 1181 257 1131 c 128,-1,60
 211 1081 211 1081 211 1010 c 0,49,50
EndSplineSet
EndChar

StartChar: dvNA
Encoding: 328 2344 72
Width: 1028
Flags: W
LayerCount: 2
Fore
SplineSet
1095 1142 m 1,0,-1
 858 1142 l 1,1,-1
 858 -10 l 1,2,-1
 839 -10 l 1,3,-1
 715 83 l 1,4,-1
 715 597 l 1,5,6
 535 606 535 606 425 606 c 2,7,-1
 355 605 l 1,8,9
 365 551 365 551 365 485 c 0,10,11
 365 442 365 442 343.5 414 c 128,-1,12
 322 386 322 386 276 386 c 0,13,14
 192 386 192 386 118 463 c 128,-1,15
 44 540 44 540 44 624 c 0,16,17
 44 683 44 683 85.5 719.5 c 128,-1,18
 127 756 127 756 213 756 c 0,19,20
 352 756 352 756 501.5 741 c 128,-1,21
 651 726 651 726 715 714 c 1,22,-1
 715 1142 l 1,23,-1
 -10 1142 l 1,24,-1
 -87 1254 l 1,25,-1
 -87 1274 l 1,26,-1
 1018 1274 l 1,27,-1
 1095 1162 l 1,28,-1
 1095 1142 l 1,0,-1
EndSplineSet
EndChar

StartChar: dvPA
Encoding: 329 2346 73
Width: 1057
Flags: W
LayerCount: 2
Fore
SplineSet
1124 1142 m 1,0,-1
 887 1142 l 1,1,-1
 887 -10 l 1,2,-1
 868 -10 l 1,3,-1
 744 83 l 1,4,-1
 744 408 l 1,5,6
 703 374 703 374 647.5 351 c 128,-1,7
 592 328 592 328 535 328 c 0,8,9
 467 328 467 328 403 358 c 128,-1,10
 339 388 339 388 272 454.5 c 128,-1,11
 205 521 205 521 182.5 583.5 c 128,-1,12
 160 646 160 646 160 793 c 2,13,-1
 160 1142 l 1,14,-1
 -10 1142 l 1,15,-1
 -87 1254 l 1,16,-1
 -87 1274 l 1,17,-1
 1047 1274 l 1,18,-1
 1124 1162 l 1,19,-1
 1124 1142 l 1,0,-1
744 1142 m 1,20,-1
 307 1142 l 1,21,-1
 307 644 l 2,22,23
 307 541 307 541 349.5 502 c 128,-1,24
 392 463 392 463 459 463 c 0,25,26
 530 463 530 463 606.5 502 c 128,-1,27
 683 541 683 541 744 610 c 1,28,-1
 744 1142 l 1,20,-1
EndSplineSet
EndChar

StartChar: dvPHA
Encoding: 330 2347 74
Width: 1463
Flags: W
AnchorPoint: "+BBEENQQ3BEsEPARPBD0EPQQ+BDUA--1" 857 0 basechar 0
AnchorPoint: "+BBEENQQ3BEsEPARPBD0EPQQ+BDUA--0" 857 1274 basechar 0
LayerCount: 2
Fore
SplineSet
857 1142 m 1,0,-1
 857 742 l 1,1,2
 964 831 964 831 1078 831 c 0,3,4
 1206 831 1206 831 1298.5 735.5 c 128,-1,5
 1391 640 1391 640 1391 486 c 0,6,7
 1391 406 1391 406 1351 316.5 c 128,-1,8
 1311 227 1311 227 1252 159 c 1,9,-1
 1116 257 l 1,10,11
 1182 339 1182 339 1225.5 418 c 128,-1,12
 1269 497 1269 497 1269 579 c 0,13,14
 1269 637 1269 637 1238 672 c 128,-1,15
 1207 707 1207 707 1155 707 c 0,16,17
 1084 707 1084 707 1008.5 655 c 128,-1,18
 933 603 933 603 857 524 c 1,19,-1
 857 -10 l 1,20,-1
 838 -10 l 1,21,-1
 714 83 l 1,22,-1
 714 422 l 1,23,24
 625 364 625 364 535 364 c 0,25,26
 467 364 467 364 403 394 c 128,-1,27
 339 424 339 424 272 490.5 c 128,-1,28
 205 557 205 557 182.5 619.5 c 128,-1,29
 160 682 160 682 160 829 c 2,30,-1
 160 1142 l 1,31,-1
 -10 1142 l 1,32,-1
 -87 1254 l 1,33,-1
 -87 1274 l 1,34,-1
 1453 1274 l 1,35,-1
 1530 1162 l 1,36,-1
 1530 1142 l 1,37,-1
 857 1142 l 1,0,-1
714 1142 m 1,38,-1
 307 1142 l 1,39,-1
 307 680 l 2,40,41
 307 577 307 577 349.5 538 c 128,-1,42
 392 499 392 499 459 499 c 0,43,44
 522 499 522 499 589 529.5 c 128,-1,45
 656 560 656 560 714 615 c 1,46,-1
 714 1142 l 1,38,-1
EndSplineSet
EndChar

StartChar: dvBA
Encoding: 331 2348 75
Width: 1024
Flags: W
LayerCount: 2
Fore
SplineSet
1091 1142 m 1,0,-1
 854 1142 l 1,1,-1
 854 -10 l 1,2,-1
 835 -10 l 1,3,-1
 711 83 l 1,4,-1
 711 302 l 1,5,6
 621 225 621 225 501 225 c 0,7,8
 401 225 401 225 332.5 256.5 c 128,-1,9
 264 288 264 288 197 351 c 0,10,11
 72 470 72 470 72 621 c 0,12,13
 72 711 72 711 118.5 779.5 c 128,-1,14
 165 848 165 848 240.5 885 c 128,-1,15
 316 922 316 922 401 922 c 0,16,17
 571 922 571 922 711 812 c 1,18,-1
 711 1142 l 1,19,-1
 -10 1142 l 1,20,-1
 -87 1254 l 1,21,-1
 -87 1274 l 1,22,-1
 1014 1274 l 1,23,-1
 1091 1162 l 1,24,-1
 1091 1142 l 1,0,-1
711 504 m 1,25,-1
 711 719 l 1,26,27
 651 757 651 757 597 774.5 c 128,-1,28
 543 792 543 792 480 792 c 0,29,30
 427 792 427 792 382 778 c 1,31,-1
 632 428 l 1,32,33
 678 464 678 464 711 504 c 1,25,-1
547 377 m 1,34,-1
 295 733 l 1,35,36
 250 698 250 698 225.5 649.5 c 128,-1,37
 201 601 201 601 201 551 c 0,38,39
 201 461 201 461 263.5 406 c 128,-1,40
 326 351 326 351 426 351 c 0,41,42
 487 351 487 351 547 377 c 1,34,-1
EndSplineSet
EndChar

StartChar: dvBHA
Encoding: 332 2349 76
Width: 1321
Flags: W
LayerCount: 2
Fore
SplineSet
1388 1142 m 1,0,-1
 1151 1142 l 1,1,-1
 1151 -10 l 1,2,-1
 1132 -10 l 1,3,-1
 1007 83 l 1,4,-1
 1007 510 l 1,5,6
 818 518 818 518 653 518 c 2,7,-1
 615 518 l 1,8,-1
 615 425 l 2,9,10
 615 335 615 335 533 335 c 0,11,12
 459 335 459 335 392 408.5 c 128,-1,13
 325 482 325 482 325 565 c 0,14,15
 325 622 325 622 364 643 c 128,-1,16
 403 664 403 664 472 667 c 1,17,-1
 472 756 l 1,18,19
 371 764 371 764 281.5 807.5 c 128,-1,20
 192 851 192 851 137 924 c 128,-1,21
 82 997 82 997 82 1087 c 0,22,23
 82 1176 82 1176 144.5 1235 c 128,-1,24
 207 1294 207 1294 305 1294 c 0,25,26
 393 1294 393 1294 464 1247 c 128,-1,27
 535 1200 535 1200 575 1122 c 128,-1,28
 615 1044 615 1044 615 956 c 2,29,-1
 615 664 l 1,30,31
 809 656 809 656 1007 628 c 1,32,-1
 1007 1142 l 1,33,-1
 834 1142 l 1,34,-1
 757 1254 l 1,35,-1
 757 1274 l 1,36,-1
 1311 1274 l 1,37,-1
 1388 1162 l 1,38,-1
 1388 1142 l 1,0,-1
472 837 m 1,39,-1
 472 1070 l 2,40,41
 472 1172 472 1172 381 1172 c 0,42,43
 321 1172 321 1172 282 1138 c 128,-1,44
 243 1104 243 1104 243 1047 c 0,45,46
 243 970 243 970 304.5 914 c 128,-1,47
 366 858 366 858 472 837 c 1,39,-1
EndSplineSet
EndChar

StartChar: dvMA
Encoding: 333 2350 77
Width: 1120
Flags: W
LayerCount: 2
Fore
SplineSet
1187 1142 m 1,0,-1
 950 1142 l 1,1,-1
 950 -10 l 1,2,-1
 931 -10 l 1,3,-1
 806 83 l 1,4,-1
 806 509 l 1,5,6
 563 518 563 518 420 518 c 2,7,-1
 382 518 l 1,8,-1
 382 425 l 2,9,10
 382 335 382 335 300 335 c 0,11,12
 226 335 226 335 159 408.5 c 128,-1,13
 92 482 92 482 92 565 c 0,14,15
 92 622 92 622 131 643 c 128,-1,16
 170 664 170 664 238 667 c 1,17,-1
 238 1142 l 1,18,-1
 -10 1142 l 1,19,-1
 -87 1254 l 1,20,-1
 -87 1274 l 1,21,-1
 1110 1274 l 1,22,-1
 1187 1162 l 1,23,-1
 1187 1142 l 1,0,-1
806 1142 m 1,24,-1
 382 1142 l 1,25,-1
 382 664 l 1,26,27
 512 659 512 659 631 645.5 c 128,-1,28
 750 632 750 632 806 622 c 1,29,-1
 806 1142 l 1,24,-1
EndSplineSet
EndChar

StartChar: dvYA
Encoding: 334 2351 78
Width: 1123
Flags: W
LayerCount: 2
Fore
SplineSet
1190 1142 m 1,0,-1
 953 1142 l 1,1,-1
 953 -10 l 1,2,-1
 934 -10 l 1,3,-1
 809 83 l 1,4,-1
 809 392 l 1,5,6
 758 350 758 350 690 325.5 c 128,-1,7
 622 301 622 301 553 301 c 0,8,9
 378 301 378 301 256 412.5 c 128,-1,10
 134 524 134 524 56 706 c 1,11,12
 190 750 190 750 263 820.5 c 128,-1,13
 336 891 336 891 336 972 c 0,14,15
 336 1058 336 1058 265 1142 c 1,16,-1
 -10 1142 l 1,17,-1
 -87 1254 l 1,18,-1
 -87 1274 l 1,19,-1
 1113 1274 l 1,20,-1
 1190 1162 l 1,21,-1
 1190 1142 l 1,0,-1
809 1142 m 1,22,-1
 372 1142 l 1,23,24
 480 1009 480 1009 480 902 c 0,25,26
 480 841 480 841 457 795.5 c 128,-1,27
 434 750 434 750 391 711.5 c 128,-1,28
 348 673 348 673 270 618 c 0,29,30
 245 600 245 600 245 574 c 0,31,32
 245 522 245 522 316.5 480 c 128,-1,33
 388 438 388 438 482 438 c 0,34,35
 574 438 574 438 659.5 480 c 128,-1,36
 745 522 745 522 809 597 c 1,37,-1
 809 1142 l 1,22,-1
EndSplineSet
EndChar

StartChar: dvRA
Encoding: 335 2352 79
Width: 744
Flags: W
AnchorPoint: "+BBEENQQ3BEsEPARPBD0EPQQ+BDUA--0" 542 1274 basechar 0
LayerCount: 2
Fore
SplineSet
811 1142 m 1,0,-1
 543 1142 l 1,1,2
 607 1008 607 1008 607 874 c 0,3,4
 607 749 607 749 517.5 639 c 128,-1,5
 428 529 428 529 271 459 c 1,6,7
 393 279 393 279 679 97 c 1,8,-1
 565 -20 l 1,9,10
 373 143 373 143 229.5 349.5 c 128,-1,11
 86 556 86 556 86 672 c 0,12,13
 86 727 86 727 115 759.5 c 128,-1,14
 144 792 144 792 191 792 c 0,15,16
 236 792 236 792 266 773 c 128,-1,17
 296 754 296 754 336 712 c 1,18,19
 406 744 406 744 443 809 c 128,-1,20
 480 874 480 874 480 948 c 0,21,22
 480 1059 480 1059 434 1142 c 1,23,-1
 -10 1142 l 1,24,-1
 -87 1254 l 1,25,-1
 -87 1274 l 1,26,-1
 734 1274 l 1,27,-1
 811 1162 l 1,28,-1
 811 1142 l 1,0,-1
EndSplineSet
Substitution2: "Single Substitution lookup 48 subtable" dvvLL
Substitution2: "Single Substitution lookup 47 subtable" dvvL
Substitution2: "Single Substitution lookup 46 subtable" dvvRR
Substitution2: "Single Substitution lookup 45 subtable" dvvR
EndChar

StartChar: dvLA
Encoding: 336 2354 80
Width: 1294
Flags: W
LayerCount: 2
Fore
SplineSet
1361 1142 m 1,0,-1
 1144 1142 l 1,1,-1
 1144 -10 l 1,2,-1
 1125 -10 l 1,3,-1
 1001 83 l 1,4,-1
 1001 817 l 1,5,-1
 977 818 l 1,6,7
 857 818 857 818 786 738 c 128,-1,8
 715 658 715 658 715 527 c 1,9,-1
 720 430 l 1,10,-1
 559 475 l 1,11,12
 553 525 553 525 553 571 c 0,13,14
 553 675 553 675 600 756 c 1,15,16
 538 795 538 795 470 795 c 0,17,18
 377 795 377 795 318 735.5 c 128,-1,19
 259 676 259 676 259 579 c 0,20,21
 259 431 259 431 351 302.5 c 128,-1,22
 443 174 443 174 607 55 c 1,23,-1
 546 -14 l 1,24,25
 453 51 453 51 349.5 156.5 c 128,-1,26
 246 262 246 262 171.5 394 c 128,-1,27
 97 526 97 526 97 657 c 0,28,29
 97 785 97 785 176 863.5 c 128,-1,30
 255 942 255 942 380 942 c 0,31,32
 525 942 525 942 650 821 c 1,33,34
 700 872 700 872 768 899.5 c 128,-1,35
 836 927 836 927 911 927 c 0,36,37
 961 927 961 927 1001 920 c 1,38,-1
 1001 1142 l 1,39,-1
 -10 1142 l 1,40,-1
 -87 1254 l 1,41,-1
 -87 1274 l 1,42,-1
 1284 1274 l 1,43,-1
 1361 1162 l 1,44,-1
 1361 1142 l 1,0,-1
EndSplineSet
Substitution2: "'locl' Localized Forms lookup 0 subtable" dvLA.MAR
EndChar

StartChar: dvVA
Encoding: 337 2357 81
Width: 1010
Flags: W
AnchorPoint: "+BBEENQQ3BEsEPARPBD0EPQQ+BDUA--0" 840 1274 basechar 0
LayerCount: 2
Fore
SplineSet
1077 1142 m 1,0,-1
 840 1142 l 1,1,-1
 840 -10 l 1,2,-1
 821 -10 l 1,3,-1
 697 83 l 1,4,-1
 697 335 l 1,5,6
 600 245 600 245 472 245 c 0,7,8
 390 245 390 245 331 270.5 c 128,-1,9
 272 296 272 296 206 355 c 128,-1,10
 140 414 140 414 106 483.5 c 128,-1,11
 72 553 72 553 72 629 c 0,12,13
 72 754 72 754 163 838 c 128,-1,14
 254 922 254 922 387 922 c 0,15,16
 558 922 558 922 697 812 c 1,17,-1
 697 1142 l 1,18,-1
 -10 1142 l 1,19,-1
 -87 1254 l 1,20,-1
 -87 1274 l 1,21,-1
 1000 1274 l 1,22,-1
 1077 1162 l 1,23,-1
 1077 1142 l 1,0,-1
697 547 m 1,24,-1
 697 718 l 1,25,26
 638 756 638 756 585.5 772.5 c 128,-1,27
 533 789 533 789 468 789 c 0,28,29
 387 789 387 789 326.5 754.5 c 128,-1,30
 266 720 266 720 234.5 666.5 c 128,-1,31
 203 613 203 613 203 556 c 0,32,33
 203 477 203 477 256 426.5 c 128,-1,34
 309 376 309 376 397 376 c 0,35,36
 479 376 479 376 556.5 421.5 c 128,-1,37
 634 467 634 467 697 547 c 1,24,-1
EndSplineSet
EndChar

StartChar: dvSHA
Encoding: 338 2358 82
Width: 1274
Flags: W
LayerCount: 2
Fore
SplineSet
768 66 m 1,0,-1
 640 -9 l 1,1,-1
 470 208 l 2,2,3
 378 330 378 330 327 390 c 1,4,5
 287 379 287 379 231 379 c 0,6,7
 164 379 164 379 114 421.5 c 128,-1,8
 64 464 64 464 64 524 c 0,9,10
 64 578 64 578 100.5 608.5 c 128,-1,11
 137 639 137 639 190 639 c 0,12,13
 227 639 227 639 259.5 623 c 128,-1,14
 292 607 292 607 344 564 c 1,15,16
 427 594 427 594 491 696 c 1,17,18
 310 760 310 760 214 856.5 c 128,-1,19
 118 953 118 953 118 1072 c 0,20,21
 118 1171 118 1171 181 1231.5 c 128,-1,22
 244 1292 244 1292 345 1292 c 0,23,24
 487 1292 487 1292 594.5 1169.5 c 128,-1,25
 702 1047 702 1047 702 899 c 0,26,27
 702 581 702 581 418 423 c 1,28,29
 699 132 699 132 768 66 c 1,0,-1
1341 1142 m 1,30,-1
 1104 1142 l 1,31,-1
 1104 -10 l 1,32,-1
 1085 -10 l 1,33,-1
 961 83 l 1,34,-1
 961 1142 l 1,35,-1
 824 1142 l 1,36,-1
 747 1254 l 1,37,-1
 747 1274 l 1,38,-1
 1264 1274 l 1,39,-1
 1341 1162 l 1,40,-1
 1341 1142 l 1,30,-1
527 767 m 1,41,42
 569 867 569 867 569 972 c 0,43,44
 569 1073 569 1073 528.5 1122.5 c 128,-1,45
 488 1172 488 1172 424 1172 c 0,46,47
 354 1172 354 1172 308.5 1126.5 c 128,-1,48
 263 1081 263 1081 263 1012 c 0,49,50
 263 871 263 871 527 767 c 1,41,42
EndSplineSet
Substitution2: "'locl' Localized Forms lookup 0 subtable" dvSHA.MAR
EndChar

StartChar: dvSSA
Encoding: 339 2359 83
Width: 1087
Flags: W
LayerCount: 2
Fore
SplineSet
1154 1142 m 1,0,-1
 917 1142 l 1,1,-1
 917 -10 l 1,2,-1
 898 -10 l 1,3,-1
 774 83 l 1,4,-1
 774 435 l 1,5,6
 731 391 731 391 666 359.5 c 128,-1,7
 601 328 601 328 535 328 c 0,8,9
 467 328 467 328 403 358 c 128,-1,10
 339 388 339 388 272 454.5 c 128,-1,11
 205 521 205 521 182.5 583.5 c 128,-1,12
 160 646 160 646 160 793 c 2,13,-1
 160 1142 l 1,14,-1
 -10 1142 l 1,15,-1
 -87 1254 l 1,16,-1
 -87 1274 l 1,17,-1
 1077 1274 l 1,18,-1
 1154 1162 l 1,19,-1
 1154 1142 l 1,0,-1
774 1142 m 1,20,-1
 307 1142 l 1,21,-1
 774 635 l 1,22,-1
 774 1142 l 1,20,-1
709 568 m 1,23,-1
 424 877 l 1,24,-1
 307 1015 l 1,25,-1
 307 644 l 2,26,27
 307 541 307 541 349.5 502 c 128,-1,28
 392 463 392 463 459 463 c 0,29,30
 588 463 588 463 709 568 c 1,23,-1
EndSplineSet
EndChar

StartChar: dvSA
Encoding: 340 2360 84
Width: 1314
Flags: W
LayerCount: 2
Fore
SplineSet
1381 1142 m 1,0,-1
 1144 1142 l 1,1,-1
 1144 -10 l 1,2,-1
 1125 -10 l 1,3,-1
 1001 83 l 1,4,-1
 1001 539 l 1,5,6
 929 514 929 514 838 514 c 0,7,8
 742 514 742 514 651.5 541.5 c 128,-1,9
 561 569 561 569 494 612 c 1,10,11
 409 521 409 521 271 459 c 1,12,13
 393 279 393 279 679 97 c 1,14,-1
 565 -20 l 1,15,16
 373 143 373 143 229.5 349.5 c 128,-1,17
 86 556 86 556 86 672 c 0,18,19
 86 727 86 727 115 759.5 c 128,-1,20
 144 792 144 792 191 792 c 0,21,22
 236 792 236 792 266 773 c 128,-1,23
 296 754 296 754 336 712 c 1,24,25
 406 744 406 744 443 809 c 128,-1,26
 480 874 480 874 480 948 c 0,27,28
 480 1059 480 1059 434 1142 c 1,29,-1
 -10 1142 l 1,30,-1
 -87 1254 l 1,31,-1
 -87 1274 l 1,32,-1
 1304 1274 l 1,33,-1
 1381 1162 l 1,34,-1
 1381 1142 l 1,0,-1
1001 1142 m 1,35,-1
 543 1142 l 1,36,37
 607 1008 607 1008 607 874 c 0,38,39
 607 777 607 777 552 688 c 1,40,41
 650 640 650 640 758 640 c 0,42,43
 892 640 892 640 1001 703 c 1,44,-1
 1001 1142 l 1,35,-1
EndSplineSet
EndChar

StartChar: dvHA
Encoding: 341 2361 85
Width: 943
Flags: W
AnchorPoint: "+BBEENQQ3BEsEPARPBD0EPQQ+BDUA--0" 785 1274 basechar 0
LayerCount: 2
Fore
SplineSet
252 682 m 0,0,1
 252 623 252 623 302 579 c 1,2,3
 397 633 397 633 509 633 c 0,4,5
 676 633 676 633 783.5 526.5 c 128,-1,6
 891 420 891 420 891 305 c 0,7,8
 891 237 891 237 863.5 184.5 c 128,-1,9
 836 132 836 132 775 71 c 1,10,-1
 639 167 l 1,11,12
 758 265 758 265 758 365 c 0,13,14
 758 435 758 435 708 470 c 128,-1,15
 658 505 658 505 584 505 c 0,16,17
 448 505 448 505 363 428 c 128,-1,18
 278 351 278 351 278 229 c 0,19,20
 278 118 278 118 363 18.5 c 128,-1,21
 448 -81 448 -81 644 -147 c 1,22,-1
 595 -222 l 1,23,24
 377 -146 377 -146 254.5 -11.5 c 128,-1,25
 132 123 132 123 132 294 c 0,26,27
 132 428 132 428 231 525 c 1,28,29
 115 622 115 622 115 734 c 0,30,31
 115 848 115 848 201 903.5 c 128,-1,32
 287 959 287 959 426 959 c 0,33,34
 525 959 525 959 640 947 c 1,35,-1
 640 1142 l 1,36,-1
 -10 1142 l 1,37,-1
 -87 1254 l 1,38,-1
 -87 1274 l 1,39,-1
 933 1274 l 1,40,-1
 1010 1162 l 1,41,-1
 1010 1142 l 1,42,-1
 785 1142 l 1,43,-1
 785 837 l 1,44,45
 683 847 683 847 556 847 c 0,46,47
 393 847 393 847 322.5 802 c 128,-1,48
 252 757 252 757 252 682 c 0,0,1
EndSplineSet
EndChar

StartChar: dvLLA
Encoding: 342 2355 86
Width: 1396
Flags: W
AnchorPoint: "+BBEENQQ3BEsEPARPBD0EPQQ+BDUA--1" 1074 53 basechar 0
AnchorPoint: "+BBEENQQ3BEsEPARPBD0EPQQ+BDUA--0" 1074 1274 basechar 0
LayerCount: 2
Fore
SplineSet
1074 1142 m 1,0,-1
 1074 866 l 1,1,2
 1138 840 1138 840 1198.5 781 c 128,-1,3
 1259 722 1259 722 1291.5 651 c 128,-1,4
 1324 580 1324 580 1324 486 c 0,5,6
 1324 338 1324 338 1230 235.5 c 128,-1,7
 1136 133 1136 133 999 133 c 0,8,9
 913 133 913 133 834.5 175 c 128,-1,10
 756 217 756 217 694 302 c 1,11,12
 648 222 648 222 587.5 177.5 c 128,-1,13
 527 133 527 133 441 133 c 0,14,15
 342 133 342 133 257 191 c 128,-1,16
 172 249 172 249 122.5 334.5 c 128,-1,17
 73 420 73 420 73 535 c 0,18,19
 73 683 73 683 166.5 785.5 c 128,-1,20
 260 888 260 888 397 888 c 0,21,22
 483 888 483 888 561.5 845.5 c 128,-1,23
 640 803 640 803 702 719 c 1,24,25
 745 793 745 793 799.5 837 c 128,-1,26
 854 881 854 881 931 887 c 1,27,-1
 931 1142 l 1,28,-1
 -10 1142 l 1,29,-1
 -87 1254 l 1,30,-1
 -87 1274 l 1,31,-1
 1386 1274 l 1,32,-1
 1463 1162 l 1,33,-1
 1463 1142 l 1,34,-1
 1074 1142 l 1,0,-1
1024 778 m 0,35,36
 962 778 962 778 917.5 739.5 c 128,-1,37
 873 701 873 701 844 643 c 128,-1,38
 815 585 815 585 776 487 c 2,39,-1
 729 373 l 1,40,41
 779 313 779 313 830.5 285.5 c 128,-1,42
 882 258 882 258 943 258 c 0,43,44
 1043 258 1043 258 1111 350 c 128,-1,45
 1179 442 1179 442 1179 574 c 0,46,47
 1179 678 1179 678 1135.5 728 c 128,-1,48
 1092 778 1092 778 1024 778 c 0,35,36
667 648 m 1,49,50
 617 708 617 708 565.5 735.5 c 128,-1,51
 514 763 514 763 453 763 c 0,52,53
 353 763 353 763 285 671 c 128,-1,54
 217 579 217 579 217 447 c 0,55,56
 217 343 217 343 260.5 293 c 128,-1,57
 304 243 304 243 372 243 c 0,58,59
 434 243 434 243 478.5 281.5 c 128,-1,60
 523 320 523 320 552 378 c 128,-1,61
 581 436 581 436 620 534 c 2,62,-1
 667 648 l 1,49,50
EndSplineSet
EndChar

StartChar: dvK_SSA
Encoding: 343 -1 87
Width: 1399
Flags: W
LayerCount: 2
Fore
SplineSet
1466 1142 m 1,0,-1
 1229 1142 l 1,1,-1
 1229 -10 l 1,2,-1
 1210 -10 l 1,3,-1
 1086 83 l 1,4,-1
 1086 590 l 1,5,6
 999 563 999 563 896 563 c 0,7,8
 703 563 703 563 535 647 c 1,9,10
 451 592 451 592 402 552.5 c 128,-1,11
 353 513 353 513 318.5 461 c 128,-1,12
 284 409 284 409 284 346 c 0,13,14
 284 270 284 270 331 222.5 c 128,-1,15
 378 175 378 175 454 175 c 0,16,17
 527 175 527 175 569 199 c 1,18,19
 555 235 555 235 555 279 c 0,20,21
 555 325 555 325 586 357 c 128,-1,22
 617 389 617 389 665 389 c 0,23,24
 733 389 733 389 785.5 336.5 c 128,-1,25
 838 284 838 284 838 214 c 0,26,27
 838 173 838 173 810.5 134 c 128,-1,28
 783 95 783 95 721 71 c 1,29,30
 798 -51 798 -51 967 -203 c 1,31,-1
 805 -270 l 1,32,33
 699 -113 699 -113 633 50 c 1,34,35
 588 41 588 41 548 41 c 0,36,37
 396 41 396 41 270 166 c 0,38,39
 195 239 195 239 163 296 c 128,-1,40
 131 353 131 353 131 416 c 0,41,42
 131 489 131 489 165.5 546.5 c 128,-1,43
 200 604 200 604 252 646.5 c 128,-1,44
 304 689 304 689 384 741 c 1,45,46
 193 885 193 885 193 1045 c 0,47,48
 193 1148 193 1148 257.5 1211 c 128,-1,49
 322 1274 322 1274 427 1274 c 0,50,51
 514 1274 514 1274 594 1213 c 128,-1,52
 674 1152 674 1152 721.5 1075 c 128,-1,53
 769 998 769 998 769 917 c 0,54,55
 769 859 769 859 733.5 810.5 c 128,-1,56
 698 762 698 762 633 713 c 1,57,58
 712 696 712 696 791 696 c 0,59,60
 957 696 957 696 1086 757 c 1,61,-1
 1086 1142 l 1,62,-1
 936 1142 l 1,63,-1
 859 1254 l 1,64,-1
 859 1274 l 1,65,-1
 1389 1274 l 1,66,-1
 1466 1162 l 1,67,-1
 1466 1142 l 1,0,-1
459 790 m 1,68,69
 538 842 538 842 580 892 c 128,-1,70
 622 942 622 942 622 1005 c 0,71,72
 622 1060 622 1060 589 1098 c 128,-1,73
 556 1136 556 1136 499 1136 c 0,74,75
 438 1136 438 1136 398 1095 c 128,-1,76
 358 1054 358 1054 358 991 c 0,77,78
 358 868 358 868 459 790 c 1,68,69
EndSplineSet
Ligature2: "'akhn' Akhand lookup 3 subtable" dvKA dvVirama dvSSA
EndChar

StartChar: dvJ_NYA
Encoding: 344 -1 88
Width: 1182
Flags: W
LayerCount: 2
Fore
SplineSet
1249 1142 m 1,0,-1
 1012 1142 l 1,1,-1
 1012 -10 l 1,2,-1
 993 -10 l 1,3,-1
 869 83 l 1,4,-1
 869 730 l 1,5,-1
 471 730 l 1,6,7
 612 607 612 607 612 460 c 0,8,9
 612 356 612 356 537 286.5 c 128,-1,10
 462 217 462 217 340 206 c 1,11,12
 451 64 451 64 599 -13 c 1,13,-1
 491 -131 l 1,14,15
 347 -3 347 -3 244 213 c 1,16,17
 165 231 165 231 108.5 281.5 c 128,-1,18
 52 332 52 332 52 394 c 0,19,20
 52 441 52 441 83 467 c 128,-1,21
 114 493 114 493 153 493 c 0,22,23
 241 493 241 493 295 366 c 1,24,25
 381 366 381 366 427 411.5 c 128,-1,26
 473 457 473 457 473 527 c 0,27,28
 473 589 473 589 440.5 642 c 128,-1,29
 408 695 408 695 352 730 c 1,30,-1
 194 730 l 1,31,-1
 117 842 l 1,32,-1
 117 862 l 1,33,-1
 869 862 l 1,34,-1
 869 1142 l 1,35,-1
 -10 1142 l 1,36,-1
 -87 1254 l 1,37,-1
 -87 1274 l 1,38,-1
 1172 1274 l 1,39,-1
 1249 1162 l 1,40,-1
 1249 1142 l 1,0,-1
EndSplineSet
Ligature2: "'akhn' Akhand lookup 3 subtable" dvJA dvVirama dvNYA
EndChar

StartChar: dvGAbar
Encoding: 345 2427 89
Width: 1053
Flags: W
LayerCount: 2
Fore
SplineSet
883 1142 m 1,0,-1
 883 104 l 1,1,-1
 955 0 l 1,2,-1
 955 -20 l 1,3,-1
 130 -20 l 1,4,-1
 58 84 l 1,5,-1
 58 104 l 1,6,-1
 740 104 l 1,7,-1
 740 1142 l 1,8,-1
 361 1142 l 1,9,10
 411 842 411 842 411 574 c 0,11,12
 411 388 411 388 305 388 c 0,13,14
 224 388 224 388 144 477 c 128,-1,15
 64 566 64 566 64 654 c 0,16,17
 64 746 64 746 162 746 c 0,18,19
 206 746 206 746 249 741 c 1,20,21
 257 805 257 805 257 874 c 0,22,23
 257 1003 257 1003 244 1142 c 1,24,-1
 -10 1142 l 1,25,-1
 -87 1254 l 1,26,-1
 -87 1274 l 1,27,-1
 1043 1274 l 1,28,-1
 1120 1162 l 1,29,-1
 1120 1142 l 1,30,-1
 883 1142 l 1,0,-1
EndSplineSet
EndChar

StartChar: dvJAbar
Encoding: 346 2428 90
Width: 1319
Flags: W
LayerCount: 2
Fore
SplineSet
1149 1142 m 1,0,-1
 1149 104 l 1,1,-1
 1221 0 l 1,2,-1
 1221 -20 l 1,3,-1
 111 -20 l 1,4,-1
 39 84 l 1,5,-1
 39 104 l 1,6,-1
 1006 104 l 1,7,-1
 1006 769 l 1,8,-1
 732 769 l 2,9,10
 651 769 651 769 628 773 c 1,11,12
 726 663 726 663 726 525 c 0,13,14
 726 423 726 423 662 362.5 c 128,-1,15
 598 302 598 302 491 302 c 0,16,17
 348 302 348 302 235 433.5 c 128,-1,18
 122 565 122 565 47 810 c 1,19,-1
 134 838 l 1,20,21
 203 635 203 635 282 543.5 c 128,-1,22
 361 452 361 452 444 452 c 0,23,24
 504 452 504 452 541 488.5 c 128,-1,25
 578 525 578 525 578 589 c 0,26,27
 578 656 578 656 545 721.5 c 128,-1,28
 512 787 512 787 461 828 c 1,29,-1
 496 900 l 1,30,-1
 1006 900 l 1,31,-1
 1006 1142 l 1,32,-1
 -10 1142 l 1,33,-1
 -87 1254 l 1,34,-1
 -87 1274 l 1,35,-1
 1309 1274 l 1,36,-1
 1386 1162 l 1,37,-1
 1386 1142 l 1,38,-1
 1149 1142 l 1,0,-1
EndSplineSet
EndChar

StartChar: dvDDAbar
Encoding: 347 2430 91
Width: 1043
Flags: W
LayerCount: 2
Fore
SplineSet
1110 1162 m 1,0,-1
 1110 1142 l 1,1,-1
 818 1142 l 1,2,-1
 818 838 l 1,3,4
 715 847 715 847 661 847 c 0,5,6
 488 847 488 847 408 801.5 c 128,-1,7
 328 756 328 756 328 680 c 0,8,9
 328 651 328 651 346.5 624.5 c 128,-1,10
 365 598 365 598 398 580 c 1,11,12
 463 620 463 620 530 639.5 c 128,-1,13
 597 659 597 659 649 659 c 0,14,15
 734 659 734 659 794 624 c 128,-1,16
 854 589 854 589 907.5 515 c 128,-1,17
 961 441 961 441 961 362 c 0,18,19
 961 233 961 233 863.5 153 c 128,-1,20
 766 73 766 73 608 73 c 0,21,22
 445 73 445 73 297.5 164.5 c 128,-1,23
 150 256 150 256 28 433 c 1,24,-1
 102 486 l 1,25,26
 194 353 194 353 306.5 281.5 c 128,-1,27
 419 210 419 210 534 210 c 0,28,29
 672 210 672 210 760.5 266 c 128,-1,30
 849 322 849 322 849 408 c 0,31,32
 849 463 849 463 810 491.5 c 128,-1,33
 771 520 771 520 713 520 c 0,34,35
 596 520 596 520 447 425 c 1,36,37
 338 487 338 487 271.5 575.5 c 128,-1,38
 205 664 205 664 205 748 c 0,39,40
 205 848 205 848 280.5 903.5 c 128,-1,41
 356 959 356 959 496 959 c 0,42,43
 563 959 563 959 673 948 c 1,44,-1
 673 1142 l 1,45,-1
 -10 1142 l 1,46,-1
 -87 1254 l 1,47,-1
 -87 1274 l 1,48,-1
 1033 1274 l 1,49,-1
 1110 1162 l 1,0,-1
938 -75 m 1,50,-1
 1010 -179 l 1,51,-1
 1010 -199 l 1,52,-1
 144 -199 l 1,53,-1
 72 -95 l 1,54,-1
 72 -75 l 1,55,-1
 938 -75 l 1,50,-1
EndSplineSet
EndChar

StartChar: dvBAbar
Encoding: 348 2431 92
Width: 1024
Flags: W
LayerCount: 2
Fore
SplineSet
854 1142 m 1,0,-1
 854 104 l 1,1,-1
 926 0 l 1,2,-1
 926 -20 l 1,3,-1
 142 -20 l 1,4,-1
 70 84 l 1,5,-1
 70 104 l 1,6,-1
 721 104 l 1,7,-1
 721 380 l 1,8,9
 625 295 625 295 501 295 c 0,10,11
 401 295 401 295 332.5 326.5 c 128,-1,12
 264 358 264 358 197 421 c 0,13,14
 72 540 72 540 72 691 c 0,15,16
 72 781 72 781 118.5 849.5 c 128,-1,17
 165 918 165 918 240.5 955 c 128,-1,18
 316 992 316 992 401 992 c 0,19,20
 571 992 571 992 711 882 c 1,21,-1
 711 1142 l 1,22,-1
 -10 1142 l 1,23,-1
 -87 1254 l 1,24,-1
 -87 1274 l 1,25,-1
 1014 1274 l 1,26,-1
 1091 1162 l 1,27,-1
 1091 1142 l 1,28,-1
 854 1142 l 1,0,-1
711 574 m 1,29,-1
 711 789 l 1,30,31
 651 827 651 827 597 844.5 c 128,-1,32
 543 862 543 862 480 862 c 0,33,34
 427 862 427 862 382 848 c 1,35,-1
 632 498 l 1,36,37
 678 534 678 534 711 574 c 1,29,-1
547 447 m 1,38,-1
 295 803 l 1,39,40
 250 768 250 768 225.5 719.5 c 128,-1,41
 201 671 201 671 201 621 c 0,42,43
 201 531 201 531 263.5 476 c 128,-1,44
 326 421 326 421 426 421 c 0,45,46
 487 421 487 421 547 447 c 1,38,-1
EndSplineSet
EndChar

StartChar: dvZHA
Encoding: 349 2425 93
Width: 1319
Flags: W
LayerCount: 2
Fore
SplineSet
1386 1142 m 1,0,-1
 1149 1142 l 1,1,-1
 1149 -10 l 1,2,-1
 1130 -10 l 1,3,-1
 1006 83 l 1,4,-1
 1006 769 l 1,5,-1
 732 769 l 2,6,7
 651 769 651 769 628 773 c 1,8,9
 794 605 794 605 794 426 c 0,10,11
 794 310 794 310 731.5 245 c 128,-1,12
 669 180 669 180 560 180 c 0,13,14
 394 180 394 180 263.5 343.5 c 128,-1,15
 133 507 133 507 47 810 c 1,16,-1
 134 838 l 1,17,18
 217 578 217 578 311.5 454 c 128,-1,19
 406 330 406 330 503 330 c 0,20,21
 647 330 647 330 647 478 c 0,22,23
 647 576 647 576 594.5 671 c 128,-1,24
 542 766 542 766 461 828 c 1,25,-1
 496 900 l 1,26,-1
 1006 900 l 1,27,-1
 1006 1142 l 1,28,-1
 -10 1142 l 1,29,-1
 -87 1254 l 1,30,-1
 -87 1274 l 1,31,-1
 1309 1274 l 1,32,-1
 1386 1162 l 1,33,-1
 1386 1142 l 1,0,-1
383 -49 m 0,34,35
 383 -150 383 -150 285 -150 c 0,36,37
 186 -150 186 -150 186 -49 c 0,38,39
 186 53 186 53 285 53 c 0,40,41
 383 53 383 53 383 -49 c 0,34,35
820 -49 m 0,42,43
 820 -150 820 -150 722 -150 c 0,44,45
 623 -150 623 -150 623 -49 c 0,46,47
 623 53 623 53 722 53 c 0,48,49
 820 53 820 53 820 -49 c 0,42,43
601 -298 m 0,50,51
 601 -399 601 -399 503 -399 c 0,52,53
 404 -399 404 -399 404 -298 c 0,54,55
 404 -196 404 -196 503 -196 c 0,56,57
 601 -196 601 -196 601 -298 c 0,50,51
EndSplineSet
EndChar

StartChar: dvYAheavy
Encoding: 350 2426 94
Width: 1123
Flags: W
LayerCount: 2
Fore
SplineSet
1190 1142 m 1,0,-1
 953 1142 l 1,1,-1
 953 -10 l 1,2,-1
 934 -10 l 1,3,-1
 809 83 l 1,4,-1
 809 392 l 1,5,6
 758 350 758 350 690 325.5 c 128,-1,7
 622 301 622 301 553 301 c 0,8,9
 378 301 378 301 256 412.5 c 128,-1,10
 134 524 134 524 56 706 c 1,11,12
 190 750 190 750 263 820.5 c 128,-1,13
 336 891 336 891 336 972 c 0,14,15
 336 1058 336 1058 265 1142 c 1,16,-1
 -10 1142 l 1,17,-1
 -87 1254 l 1,18,-1
 -87 1274 l 1,19,-1
 1113 1274 l 1,20,-1
 1190 1162 l 1,21,-1
 1190 1142 l 1,0,-1
809 1142 m 1,22,-1
 373 1142 l 1,23,-1
 809 600 l 1,24,-1
 809 1142 l 1,22,-1
741 532 m 1,25,-1
 477 863 l 1,26,27
 468 803 468 803 429.5 753.5 c 128,-1,28
 391 704 391 704 270 618 c 0,29,30
 245 600 245 600 245 574 c 0,31,32
 245 522 245 522 316.5 480 c 128,-1,33
 388 438 388 438 482 438 c 0,34,35
 624 438 624 438 741 532 c 1,25,-1
EndSplineSet
EndChar

StartChar: dvDDAmarwari
Encoding: 351 2424 95
Width: 1120
Flags: W
LayerCount: 2
Fore
SplineSet
382 1142 m 1,0,-1
 382 795 l 1,1,2
 434 801 434 801 484 801 c 0,3,4
 600 801 600 801 708.5 750.5 c 128,-1,5
 817 700 817 700 885.5 608.5 c 128,-1,6
 954 517 954 517 954 423 c 0,7,8
 954 308 954 308 853 192 c 128,-1,9
 752 76 752 76 577 -20 c 1,10,-1
 450 94 l 1,11,12
 623 180 623 180 721 283.5 c 128,-1,13
 819 387 819 387 819 493 c 0,14,15
 819 569 819 569 752.5 618 c 128,-1,16
 686 667 686 667 585 667 c 0,17,18
 480 667 480 667 382 619 c 1,19,-1
 382 505 l 2,20,21
 382 415 382 415 300 415 c 0,22,23
 226 415 226 415 164 482 c 128,-1,24
 102 549 102 549 102 629 c 0,25,26
 102 714 102 714 238 763 c 1,27,-1
 238 1142 l 1,28,-1
 -10 1142 l 1,29,-1
 -87 1254 l 1,30,-1
 -87 1274 l 1,31,-1
 1110 1274 l 1,32,-1
 1187 1162 l 1,33,-1
 1187 1142 l 1,34,-1
 382 1142 l 1,0,-1
EndSplineSet
EndChar

StartChar: dvAnusvara
Encoding: 352 2306 96
Width: 0
GlyphClass: 4
Flags: W
AnchorPoint: "+BBEENQQ3BEsEPARPBD0EPQQ+BDUA--0" -170 1274 mark 0
LayerCount: 2
Fore
SplineSet
-342 1581 m 0,0,1
 -342 1690 -342 1690 -241 1690 c 0,2,3
 -141 1690 -141 1690 -141 1581 c 0,4,5
 -141 1473 -141 1473 -241 1473 c 0,6,7
 -342 1473 -342 1473 -342 1581 c 0,0,1
EndSplineSet
Substitution2: "Single Substitution lookup 53 subtable" NULL
EndChar

StartChar: dvCandrabindu
Encoding: 353 2305 97
Width: 0
GlyphClass: 4
Flags: W
AnchorPoint: "+BBEENQQ3BEsEPARPBD0EPQQ+BDUA--0" -170 1274 mark 0
LayerCount: 2
Fore
SplineSet
-351 1733 m 0,0,1
 -351 1828 -351 1828 -263 1828 c 0,2,3
 -176 1828 -176 1828 -176 1733 c 0,4,5
 -176 1639 -176 1639 -263 1639 c 0,6,7
 -351 1639 -351 1639 -351 1733 c 0,0,1
-637 1754 m 1,8,-1
 -565 1779 l 1,9,10
 -478 1527 -478 1527 -255 1527 c 0,11,12
 -37 1527 -37 1527 11 1800 c 1,13,-1
 145 1764 l 1,14,15
 115 1593 115 1593 13.5 1497 c 128,-1,16
 -88 1401 -88 1401 -242 1401 c 0,17,18
 -324 1401 -324 1401 -405.5 1442.5 c 128,-1,19
 -487 1484 -487 1484 -549 1564 c 128,-1,20
 -611 1644 -611 1644 -637 1754 c 1,8,-1
EndSplineSet
Substitution2: "Single Substitution lookup 48 subtable" dvCandrabindu.small
EndChar

StartChar: dvVisarga
Encoding: 354 2307 98
Width: 502
Flags: W
LayerCount: 2
Fore
SplineSet
138 890 m 0,0,1
 138 1015 138 1015 254 1015 c 0,2,3
 369 1015 369 1015 369 890 c 0,4,5
 369 766 369 766 254 766 c 0,6,7
 138 766 138 766 138 890 c 0,0,1
138 235 m 0,8,9
 138 360 138 360 254 360 c 0,10,11
 369 360 369 360 369 235 c 0,12,13
 369 111 369 111 254 111 c 0,14,15
 138 111 138 111 138 235 c 0,8,9
EndSplineSet
EndChar

StartChar: dvVirama
Encoding: 355 2381 99
Width: 0
GlyphClass: 4
Flags: W
AnchorPoint: "+BBEENQQ3BEsEPARPBD0EPQQ+BDUA--1" -170 0 mark 0
LayerCount: 2
Fore
SplineSet
-209 -233 m 0,0,1
 -282 -233 -282 -233 -333 -249 c 1,2,-1
 -380 -105 l 1,3,4
 -305 -90 -305 -90 -259 -90 c 0,5,6
 -172 -90 -172 -90 -109 -120 c 128,-1,7
 -46 -150 -46 -150 30 -231 c 128,-1,8
 106 -312 106 -312 243 -489 c 1,9,-1
 181 -521 l 1,10,11
 74 -397 74 -397 5.5 -335 c 128,-1,12
 -63 -273 -63 -273 -110 -253 c 128,-1,13
 -157 -233 -157 -233 -209 -233 c 0,0,1
EndSplineSet
Substitution2: "Single Substitution lookup 20 subtable" dvRAc2
EndChar

StartChar: dvNukta
Encoding: 356 2364 100
Width: 0
GlyphClass: 4
Flags: W
AnchorPoint: "+BBEENQQ3BEsEPARPBD0EPQQ+BDUA--1" -522 -268 mark 0
LayerCount: 2
Fore
SplineSet
-626 -268 m 0,0,1
 -626 -161 -626 -161 -522 -161 c 0,2,3
 -419 -161 -419 -161 -419 -268 c 0,4,5
 -419 -374 -419 -374 -522 -374 c 0,6,7
 -626 -374 -626 -374 -626 -268 c 0,0,1
EndSplineSet
EndChar

StartChar: dvAvagraha
Encoding: 357 2365 101
Width: 947
Flags: W
LayerCount: 2
Fore
SplineSet
23 456 m 1,0,-1
 93 500 l 1,1,2
 278 230 278 230 496 230 c 0,3,4
 588 230 588 230 641 277.5 c 128,-1,5
 694 325 694 325 694 406 c 0,6,7
 694 460 694 460 663.5 511 c 128,-1,8
 633 562 633 562 588.5 606 c 128,-1,9
 544 650 544 650 466 718 c 0,10,11
 380 793 380 793 329 844 c 128,-1,12
 278 895 278 895 242 958.5 c 128,-1,13
 206 1022 206 1022 206 1091 c 0,14,15
 206 1173 206 1173 266.5 1223.5 c 128,-1,16
 327 1274 327 1274 429 1274 c 2,17,-1
 712 1274 l 1,18,-1
 793 1161 l 1,19,-1
 793 1141 l 1,20,-1
 501 1141 l 2,21,22
 427 1141 427 1141 394 1116 c 128,-1,23
 361 1091 361 1091 361 1041 c 0,24,25
 361 998 361 998 388.5 954.5 c 128,-1,26
 416 911 416 911 457.5 871.5 c 128,-1,27
 499 832 499 832 571 771 c 0,28,29
 662 694 662 694 719 637.5 c 128,-1,30
 776 581 776 581 816 510 c 128,-1,31
 856 439 856 439 856 360 c 0,32,33
 856 238 856 238 766.5 163.5 c 128,-1,34
 677 89 677 89 530 89 c 0,35,36
 393 89 393 89 257 187.5 c 128,-1,37
 121 286 121 286 23 456 c 1,0,-1
EndSplineSet
EndChar

StartChar: dvGlottalstop
Encoding: 358 2429 102
Width: 961
Flags: W
LayerCount: 2
Fore
SplineSet
365 92 m 1,0,-1
 365 535 l 2,1,2
 365 612 365 612 390.5 669.5 c 128,-1,3
 416 727 416 727 475 786 c 0,4,5
 601 911 601 911 632 952 c 128,-1,6
 663 993 663 993 663 1041 c 256,7,8
 663 1089 663 1089 628.5 1118 c 128,-1,9
 594 1147 594 1147 536 1147 c 0,10,11
 414 1147 414 1147 261 1039 c 1,12,-1
 160 1165 l 1,13,14
 217 1210 217 1210 294 1240.5 c 128,-1,15
 371 1271 371 1271 449 1271 c 0,16,17
 537 1271 537 1271 605 1233 c 128,-1,18
 673 1195 673 1195 731 1127 c 128,-1,19
 789 1059 789 1059 789 975 c 0,20,21
 789 919 789 919 755.5 866 c 128,-1,22
 722 813 722 813 615 702 c 0,23,24
 572 659 572 659 551.5 631 c 128,-1,25
 531 603 531 603 519.5 560.5 c 128,-1,26
 508 518 508 518 508 448 c 2,27,-1
 508 0 l 1,28,-1
 489 0 l 1,29,-1
 365 92 l 1,0,-1
EndSplineSet
EndChar

StartChar: dvHighspacingdot
Encoding: 359 2417 103
Width: 651
Flags: W
LayerCount: 2
Fore
SplineSet
225 1206 m 0,0,1
 225 1315 225 1315 326 1315 c 0,2,3
 426 1315 426 1315 426 1206 c 0,4,5
 426 1098 426 1098 326 1098 c 0,6,7
 225 1098 225 1098 225 1206 c 0,0,1
EndSplineSet
EndChar

StartChar: udatta
Encoding: 360 2385 104
Width: 0
Flags: W
LayerCount: 2
Fore
SplineSet
-296 1795 m 1,0,-1
 -187 1795 l 1,1,-1
 -187 1394 l 1,2,-1
 -296 1394 l 1,3,-1
 -296 1795 l 1,0,-1
EndSplineSet
EndChar

StartChar: anudatta
Encoding: 361 2386 105
Width: 0
Flags: W
LayerCount: 2
Fore
SplineSet
-1045 -157 m 1,0,-1
 -173 -157 l 1,1,-1
 -173 -295 l 1,2,-1
 -1045 -295 l 1,3,-1
 -1045 -157 l 1,0,-1
EndSplineSet
EndChar

StartChar: dvGrave
Encoding: 362 2387 106
Width: 0
Flags: W
LayerCount: 2
Fore
SplineSet
-512 1719 m 1,0,-1
 -428 1789 l 1,1,-1
 -155 1468 l 1,2,-1
 -239 1398 l 1,3,-1
 -512 1719 l 1,0,-1
EndSplineSet
EndChar

StartChar: dvAcute
Encoding: 363 2388 107
Width: 0
Flags: W
LayerCount: 2
Fore
SplineSet
-322 1468 m 1,0,-1
 -49 1789 l 1,1,-1
 35 1719 l 1,2,-1
 -238 1398 l 1,3,-1
 -322 1468 l 1,0,-1
EndSplineSet
EndChar

StartChar: dvCandrabinduinverted
Encoding: 364 2304 108
Width: 0
GlyphClass: 4
Flags: W
AnchorPoint: "+BBEENQQ3BEsEPARPBD0EPQQ+BDUA--0" -170 1274 mark 0
LayerCount: 2
Fore
SplineSet
145 1475 m 1,0,-1
 73 1450 l 1,1,2
 -14 1702 -14 1702 -237 1702 c 0,3,4
 -455 1702 -455 1702 -503 1429 c 1,5,-1
 -637 1465 l 1,6,7
 -607 1636 -607 1636 -505.5 1732 c 128,-1,8
 -404 1828 -404 1828 -250 1828 c 0,9,10
 -168 1828 -168 1828 -86.5 1786.5 c 128,-1,11
 -5 1745 -5 1745 57 1665 c 128,-1,12
 119 1585 119 1585 145 1475 c 1,0,-1
-141 1496 m 0,13,14
 -141 1401 -141 1401 -229 1401 c 0,15,16
 -316 1401 -316 1401 -316 1496 c 0,17,18
 -316 1590 -316 1590 -229 1590 c 0,19,20
 -141 1590 -141 1590 -141 1496 c 0,13,14
EndSplineSet
EndChar

StartChar: dvZero
Encoding: 365 2406 109
Width: 1042
Flags: W
LayerCount: 2
Fore
SplineSet
110 630 m 0,0,1
 110 807 110 807 227 924 c 128,-1,2
 344 1041 344 1041 521 1041 c 0,3,4
 668 1041 668 1041 800 909 c 128,-1,5
 932 777 932 777 932 630 c 0,6,7
 932 453 932 453 815 336 c 128,-1,8
 698 219 698 219 521 219 c 0,9,10
 419 219 419 219 326.5 284 c 128,-1,11
 234 349 234 349 172 440.5 c 128,-1,12
 110 532 110 532 110 630 c 0,0,1
801 708 m 0,13,14
 801 800 801 800 744.5 851 c 128,-1,15
 688 902 688 902 599 902 c 0,16,17
 514 902 514 902 430.5 851 c 128,-1,18
 347 800 347 800 294 720.5 c 128,-1,19
 241 641 241 641 241 561 c 0,20,21
 241 468 241 468 297 411.5 c 128,-1,22
 353 355 353 355 443 355 c 0,23,24
 523 355 523 355 607 406.5 c 128,-1,25
 691 458 691 458 746 540 c 128,-1,26
 801 622 801 622 801 708 c 0,13,14
EndSplineSet
EndChar

StartChar: dvOne
Encoding: 366 2407 110
Width: 818
Flags: W
LayerCount: 2
Fore
SplineSet
633 53 m 0,0,1
 633 -36 633 -36 551 -127 c 1,2,-1
 407 -18 l 1,3,4
 433 13 433 13 444.5 35 c 128,-1,5
 456 57 456 57 456 83 c 0,6,7
 456 137 456 137 399 211 c 128,-1,8
 342 285 342 285 189 412 c 1,9,-1
 113 478 l 1,10,11
 131 496 131 496 168 524 c 2,12,-1
 335 654 l 1,13,14
 89 832 89 832 89 1033 c 0,15,16
 89 1097 89 1097 119.5 1155.5 c 128,-1,17
 150 1214 150 1214 212.5 1251 c 128,-1,18
 275 1288 275 1288 366 1288 c 0,19,20
 444 1288 444 1288 504.5 1254.5 c 128,-1,21
 565 1221 565 1221 622.5 1157.5 c 128,-1,22
 680 1094 680 1094 703.5 1041 c 128,-1,23
 727 988 727 988 727 917 c 0,24,25
 727 823 727 823 632.5 703.5 c 128,-1,26
 538 584 538 584 317 415 c 1,27,-1
 352 390 l 2,28,29
 430 335 430 335 487 288 c 128,-1,30
 544 241 544 241 588.5 179.5 c 128,-1,31
 633 118 633 118 633 53 c 0,0,1
405 714 m 1,32,33
 586 878 586 878 586 1002 c 0,34,35
 586 1066 586 1066 545.5 1105.5 c 128,-1,36
 505 1145 505 1145 438 1145 c 0,37,38
 353 1145 353 1145 298 1088.5 c 128,-1,39
 243 1032 243 1032 243 947 c 0,40,41
 243 881 243 881 285 819 c 128,-1,42
 327 757 327 757 405 714 c 1,32,33
EndSplineSet
EndChar

StartChar: dvTwo
Encoding: 367 2408 111
Width: 1035
Flags: W
LayerCount: 2
Fore
SplineSet
520 428 m 1,0,1
 748 1 748 1 769 -42 c 1,2,-1
 592 -101 l 1,3,4
 540 55 540 55 467 259 c 2,5,-1
 415 408 l 1,6,7
 386 404 386 404 349 404 c 0,8,9
 265 404 265 404 206 451.5 c 128,-1,10
 147 499 147 499 147 571 c 0,11,12
 147 620 147 620 183 655 c 128,-1,13
 219 690 219 690 284 690 c 0,14,15
 365 690 365 690 432 595 c 1,16,17
 580 645 580 645 666.5 734 c 128,-1,18
 753 823 753 823 753 924 c 0,19,20
 753 1012 753 1012 691 1068 c 128,-1,21
 629 1124 629 1124 533 1124 c 0,22,23
 468 1124 468 1124 398 1098.5 c 128,-1,24
 328 1073 328 1073 278 1037 c 1,25,-1
 169 1177 l 1,26,27
 232 1227 232 1227 311 1256.5 c 128,-1,28
 390 1286 390 1286 464 1286 c 0,29,30
 572 1286 572 1286 675 1207.5 c 128,-1,31
 778 1129 778 1129 839.5 1027 c 128,-1,32
 901 925 901 925 901 807 c 0,33,34
 901 687 901 687 794 581 c 128,-1,35
 687 475 687 475 520 428 c 1,0,1
EndSplineSet
EndChar

StartChar: dvThree
Encoding: 368 2409 112
Width: 982
Flags: W
LayerCount: 2
Fore
SplineSet
519 132 m 1,0,1
 589 26 589 26 670 -118 c 1,2,-1
 500 -173 l 1,3,-1
 407 130 l 1,4,5
 279 140 279 140 201 193 c 128,-1,6
 123 246 123 246 123 327 c 0,7,8
 123 372 123 372 156 402.5 c 128,-1,9
 189 433 189 433 241 433 c 0,10,11
 342 433 342 433 431 280 c 1,12,13
 563 285 563 285 629.5 341.5 c 128,-1,14
 696 398 696 398 696 491 c 0,15,16
 696 544 696 544 666.5 598 c 128,-1,17
 637 652 637 652 584 695 c 1,18,19
 474 652 474 652 345 631 c 1,20,-1
 229 784 l 1,21,22
 414 818 414 818 540 871.5 c 128,-1,23
 666 925 666 925 666 1010 c 0,24,25
 666 1071 666 1071 625 1106 c 128,-1,26
 584 1141 584 1141 516 1141 c 0,27,28
 451 1141 451 1141 378.5 1119.5 c 128,-1,29
 306 1098 306 1098 251 1062 c 1,30,-1
 143 1209 l 1,31,32
 205 1250 205 1250 282.5 1274 c 128,-1,33
 360 1298 360 1298 433 1298 c 0,34,35
 528 1298 528 1298 613 1239 c 128,-1,36
 698 1180 698 1180 756 1094 c 128,-1,37
 814 1008 814 1008 814 928 c 0,38,39
 814 818 814 818 675 738 c 1,40,41
 775 658 775 658 818.5 583 c 128,-1,42
 862 508 862 508 862 430 c 0,43,44
 862 311 862 311 766.5 229.5 c 128,-1,45
 671 148 671 148 519 132 c 1,0,1
EndSplineSet
EndChar

StartChar: dvFour
Encoding: 369 2410 113
Width: 1108
Flags: W
LayerCount: 2
Fore
SplineSet
954 244 m 0,0,1
 954 166 954 166 914 108.5 c 128,-1,2
 874 51 874 51 811 21 c 128,-1,3
 748 -9 748 -9 681 -9 c 0,4,5
 547 -9 547 -9 433.5 51.5 c 128,-1,6
 320 112 320 112 261.5 185 c 128,-1,7
 203 258 203 258 203 362 c 0,8,9
 203 512 203 512 391 668 c 1,10,11
 262 746 262 746 190 824.5 c 128,-1,12
 118 903 118 903 118 1003 c 0,13,14
 118 1128 118 1128 199.5 1197.5 c 128,-1,15
 281 1267 281 1267 369 1298 c 1,16,-1
 487 1174 l 1,17,18
 398 1129 398 1129 344 1080 c 128,-1,19
 290 1031 290 1031 290 958 c 0,20,21
 290 898 290 898 338.5 846 c 128,-1,22
 387 794 387 794 479 735 c 1,23,-1
 598 816 l 2,24,25
 695 880 695 880 750.5 922 c 128,-1,26
 806 964 806 964 843 1010 c 128,-1,27
 880 1056 880 1056 880 1101 c 0,28,29
 880 1131 880 1131 871 1156 c 128,-1,30
 862 1181 862 1181 851 1197 c 128,-1,31
 840 1213 840 1213 839 1213 c 1,32,-1
 897 1264 l 1,33,34
 1037 1179 1037 1179 1037 1047 c 0,35,36
 1037 978 1037 978 993 917.5 c 128,-1,37
 949 857 949 857 884.5 808 c 128,-1,38
 820 759 820 759 711 689 c 2,39,-1
 637 640 l 1,40,41
 818 529 818 529 886 437 c 128,-1,42
 954 345 954 345 954 244 c 0,0,1
791 313 m 0,43,44
 791 385 791 385 728 445.5 c 128,-1,45
 665 506 665 506 547 576 c 1,46,47
 375 446 375 446 375 316 c 0,48,49
 375 233 375 233 431 179 c 128,-1,50
 487 125 487 125 572 125 c 0,51,52
 664 125 664 125 727.5 179.5 c 128,-1,53
 791 234 791 234 791 313 c 0,43,44
EndSplineSet
EndChar

StartChar: dvFive
Encoding: 370 2411 114
Width: 1043
Flags: W
LayerCount: 2
Fore
SplineSet
941 -83 m 1,0,1
 905 -18 905 -18 834 148 c 128,-1,2
 763 314 763 314 732 411 c 1,3,4
 653 370 653 370 559 370 c 0,5,6
 431 370 431 370 338.5 433 c 128,-1,7
 246 496 246 496 182 597.5 c 128,-1,8
 118 699 118 699 118 826 c 0,9,10
 118 924 118 924 170.5 1049 c 128,-1,11
 223 1174 223 1174 331 1299 c 1,12,-1
 487 1208 l 1,13,14
 276 963 276 963 276 723 c 0,15,16
 276 625 276 625 336.5 560.5 c 128,-1,17
 397 496 397 496 485 496 c 0,18,19
 539 496 539 496 588.5 514.5 c 128,-1,20
 638 533 638 533 669 571 c 1,21,22
 635 630 635 630 635 697 c 0,23,24
 635 768 635 768 671.5 804 c 128,-1,25
 708 840 708 840 759 840 c 0,26,27
 818 840 818 840 859 791.5 c 128,-1,28
 900 743 900 743 900 669 c 0,29,30
 900 555 900 555 815 470 c 1,31,32
 944 221 944 221 1103 6 c 1,33,-1
 941 -83 l 1,0,1
EndSplineSet
EndChar

StartChar: dvSix
Encoding: 371 2412 115
Width: 1030
Flags: W
LayerCount: 2
Fore
SplineSet
1009 -83 m 1,0,-1
 859 -170 l 1,1,2
 831 -119 831 -119 786 -3.5 c 128,-1,3
 741 112 741 112 726 172 c 1,4,5
 662 149 662 149 595 149 c 0,6,7
 507 149 507 149 435.5 176.5 c 128,-1,8
 364 204 364 204 293.5 267 c 128,-1,9
 223 330 223 330 183 393 c 128,-1,10
 143 456 143 456 143 540 c 0,11,12
 143 682 143 682 277 773 c 1,13,14
 208 825 208 825 169 891 c 128,-1,15
 130 957 130 957 130 1031 c 0,16,17
 130 1153 130 1153 218 1224 c 128,-1,18
 306 1295 306 1295 460 1295 c 0,19,20
 570 1295 570 1295 672 1272 c 1,21,-1
 735 1108 l 1,22,23
 593 1136 593 1136 479 1136 c 0,24,25
 395 1136 395 1136 339.5 1093 c 128,-1,26
 284 1050 284 1050 284 971 c 0,27,28
 284 894 284 894 362 816 c 1,29,30
 475 861 475 861 618 862 c 1,31,-1
 677 704 l 1,32,33
 596 702 596 702 508.5 678.5 c 128,-1,34
 421 655 421 655 359 602 c 128,-1,35
 297 549 297 549 297 466 c 0,36,37
 297 385 297 385 353.5 334 c 128,-1,38
 410 283 410 283 494 283 c 0,39,40
 535 283 535 283 587 296 c 128,-1,41
 639 309 639 309 679 338 c 1,42,43
 668 376 668 376 668 405 c 0,44,45
 668 476 668 476 704.5 512 c 128,-1,46
 741 548 741 548 792 548 c 0,47,48
 856 548 856 548 904.5 497.5 c 128,-1,49
 953 447 953 447 953 377 c 0,50,51
 953 316 953 316 914 269.5 c 128,-1,52
 875 223 875 223 809 195 c 1,53,54
 842 136 842 136 901.5 53.5 c 128,-1,55
 961 -29 961 -29 1009 -83 c 1,0,-1
EndSplineSet
EndChar

StartChar: dvSeven
Encoding: 372 2413 116
Width: 1228
Flags: W
LayerCount: 2
Fore
SplineSet
1108 601 m 0,0,1
 1108 421 1108 421 1048 299 c 128,-1,2
 988 177 988 177 897.5 119 c 128,-1,3
 807 61 807 61 717 61 c 0,4,5
 529 61 529 61 387.5 190.5 c 128,-1,6
 246 320 246 320 166 592 c 128,-1,7
 86 864 86 864 86 1276 c 1,8,-1
 180 1296 l 1,9,10
 203 909 203 909 272.5 668 c 128,-1,11
 342 427 342 427 442 321 c 128,-1,12
 542 215 542 215 665 215 c 0,13,14
 762 215 762 215 835 296.5 c 128,-1,15
 908 378 908 378 934 517 c 1,16,17
 824 520 824 520 706 568.5 c 128,-1,18
 588 617 588 617 508 710.5 c 128,-1,19
 428 804 428 804 428 935 c 0,20,21
 428 1049 428 1049 493 1115 c 128,-1,22
 558 1181 558 1181 667 1181 c 0,23,24
 820 1181 820 1181 964 1024 c 128,-1,25
 1108 867 1108 867 1108 601 c 0,0,1
945 608 m 1,26,-1
 947 664 l 1,27,28
 947 847 947 847 889 949.5 c 128,-1,29
 831 1052 831 1052 729 1052 c 0,30,31
 673 1052 673 1052 636.5 1009 c 128,-1,32
 600 966 600 966 600 898 c 0,33,34
 600 787 600 787 695.5 707 c 128,-1,35
 791 627 791 627 945 608 c 1,26,-1
EndSplineSet
EndChar

StartChar: dvEight
Encoding: 373 2414 117
Width: 1068
Flags: W
LayerCount: 2
Fore
SplineSet
114 509 m 0,0,1
 114 584 114 584 162 661.5 c 128,-1,2
 210 739 210 739 294 823.5 c 128,-1,3
 378 908 378 908 557 1073 c 2,4,-1
 782 1281 l 1,5,-1
 912 1156 l 1,6,-1
 709 970 l 2,7,8
 532 808 532 808 449.5 726 c 128,-1,9
 367 644 367 644 321.5 569.5 c 128,-1,10
 276 495 276 495 276 421 c 0,11,12
 276 324 276 324 338.5 266 c 128,-1,13
 401 208 401 208 507 208 c 0,14,15
 614 208 614 208 712.5 276.5 c 128,-1,16
 811 345 811 345 886 437 c 1,17,-1
 1015 317 l 1,18,19
 1015 309 1015 309 951 241.5 c 128,-1,20
 887 174 887 174 788.5 117 c 128,-1,21
 690 60 690 60 572 60 c 0,22,23
 490 60 490 60 421 94 c 128,-1,24
 352 128 352 128 269 204.5 c 128,-1,25
 186 281 186 281 150 356.5 c 128,-1,26
 114 432 114 432 114 509 c 0,0,1
EndSplineSet
EndChar

StartChar: dvNine
Encoding: 374 2415 118
Width: 878
Flags: W
LayerCount: 2
Fore
SplineSet
784 142 m 0,0,1
 784 89 784 89 754.5 36.5 c 128,-1,2
 725 -16 725 -16 653 -76 c 1,3,-1
 505 27 l 1,4,5
 599 111 599 111 599 180 c 0,6,7
 599 224 599 224 574.5 266.5 c 128,-1,8
 550 309 550 309 512 348.5 c 128,-1,9
 474 388 474 388 402 454 c 0,10,11
 285 560 285 560 213 640 c 0,12,13
 92 777 92 777 92 939 c 0,14,15
 92 1024 92 1024 133 1099.5 c 128,-1,16
 174 1175 174 1175 248 1220.5 c 128,-1,17
 322 1266 322 1266 417 1266 c 0,18,19
 520 1266 520 1266 599 1221 c 128,-1,20
 678 1176 678 1176 736.5 1093 c 128,-1,21
 795 1010 795 1010 795 912 c 0,22,23
 795 792 795 792 687.5 706 c 128,-1,24
 580 620 580 620 403 596 c 1,25,26
 433 566 433 566 471 536 c 2,27,-1
 549 467 l 2,28,29
 632 396 632 396 678.5 349.5 c 128,-1,30
 725 303 725 303 754.5 251 c 128,-1,31
 784 199 784 199 784 142 c 0,0,1
266 878 m 0,32,33
 266 800 266 800 299 732 c 1,34,35
 456 748 456 748 553.5 816 c 128,-1,36
 651 884 651 884 651 979 c 0,37,38
 651 1047 651 1047 607.5 1091.5 c 128,-1,39
 564 1136 564 1136 497 1136 c 0,40,41
 423 1136 423 1136 371 1096.5 c 128,-1,42
 319 1057 319 1057 292.5 997.5 c 128,-1,43
 266 938 266 938 266 878 c 0,32,33
EndSplineSet
EndChar

StartChar: dvOm
Encoding: 375 2384 119
Width: 1861
Flags: W
LayerCount: 2
Fore
SplineSet
1074 1603 m 0,0,1
 1074 1698 1074 1698 1162 1698 c 0,2,3
 1249 1698 1249 1698 1249 1603 c 0,4,5
 1249 1509 1249 1509 1162 1509 c 0,6,7
 1074 1509 1074 1509 1074 1603 c 0,0,1
788 1624 m 1,8,-1
 860 1649 l 1,9,10
 947 1397 947 1397 1170 1397 c 0,11,12
 1388 1397 1388 1397 1436 1670 c 1,13,-1
 1570 1634 l 1,14,15
 1540 1463 1540 1463 1438.5 1367 c 128,-1,16
 1337 1271 1337 1271 1183 1271 c 0,17,18
 1101 1271 1101 1271 1019.5 1312.5 c 128,-1,19
 938 1354 938 1354 876 1434 c 128,-1,20
 814 1514 814 1514 788 1624 c 1,8,-1
1765 616 m 0,21,22
 1765 521 1765 521 1731 431.5 c 128,-1,23
 1697 342 1697 342 1625 283.5 c 128,-1,24
 1553 225 1553 225 1445 225 c 0,25,26
 1363 225 1363 225 1265.5 289 c 128,-1,27
 1168 353 1168 353 1096 450 c 1,28,-1
 1150 496 l 1,29,30
 1212 430 1212 430 1272.5 392 c 128,-1,31
 1333 354 1333 354 1405 354 c 0,32,33
 1508 354 1508 354 1567.5 443 c 128,-1,34
 1627 532 1627 532 1627 685 c 0,35,36
 1627 814 1627 814 1583 893.5 c 128,-1,37
 1539 973 1539 973 1469 973 c 0,38,39
 1428 973 1428 973 1390 939.5 c 128,-1,40
 1352 906 1352 906 1286 793 c 0,41,42
 1238 713 1238 713 1201.5 664 c 128,-1,43
 1165 615 1165 615 1112.5 580 c 128,-1,44
 1060 545 1060 545 993 545 c 0,45,46
 941 545 941 545 898 561 c 1,47,48
 944 504 944 504 968 436.5 c 128,-1,49
 992 369 992 369 992 307 c 0,50,51
 992 170 992 170 904.5 85.5 c 128,-1,52
 817 1 817 1 673 1 c 0,53,54
 498 1 498 1 344.5 163.5 c 128,-1,55
 191 326 191 326 96 614 c 1,56,-1
 184 651 l 1,57,58
 359 149 359 149 623 149 c 0,59,60
 733 149 733 149 796.5 208.5 c 128,-1,61
 860 268 860 268 860 373 c 0,62,63
 860 447 860 447 824 517.5 c 128,-1,64
 788 588 788 588 725 636 c 1,65,66
 660 605 660 605 573 575 c 1,67,-1
 495 709 l 1,68,69
 657 758 657 758 747 836.5 c 128,-1,70
 837 915 837 915 837 1005 c 0,71,72
 837 1073 837 1073 794.5 1104 c 128,-1,73
 752 1135 752 1135 681 1135 c 0,74,75
 619 1135 619 1135 548 1115 c 128,-1,76
 477 1095 477 1095 417 1064 c 1,77,-1
 342 1209 l 1,78,79
 489 1284 489 1284 625 1284 c 0,80,81
 718 1284 718 1284 797.5 1222.5 c 128,-1,82
 877 1161 877 1161 916.5 1087 c 128,-1,83
 956 1013 956 1013 956 936 c 0,84,85
 956 855 956 855 918.5 792 c 128,-1,86
 881 729 881 729 801 678 c 1,87,88
 845 662 845 662 882 662 c 0,89,90
 957 662 957 662 1009.5 693.5 c 128,-1,91
 1062 725 1062 725 1096 770 c 128,-1,92
 1130 815 1130 815 1173 889 c 0,93,94
 1211 956 1211 956 1239.5 994.5 c 128,-1,95
 1268 1033 1268 1033 1309 1059.5 c 128,-1,96
 1350 1086 1350 1086 1407 1086 c 0,97,98
 1498 1086 1498 1086 1582.5 1017 c 128,-1,99
 1667 948 1667 948 1716 849 c 128,-1,100
 1765 750 1765 750 1765 616 c 0,21,22
EndSplineSet
EndChar

StartChar: dvAbbreviationsign
Encoding: 376 2416 120
Width: 872
Flags: W
LayerCount: 2
Fore
SplineSet
147 850 m 0,0,1
 147 968 147 968 232.5 1056 c 128,-1,2
 318 1144 318 1144 434 1144 c 0,3,4
 563 1144 563 1144 643.5 1067 c 128,-1,5
 724 990 724 990 724 867 c 0,6,7
 724 748 724 748 636 660.5 c 128,-1,8
 548 573 548 573 439 573 c 0,9,10
 309 573 309 573 228 650.5 c 128,-1,11
 147 728 147 728 147 850 c 0,0,1
621 861 m 0,12,13
 621 951 621 951 568 1009.5 c 128,-1,14
 515 1068 515 1068 432 1068 c 0,15,16
 352 1068 352 1068 302 1009.5 c 128,-1,17
 252 951 252 951 252 860 c 0,18,19
 252 770 252 770 306 711.5 c 128,-1,20
 360 653 360 653 444 653 c 0,21,22
 523 653 523 653 572 711.5 c 128,-1,23
 621 770 621 770 621 861 c 0,12,13
EndSplineSet
EndChar

StartChar: uni0964
Encoding: 377 2404 121
Width: 756
Flags: W
LayerCount: 2
Fore
SplineSet
398 83 m 1,0,-1
 398 1274 l 1,1,-1
 417 1274 l 1,2,-1
 541 1181 l 1,3,-1
 541 -10 l 1,4,-1
 522 -10 l 1,5,-1
 398 83 l 1,0,-1
EndSplineSet
EndChar

StartChar: uni1CD0
Encoding: 379 7376 123
Width: 0
Flags: W
LayerCount: 2
Fore
SplineSet
-44 1551 m 1,0,-1
 -334 1893 l 1,1,-1
 -631 1543 l 1,2,-1
 -772 1644 l 1,3,-1
 -391 2100 l 1,4,-1
 16 1609 l 1,5,-1
 -44 1551 l 1,0,-1
EndSplineSet
EndChar

StartChar: uni1CD1
Encoding: 380 7377 124
Width: 0
Flags: W
LayerCount: 2
Fore
SplineSet
-24 1609 m 1,0,-1
 -84 1551 l 1,1,-1
 -374 1893 l 1,2,-1
 -671 1543 l 1,3,-1
 -812 1644 l 1,4,-1
 -431 2100 l 1,5,-1
 -24 1609 l 1,0,-1
-414 1800 m 1,6,-1
 -303 1717 l 1,7,-1
 -303 1374 l 1,8,-1
 -322 1374 l 1,9,-1
 -433 1457 l 1,10,-1
 -433 1800 l 1,11,-1
 -414 1800 l 1,6,-1
EndSplineSet
EndChar

StartChar: uni1CD2
Encoding: 381 7378 125
Width: 0
Flags: W
LayerCount: 2
Fore
SplineSet
7 1754 m 1,0,-1
 -653 1754 l 1,1,-1
 -740 1880 l 1,2,-1
 -740 1900 l 1,3,-1
 -80 1900 l 1,4,-1
 7 1774 l 1,5,-1
 7 1754 l 1,0,-1
EndSplineSet
EndChar

StartChar: uni1CD3
Encoding: 382 7379 126
Width: 562
Flags: W
LayerCount: 2
Fore
SplineSet
212 1350 m 1,0,-1
 102 1350 l 1,1,-1
 162 1836 l 1,2,-1
 272 1836 l 1,3,-1
 212 1350 l 1,0,-1
437 1350 m 1,4,-1
 327 1350 l 1,5,-1
 387 1836 l 1,6,-1
 497 1836 l 1,7,-1
 437 1350 l 1,4,-1
EndSplineSet
EndChar

StartChar: uni1CD4
Encoding: 383 7380 127
Width: 0
Flags: W
LayerCount: 2
Fore
SplineSet
66 537 m 1,0,-1
 -517 537 l 1,1,-1
 -604 663 l 1,2,-1
 -604 683 l 1,3,-1
 -21 683 l 1,4,-1
 66 557 l 1,5,-1
 66 537 l 1,0,-1
EndSplineSet
EndChar

StartChar: uni1CD5
Encoding: 384 7381 128
Width: 0
Flags: W
LayerCount: 2
Fore
SplineSet
-78 -279 m 0,0,1
 -78 -374 -78 -374 -136.5 -431.5 c 128,-1,2
 -195 -489 -195 -489 -293 -489 c 0,3,4
 -401 -489 -401 -489 -476 -411 c 1,5,6
 -508 -447 -508 -447 -554.5 -467.5 c 128,-1,7
 -601 -488 -601 -488 -654 -488 c 0,8,9
 -773 -488 -773 -488 -862.5 -408.5 c 128,-1,10
 -952 -329 -952 -329 -952 -223 c 0,11,12
 -952 -135 -952 -135 -883 -37 c 1,13,-1
 -736 -130 l 1,14,15
 -807 -227 -807 -227 -807 -299 c 0,16,17
 -807 -342 -807 -342 -778 -366.5 c 128,-1,18
 -749 -391 -749 -391 -710 -391 c 0,19,20
 -648 -391 -648 -391 -607 -343.5 c 128,-1,21
 -566 -296 -566 -296 -566 -221 c 2,22,-1
 -566 -103 l 1,23,-1
 -424 -163 l 1,24,-1
 -424 -273 l 2,25,26
 -424 -309 -424 -309 -435 -342 c 1,27,28
 -389 -375 -389 -375 -324 -375 c 0,29,30
 -265 -375 -265 -375 -227 -337.5 c 128,-1,31
 -189 -300 -189 -300 -189 -242 c 0,32,33
 -189 -164 -189 -164 -251 -92 c 1,34,-1
 -189 -42 l 1,35,36
 -78 -160 -78 -160 -78 -279 c 0,0,1
EndSplineSet
EndChar

StartChar: uni1CD6
Encoding: 385 7382 129
Width: 0
Flags: W
LayerCount: 2
Fore
SplineSet
-137 -455 m 1,0,-1
 -137 -475 l 1,1,-1
 -797 -475 l 1,2,-1
 -884 -349 l 1,3,-1
 -884 -34 l 1,4,-1
 -865 -34 l 1,5,-1
 -741 -127 l 1,6,-1
 -741 -329 l 1,7,-1
 -224 -329 l 1,8,-1
 -137 -455 l 1,0,-1
EndSplineSet
EndChar

StartChar: uni1CD7
Encoding: 386 7383 130
Width: 0
Flags: W
LayerCount: 2
Fore
SplineSet
-804 -335 m 0,0,1
 -804 -380 -804 -380 -754 -380 c 2,2,-1
 -241 -380 l 1,3,-1
 -154 -506 l 1,4,-1
 -154 -526 l 1,5,-1
 -664 -526 l 2,6,7
 -727 -526 -727 -526 -789 -485.5 c 128,-1,8
 -851 -445 -851 -445 -890 -383 c 128,-1,9
 -929 -321 -929 -321 -929 -263 c 0,10,11
 -929 -173 -929 -173 -850.5 -113 c 128,-1,12
 -772 -53 -772 -53 -639 -43 c 1,13,-1
 -588 -195 l 1,14,15
 -676 -195 -676 -195 -740 -237 c 128,-1,16
 -804 -279 -804 -279 -804 -335 c 0,0,1
EndSplineSet
EndChar

StartChar: uni1CDA
Encoding: 389 7386 133
Width: 0
Flags: W
LayerCount: 2
Fore
SplineSet
-458 1785 m 1,0,-1
 -319 1785 l 1,1,-1
 -319 1374 l 1,2,-1
 -458 1374 l 1,3,-1
 -458 1785 l 1,0,-1
-212 1785 m 1,4,-1
 -73 1785 l 1,5,-1
 -73 1374 l 1,6,-1
 -212 1374 l 1,7,-1
 -212 1785 l 1,4,-1
EndSplineSet
EndChar

StartChar: uni1CDB
Encoding: 390 7387 134
Width: 0
Flags: W
LayerCount: 2
Fore
SplineSet
-554 1785 m 1,0,-1
 -424 1785 l 1,1,-1
 -424 1374 l 1,2,-1
 -554 1374 l 1,3,-1
 -554 1785 l 1,0,-1
-331 1785 m 1,4,-1
 -201 1785 l 1,5,-1
 -201 1374 l 1,6,-1
 -331 1374 l 1,7,-1
 -331 1785 l 1,4,-1
-108 1785 m 1,8,-1
 22 1785 l 1,9,-1
 22 1374 l 1,10,-1
 -108 1374 l 1,11,-1
 -108 1785 l 1,8,-1
EndSplineSet
EndChar

StartChar: uni1CDC
Encoding: 391 7388 135
Width: 0
Flags: W
LayerCount: 2
Fore
SplineSet
-337 -434 m 1,0,-1
 -337 -54 l 1,1,-1
 -318 -54 l 1,2,-1
 -194 -147 l 1,3,-1
 -194 -527 l 1,4,-1
 -213 -527 l 1,5,-1
 -337 -434 l 1,0,-1
EndSplineSet
EndChar

StartChar: uni1CDD
Encoding: 392 7389 136
Width: 0
Flags: W
LayerCount: 2
Fore
SplineSet
-420 -356 m 1,0,-1
 -259 -187 l 1,1,-1
 -98 -356 l 1,2,-1
 -259 -525 l 1,3,-1
 -420 -356 l 1,0,-1
EndSplineSet
EndChar

StartChar: uni1CDE
Encoding: 393 7390 137
Width: 0
Flags: W
LayerCount: 2
Fore
SplineSet
-656 -255 m 256,0,1
 -656 -208 -656 -208 -624.5 -175 c 128,-1,2
 -593 -142 -593 -142 -549 -142 c 256,3,4
 -505 -142 -505 -142 -473.5 -175 c 128,-1,5
 -442 -208 -442 -208 -442 -255 c 256,6,7
 -442 -302 -442 -302 -473.5 -335 c 128,-1,8
 -505 -368 -505 -368 -549 -368 c 256,9,10
 -593 -368 -593 -368 -624.5 -335 c 128,-1,11
 -656 -302 -656 -302 -656 -255 c 256,0,1
-366 -255 m 256,12,13
 -366 -208 -366 -208 -334.5 -175 c 128,-1,14
 -303 -142 -303 -142 -259 -142 c 0,15,16
 -214 -142 -214 -142 -183 -175 c 128,-1,17
 -152 -208 -152 -208 -152 -255 c 256,18,19
 -152 -302 -152 -302 -183.5 -335 c 128,-1,20
 -215 -368 -215 -368 -259 -368 c 256,21,22
 -303 -368 -303 -368 -334.5 -335 c 128,-1,23
 -366 -302 -366 -302 -366 -255 c 256,12,13
EndSplineSet
EndChar

StartChar: uni1CDF
Encoding: 394 7391 138
Width: 0
Flags: W
LayerCount: 2
Fore
SplineSet
-946 -255 m 256,0,1
 -946 -208 -946 -208 -914.5 -175 c 128,-1,2
 -883 -142 -883 -142 -839 -142 c 0,3,4
 -794 -142 -794 -142 -763 -175 c 128,-1,5
 -732 -208 -732 -208 -732 -255 c 256,6,7
 -732 -302 -732 -302 -763.5 -335 c 128,-1,8
 -795 -368 -795 -368 -839 -368 c 0,9,10
 -884 -368 -884 -368 -915 -335 c 128,-1,11
 -946 -302 -946 -302 -946 -255 c 256,0,1
-656 -255 m 256,12,13
 -656 -208 -656 -208 -624.5 -175 c 128,-1,14
 -593 -142 -593 -142 -549 -142 c 256,15,16
 -505 -142 -505 -142 -473.5 -175 c 128,-1,17
 -442 -208 -442 -208 -442 -255 c 256,18,19
 -442 -302 -442 -302 -473.5 -335 c 128,-1,20
 -505 -368 -505 -368 -549 -368 c 256,21,22
 -593 -368 -593 -368 -624.5 -335 c 128,-1,23
 -656 -302 -656 -302 -656 -255 c 256,12,13
-366 -255 m 256,24,25
 -366 -208 -366 -208 -334.5 -175 c 128,-1,26
 -303 -142 -303 -142 -259 -142 c 0,27,28
 -214 -142 -214 -142 -183 -175 c 128,-1,29
 -152 -208 -152 -208 -152 -255 c 256,30,31
 -152 -302 -152 -302 -183.5 -335 c 128,-1,32
 -215 -368 -215 -368 -259 -368 c 256,33,34
 -303 -368 -303 -368 -334.5 -335 c 128,-1,35
 -366 -302 -366 -302 -366 -255 c 256,24,25
EndSplineSet
EndChar

StartChar: uni1CE0
Encoding: 395 7392 139
Width: 905
Flags: W
LayerCount: 2
Fore
SplineSet
386 1486 m 2,0,1
 298 1486 298 1486 241 1451 c 128,-1,2
 184 1416 184 1416 184 1362 c 0,3,4
 184 1282 184 1282 300 1282 c 0,5,6
 365 1282 365 1282 433 1311 c 1,7,-1
 471 1151 l 1,8,9
 427 1135 427 1135 378 1135 c 0,10,11
 264 1135 264 1135 171.5 1218 c 128,-1,12
 79 1301 79 1301 79 1404 c 0,13,14
 79 1505 79 1505 156.5 1568.5 c 128,-1,15
 234 1632 234 1632 353 1632 c 2,16,-1
 808 1632 l 1,17,-1
 895 1506 l 1,18,-1
 895 1486 l 1,19,-1
 386 1486 l 2,0,1
EndSplineSet
EndChar

StartChar: uni1CE1
Encoding: 396 7393 140
Width: 811
Flags: W
LayerCount: 2
Fore
SplineSet
574 1753 m 0,0,1
 685 1753 685 1753 757.5 1673.5 c 128,-1,2
 830 1594 830 1594 877 1452 c 1,3,-1
 803 1421 l 1,4,5
 768 1491 768 1491 721 1526 c 128,-1,6
 674 1561 674 1561 625 1561 c 0,7,8
 537 1561 537 1561 497 1498 c 128,-1,9
 457 1435 457 1435 457 1267 c 0,10,11
 457 1162 457 1162 467 1048.5 c 128,-1,12
 477 935 477 935 498 753 c 0,13,14
 522 547 522 547 534.5 399 c 128,-1,15
 547 251 547 251 547 100 c 0,16,17
 547 -94 547 -94 458.5 -212 c 128,-1,18
 370 -330 370 -330 225 -330 c 256,19,20
 80 -330 80 -330 -81 -207 c 1,21,-1
 -34 -127 l 1,22,23
 77 -175 77 -175 153 -175 c 0,24,25
 358 -175 358 -175 358 160 c 0,26,27
 358 289 358 289 346.5 420 c 128,-1,28
 335 551 335 551 312 746 c 0,29,30
 290 939 290 939 279 1064.5 c 128,-1,31
 268 1190 268 1190 268 1313 c 0,32,33
 268 1522 268 1522 337.5 1637.5 c 128,-1,34
 407 1753 407 1753 574 1753 c 0,0,1
EndSplineSet
EndChar

StartChar: uni1CE2
Encoding: 397 7394 141
Width: 0
Flags: W
LayerCount: 2
Fore
SplineSet
35 512 m 1,0,-1
 35 492 l 1,1,-1
 -514 492 l 1,2,-1
 -601 618 l 1,3,-1
 -601 638 l 1,4,-1
 -52 638 l 1,5,-1
 35 512 l 1,0,-1
EndSplineSet
EndChar

StartChar: uni1CE3
Encoding: 398 7395 142
Width: 419
Flags: W
LayerCount: 2
Fore
SplineSet
354 741 m 0,0,1
 354 632 354 632 272 562.5 c 128,-1,2
 190 493 190 493 63 493 c 2,3,-1
 -225 493 l 1,4,-1
 -312 619 l 1,5,-1
 -312 639 l 1,6,-1
 -4 639 l 2,7,8
 193 639 193 639 193 783 c 0,9,10
 193 932 193 932 -84 1127 c 1,11,-1
 -25 1199 l 1,12,13
 146 1086 146 1086 250 975.5 c 128,-1,14
 354 865 354 865 354 741 c 0,0,1
EndSplineSet
EndChar

StartChar: uni1CE4
Encoding: 399 7396 143
Width: 409
Flags: W
LayerCount: 2
Fore
SplineSet
210 705 m 0,0,1
 210 670 210 670 229.5 654.5 c 128,-1,2
 249 639 249 639 291 639 c 2,3,-1
 635 639 l 1,4,-1
 722 513 l 1,5,-1
 722 493 l 1,6,-1
 344 493 l 2,7,8
 238 493 238 493 152.5 571.5 c 128,-1,9
 67 650 67 650 67 751 c 0,10,11
 67 862 67 862 171 986 c 128,-1,12
 275 1110 275 1110 436 1197 c 1,13,-1
 527 1057 l 1,14,15
 386 996 386 996 298 898.5 c 128,-1,16
 210 801 210 801 210 705 c 0,0,1
EndSplineSet
EndChar

StartChar: uni1CE5
Encoding: 400 7397 144
Width: 420
Flags: W
LayerCount: 2
Fore
SplineSet
74 391 m 0,0,1
 74 500 74 500 156 569.5 c 128,-1,2
 238 639 238 639 365 639 c 2,3,-1
 653 639 l 1,4,-1
 740 513 l 1,5,-1
 740 493 l 1,6,-1
 432 493 l 2,7,8
 235 493 235 493 235 349 c 0,9,10
 235 200 235 200 512 5 c 1,11,-1
 453 -67 l 1,12,13
 282 46 282 46 178 156.5 c 128,-1,14
 74 267 74 267 74 391 c 0,0,1
EndSplineSet
EndChar

StartChar: uni1CE6
Encoding: 401 7398 145
Width: 429
Flags: W
LayerCount: 2
Fore
SplineSet
207 427 m 0,0,1
 207 462 207 462 187.5 477.5 c 128,-1,2
 168 493 168 493 126 493 c 2,3,-1
 -218 493 l 1,4,-1
 -305 619 l 1,5,-1
 -305 639 l 1,6,-1
 73 639 l 2,7,8
 179 639 179 639 266 559.5 c 128,-1,9
 353 480 353 480 353 379 c 0,10,11
 353 268 353 268 249.5 145.5 c 128,-1,12
 146 23 146 23 -19 -67 c 1,13,-1
 -129 75 l 1,14,15
 14 137 14 137 110.5 236.5 c 128,-1,16
 207 336 207 336 207 427 c 0,0,1
EndSplineSet
EndChar

StartChar: uni1CE7
Encoding: 402 7399 146
Width: 559
Flags: W
LayerCount: 2
Fore
SplineSet
280 753 m 0,0,1
 280 795 280 795 254 838 c 128,-1,2
 228 881 228 881 132 974 c 2,3,-1
 71 1032 l 2,4,5
 6 1092 6 1092 -30.5 1132.5 c 128,-1,6
 -67 1173 -67 1173 -92.5 1223 c 128,-1,7
 -118 1273 -118 1273 -118 1330 c 0,8,9
 -118 1427 -118 1427 -53.5 1490.5 c 128,-1,10
 11 1554 11 1554 111 1554 c 0,11,12
 221 1554 221 1554 308 1486 c 128,-1,13
 395 1418 395 1418 474 1264 c 1,14,-1
 398 1228 l 1,15,16
 293 1436 293 1436 159 1436 c 0,17,18
 95 1436 95 1436 58 1395 c 128,-1,19
 21 1354 21 1354 21 1287 c 0,20,21
 21 1241 21 1241 44 1201.5 c 128,-1,22
 67 1162 67 1162 146 1092 c 0,23,24
 299 950 299 950 367 863.5 c 128,-1,25
 435 777 435 777 435 699 c 0,26,27
 435 607 435 607 353.5 553.5 c 128,-1,28
 272 500 272 500 138 500 c 2,29,-1
 -195 500 l 1,30,-1
 -272 612 l 1,31,-1
 -272 632 l 1,32,-1
 107 632 l 2,33,34
 191 632 191 632 235.5 663 c 128,-1,35
 280 694 280 694 280 753 c 0,0,1
EndSplineSet
EndChar

StartChar: uni1CE8
Encoding: 403 7400 147
Width: 430
Flags: W
LayerCount: 2
Fore
SplineSet
-62 -95 m 1,0,-1
 8 -48 l 1,1,2
 112 -198 112 -198 176 -243 c 128,-1,3
 240 -288 240 -288 320 -288 c 0,4,5
 397 -288 397 -288 448 -246 c 128,-1,6
 499 -204 499 -204 499 -139 c 256,7,8
 499 -74 499 -74 470.5 -19.5 c 128,-1,9
 442 35 442 35 401 76.5 c 128,-1,10
 360 118 360 118 291 178 c 0,11,12
 227 233 227 233 190.5 270 c 128,-1,13
 154 307 154 307 128.5 353.5 c 128,-1,14
 103 400 103 400 103 453 c 0,15,16
 103 539 103 539 162 588.5 c 128,-1,17
 221 638 221 638 316 638 c 2,18,-1
 653 638 l 1,19,-1
 727 528 l 1,20,-1
 727 510 l 1,21,-1
 386 510 l 2,22,23
 331 510 331 510 297.5 484 c 128,-1,24
 264 458 264 458 264 408 c 0,25,26
 264 360 264 360 294.5 311.5 c 128,-1,27
 325 263 325 263 425 177 c 0,28,29
 496 115 496 115 540.5 67 c 128,-1,30
 585 19 585 19 616.5 -46 c 128,-1,31
 648 -111 648 -111 648 -191 c 0,32,33
 648 -307 648 -307 567.5 -368 c 128,-1,34
 487 -429 487 -429 358 -429 c 0,35,36
 261 -429 261 -429 183.5 -381.5 c 128,-1,37
 106 -334 106 -334 50 -263 c 128,-1,38
 -6 -192 -6 -192 -62 -95 c 1,0,-1
EndSplineSet
EndChar

StartChar: uni1CE9
Encoding: 404 7401 148
Width: 1657
Flags: W
LayerCount: 2
Fore
SplineSet
802 986 m 0,0,1
 802 879 802 879 703 806.5 c 128,-1,2
 604 734 604 734 436 709 c 1,3,-1
 383 876 l 1,4,5
 509 885 509 885 593 943.5 c 128,-1,6
 677 1002 677 1002 677 1082 c 0,7,8
 677 1173 677 1173 581 1173 c 0,9,10
 487 1173 487 1173 414.5 1099.5 c 128,-1,11
 342 1026 342 1026 302 906.5 c 128,-1,12
 262 787 262 787 262 654 c 0,13,14
 262 398 262 398 394.5 260 c 128,-1,15
 527 122 527 122 781 122 c 0,16,17
 967 122 967 122 1116 215 c 128,-1,18
 1265 308 1265 308 1348.5 458 c 128,-1,19
 1432 608 1432 608 1432 771 c 0,20,21
 1432 973 1432 973 1377.5 1060.5 c 128,-1,22
 1323 1148 1323 1148 1223 1148 c 0,23,24
 1157 1148 1157 1148 1113.5 1107 c 128,-1,25
 1070 1066 1070 1066 1070 1003 c 0,26,27
 1070 921 1070 921 1147.5 870 c 128,-1,28
 1225 819 1225 819 1350 810 c 1,29,-1
 1344 729 l 1,30,31
 1235 730 1235 730 1136 776.5 c 128,-1,32
 1037 823 1037 823 976 903 c 128,-1,33
 915 983 915 983 915 1078 c 0,34,35
 915 1174 915 1174 976.5 1229 c 128,-1,36
 1038 1284 1038 1284 1149 1284 c 0,37,38
 1335 1284 1335 1284 1446 1120.5 c 128,-1,39
 1557 957 1557 957 1557 680 c 0,40,41
 1557 367 1557 367 1363.5 178.5 c 128,-1,42
 1170 -10 1170 -10 849 -10 c 0,43,44
 641 -10 641 -10 469.5 90 c 128,-1,45
 298 190 298 190 199 363.5 c 128,-1,46
 100 537 100 537 100 748 c 0,47,48
 100 894 100 894 150.5 1016.5 c 128,-1,49
 201 1139 201 1139 296.5 1211.5 c 128,-1,50
 392 1284 392 1284 522 1284 c 0,51,52
 645 1284 645 1284 723.5 1200.5 c 128,-1,53
 802 1117 802 1117 802 986 c 0,0,1
EndSplineSet
EndChar

StartChar: uni1CEA
Encoding: 405 7402 149
Width: 1513
Flags: W
LayerCount: 2
Fore
SplineSet
166 442 m 0,0,1
 166 507 166 507 190.5 557 c 128,-1,2
 215 607 215 607 250 642.5 c 128,-1,3
 285 678 285 678 346 729 c 0,4,5
 408 779 408 779 445.5 817 c 128,-1,6
 483 855 483 855 508.5 909 c 128,-1,7
 534 963 534 963 534 1033 c 0,8,9
 534 1089 534 1089 504.5 1118.5 c 128,-1,10
 475 1148 475 1148 419 1148 c 0,11,12
 340 1148 340 1148 285 1101.5 c 128,-1,13
 230 1055 230 1055 230 990 c 0,14,15
 230 950 230 950 256 911.5 c 128,-1,16
 282 873 282 873 335 844 c 1,17,-1
 300 794 l 1,18,19
 192 841 192 841 134.5 918 c 128,-1,20
 77 995 77 995 77 1077 c 0,21,22
 77 1172 77 1172 147.5 1230 c 128,-1,23
 218 1288 218 1288 333 1288 c 0,24,25
 411 1288 411 1288 492 1235 c 128,-1,26
 573 1182 573 1182 626.5 1100 c 128,-1,27
 680 1018 680 1018 680 937 c 0,28,29
 680 870 680 870 652 813 c 128,-1,30
 624 756 624 756 584 711.5 c 128,-1,31
 544 667 544 667 478 606 c 0,32,33
 420 552 420 552 386.5 515.5 c 128,-1,34
 353 479 353 479 330.5 435.5 c 128,-1,35
 308 392 308 392 308 345 c 0,36,37
 308 126 308 126 730 126 c 0,38,39
 931 126 931 126 1038.5 201 c 128,-1,40
 1146 276 1146 276 1146 410 c 0,41,42
 1146 478 1146 478 1116 544 c 128,-1,43
 1086 610 1086 610 993 717 c 0,44,45
 944 775 944 775 914.5 815.5 c 128,-1,46
 885 856 885 856 865 906 c 128,-1,47
 845 956 845 956 845 1013 c 0,48,49
 845 1141 845 1141 931.5 1219 c 128,-1,50
 1018 1297 1018 1297 1158 1297 c 0,51,52
 1272 1297 1272 1297 1359 1213 c 128,-1,53
 1446 1129 1446 1129 1446 1017 c 0,54,55
 1446 935 1446 935 1379.5 880.5 c 128,-1,56
 1313 826 1313 826 1193 804 c 1,57,-1
 1123 957 l 1,58,59
 1207 966 1207 966 1266 1007 c 128,-1,60
 1325 1048 1325 1048 1325 1099 c 0,61,62
 1325 1129 1325 1129 1302.5 1150 c 128,-1,63
 1280 1171 1280 1171 1237 1171 c 0,64,65
 1140 1171 1140 1171 1076 1113 c 128,-1,66
 1012 1055 1012 1055 1012 967 c 0,67,68
 1012 915 1012 915 1030 869 c 128,-1,69
 1048 823 1048 823 1074 785 c 128,-1,70
 1100 747 1100 747 1147 688 c 0,71,72
 1200 623 1200 623 1232 575.5 c 128,-1,73
 1264 528 1264 528 1286.5 466 c 128,-1,74
 1309 404 1309 404 1309 330 c 0,75,76
 1309 236 1309 236 1247 158.5 c 128,-1,77
 1185 81 1185 81 1065.5 35.5 c 128,-1,78
 946 -10 946 -10 782 -10 c 0,79,80
 627 -10 627 -10 484.5 47.5 c 128,-1,81
 342 105 342 105 254 208.5 c 128,-1,82
 166 312 166 312 166 442 c 0,0,1
EndSplineSet
EndChar

StartChar: uni1CEB
Encoding: 406 7403 150
Width: 1538
Flags: W
LayerCount: 2
Fore
SplineSet
203 442 m 0,0,1
 203 507 203 507 225.5 557 c 128,-1,2
 248 607 248 607 280.5 643 c 128,-1,3
 313 679 313 679 369 729 c 0,4,5
 426 780 426 780 460 818 c 128,-1,6
 494 856 494 856 517.5 909.5 c 128,-1,7
 541 963 541 963 541 1033 c 0,8,9
 541 1089 541 1089 511.5 1118.5 c 128,-1,10
 482 1148 482 1148 426 1148 c 0,11,12
 348 1148 348 1148 293 1102 c 128,-1,13
 238 1056 238 1056 238 991 c 0,14,15
 238 904 238 904 344 844 c 1,16,-1
 305 781 l 1,17,18
 197 831 197 831 140 910.5 c 128,-1,19
 83 990 83 990 83 1072 c 0,20,21
 83 1168 83 1168 154 1228 c 128,-1,22
 225 1288 225 1288 340 1288 c 0,23,24
 418 1288 418 1288 499 1235 c 128,-1,25
 580 1182 580 1182 633.5 1100 c 128,-1,26
 687 1018 687 1018 687 937 c 0,27,28
 687 868 687 868 661 809.5 c 128,-1,29
 635 751 635 751 597.5 706 c 128,-1,30
 560 661 560 661 499 600 c 0,31,32
 445 546 445 546 415.5 511.5 c 128,-1,33
 386 477 386 477 365.5 434.5 c 128,-1,34
 345 392 345 392 345 345 c 0,35,36
 345 244 345 244 446 186 c 128,-1,37
 547 128 547 128 719 128 c 0,38,39
 888 128 888 128 1028 211 c 128,-1,40
 1168 294 1168 294 1248.5 439 c 128,-1,41
 1329 584 1329 584 1329 760 c 0,42,43
 1329 1038 1329 1038 1145 1038 c 0,44,45
 1072 1038 1072 1038 1019.5 991.5 c 128,-1,46
 967 945 967 945 967 876 c 0,47,48
 967 791 967 791 1040.5 750.5 c 128,-1,49
 1114 710 1114 710 1240 690 c 1,50,-1
 1227 616 l 1,51,52
 1039 633 1039 633 926 718 c 128,-1,53
 813 803 813 803 813 932 c 0,54,55
 813 1042 813 1042 878.5 1108 c 128,-1,56
 944 1174 944 1174 1049 1174 c 0,57,58
 1232 1174 1232 1174 1345.5 1032 c 128,-1,59
 1459 890 1459 890 1459 657 c 0,60,61
 1459 465 1459 465 1376 313 c 128,-1,62
 1293 161 1293 161 1144.5 75.5 c 128,-1,63
 996 -10 996 -10 807 -10 c 0,64,65
 641 -10 641 -10 502.5 52 c 128,-1,66
 364 114 364 114 283.5 218 c 128,-1,67
 203 322 203 322 203 442 c 0,0,1
EndSplineSet
EndChar

StartChar: uni1CEC
Encoding: 407 7404 151
Width: 1696
Flags: W
LayerCount: 2
Fore
SplineSet
1663 255 m 0,0,1
 1663 173 1663 173 1625 101.5 c 128,-1,2
 1587 30 1587 30 1526 -10 c 1,3,-1
 1376 111 l 1,4,5
 1438 144 1438 144 1474.5 198.5 c 128,-1,6
 1511 253 1511 253 1511 307 c 0,7,8
 1511 377 1511 377 1478 421 c 128,-1,9
 1445 465 1445 465 1378 498 c 1,10,11
 1323 262 1323 262 1159 125 c 128,-1,12
 995 -12 995 -12 766 -12 c 0,13,14
 611 -12 611 -12 481.5 52.5 c 128,-1,15
 352 117 352 117 277.5 221.5 c 128,-1,16
 203 326 203 326 203 442 c 0,17,18
 203 507 203 507 225.5 557 c 128,-1,19
 248 607 248 607 280.5 643 c 128,-1,20
 313 679 313 679 369 729 c 0,21,22
 426 780 426 780 460 818 c 128,-1,23
 494 856 494 856 517.5 909.5 c 128,-1,24
 541 963 541 963 541 1033 c 0,25,26
 541 1089 541 1089 511.5 1118.5 c 128,-1,27
 482 1148 482 1148 426 1148 c 0,28,29
 348 1148 348 1148 293 1102 c 128,-1,30
 238 1056 238 1056 238 991 c 0,31,32
 238 904 238 904 344 844 c 1,33,-1
 305 781 l 1,34,35
 197 831 197 831 140 910.5 c 128,-1,36
 83 990 83 990 83 1072 c 0,37,38
 83 1168 83 1168 154 1228 c 128,-1,39
 225 1288 225 1288 340 1288 c 0,40,41
 418 1288 418 1288 499 1235 c 128,-1,42
 580 1182 580 1182 633.5 1100 c 128,-1,43
 687 1018 687 1018 687 937 c 0,44,45
 687 874 687 874 661.5 818 c 128,-1,46
 636 762 636 762 600 718 c 128,-1,47
 564 674 564 674 504 612 c 0,48,49
 407 512 407 512 376 456 c 128,-1,50
 345 400 345 400 345 345 c 0,51,52
 345 248 345 248 434.5 186.5 c 128,-1,53
 524 125 524 125 664 125 c 0,54,55
 859 125 859 125 1010 240 c 128,-1,56
 1161 355 1161 355 1229 554 c 1,57,58
 1028 623 1028 623 915.5 712.5 c 128,-1,59
 803 802 803 802 803 932 c 0,60,61
 803 1042 803 1042 868.5 1108 c 128,-1,62
 934 1174 934 1174 1039 1174 c 0,63,64
 1203 1174 1203 1174 1301.5 1044 c 128,-1,65
 1400 914 1400 914 1400 702 c 0,66,67
 1400 637 1400 637 1393 584 c 1,68,69
 1530 522 1530 522 1596.5 443.5 c 128,-1,70
 1663 365 1663 365 1663 255 c 0,0,1
1252 638 m 1,71,72
 1271 721 1271 721 1271 816 c 0,73,74
 1271 1038 1271 1038 1135 1038 c 0,75,76
 1065 1038 1065 1038 1016 989 c 128,-1,77
 967 940 967 940 967 872 c 256,78,79
 967 804 967 804 1026 751 c 128,-1,80
 1085 698 1085 698 1252 638 c 1,71,72
EndSplineSet
EndChar

StartChar: uni1CED
Encoding: 408 7405 152
Width: 0
Flags: W
LayerCount: 2
Fore
SplineSet
-283 -69 m 1,0,-1
 241 -459 l 1,1,-1
 182 -522 l 1,2,-1
 -342 -132 l 1,3,-1
 -283 -69 l 1,0,-1
EndSplineSet
EndChar

StartChar: uni1CEE
Encoding: 409 7406 153
Width: 1002
Flags: W
LayerCount: 2
Fore
SplineSet
957 228 m 0,0,1
 957 155 957 155 902 101 c 128,-1,2
 847 47 847 47 763.5 18.5 c 128,-1,3
 680 -10 680 -10 599 -10 c 0,4,5
 478 -10 478 -10 371 47.5 c 128,-1,6
 264 105 264 105 199.5 202.5 c 128,-1,7
 135 300 135 300 135 413 c 0,8,9
 135 564 135 564 281 663 c 1,10,11
 115 808 115 808 115 962 c 0,12,13
 115 1108 115 1108 215 1196 c 128,-1,14
 315 1284 315 1284 475 1284 c 0,15,16
 564 1284 564 1284 657 1254 c 1,17,-1
 710 1085 l 1,18,19
 598 1123 598 1123 507 1123 c 0,20,21
 401 1123 401 1123 338 1072.5 c 128,-1,22
 275 1022 275 1022 275 917 c 0,23,24
 275 852 275 852 296.5 803 c 128,-1,25
 318 754 318 754 362 707 c 1,26,27
 492 762 492 762 643 762 c 2,28,-1
 662 762 l 1,29,-1
 721 593 l 1,30,-1
 701 593 l 2,31,32
 599 593 599 593 501.5 563.5 c 128,-1,33
 404 534 404 534 340.5 471.5 c 128,-1,34
 277 409 277 409 277 322 c 0,35,36
 277 232 277 232 337.5 180.5 c 128,-1,37
 398 129 398 129 492 129 c 256,38,39
 586 129 586 129 683 179 c 1,40,41
 668 218 668 218 668 253 c 0,42,43
 668 316 668 316 709.5 352 c 128,-1,44
 751 388 751 388 813 388 c 0,45,46
 881 388 881 388 919 346 c 128,-1,47
 957 304 957 304 957 228 c 0,0,1
1037 703 m 0,48,49
 1037 595 1037 595 937 595 c 0,50,51
 836 595 836 595 836 703 c 0,52,53
 836 812 836 812 937 812 c 0,54,55
 1037 812 1037 812 1037 703 c 0,48,49
EndSplineSet
EndChar

StartChar: uni1CEF
Encoding: 410 7407 154
Width: 943
Flags: W
LayerCount: 2
Fore
SplineSet
827 188 m 0,0,1
 827 102 827 102 752 45.5 c 128,-1,2
 677 -11 677 -11 567 -11 c 0,3,4
 468 -11 468 -11 378 36 c 128,-1,5
 288 83 288 83 232.5 167 c 128,-1,6
 177 251 177 251 177 357 c 0,7,8
 177 434 177 434 220.5 510 c 128,-1,9
 264 586 264 586 347 639 c 1,10,11
 247 693 247 693 187 776.5 c 128,-1,12
 127 860 127 860 127 954 c 0,13,14
 127 1114 127 1114 261 1206 c 128,-1,15
 395 1298 395 1298 628 1298 c 1,16,-1
 694 1296 l 1,17,-1
 768 1132 l 1,18,19
 734 1137 734 1137 684 1137 c 0,20,21
 578 1137 578 1137 477 1107.5 c 128,-1,22
 376 1078 376 1078 311 1021.5 c 128,-1,23
 246 965 246 965 246 889 c 0,24,25
 246 809 246 809 326 768.5 c 128,-1,26
 406 728 406 728 540 728 c 0,27,28
 606 728 606 728 683 741.5 c 128,-1,29
 760 755 760 755 819 779 c 1,30,-1
 864 612 l 1,31,32
 765 576 765 576 655 570 c 1,33,34
 568 559 568 559 480 520 c 128,-1,35
 392 481 392 481 334.5 422.5 c 128,-1,36
 277 364 277 364 277 297 c 0,37,38
 277 222 277 222 341 187 c 128,-1,39
 405 152 405 152 507 152 c 0,40,41
 593 152 593 152 661.5 183.5 c 128,-1,42
 730 215 730 215 730 255 c 0,43,44
 730 303 730 303 643 303 c 0,45,46
 595 303 595 303 533 287 c 1,47,-1
 488 441 l 1,48,49
 536 452 536 452 581 452 c 0,50,51
 686 452 686 452 756.5 375.5 c 128,-1,52
 827 299 827 299 827 188 c 0,0,1
704 925 m 0,53,54
 704 824 704 824 596 824 c 0,55,56
 487 824 487 824 487 925 c 0,57,58
 487 1025 487 1025 596 1025 c 0,59,60
 704 1025 704 1025 704 925 c 0,53,54
EndSplineSet
EndChar

StartChar: uni1CF0
Encoding: 411 7408 155
Width: 1098
Flags: W
LayerCount: 2
Fore
SplineSet
998 307 m 0,0,1
 998 162 998 162 884 76 c 128,-1,2
 770 -10 770 -10 577 -10 c 0,3,4
 449 -10 449 -10 334 46 c 128,-1,5
 219 102 219 102 149.5 199 c 128,-1,6
 80 296 80 296 80 411 c 0,7,8
 80 543 80 543 201 628 c 128,-1,9
 322 713 322 713 505 713 c 2,10,-1
 521 713 l 1,11,12
 509 757 509 757 480.5 792.5 c 128,-1,13
 452 828 452 828 401 877 c 0,14,15
 358 918 358 918 332 947.5 c 128,-1,16
 306 977 306 977 288.5 1015 c 128,-1,17
 271 1053 271 1053 271 1098 c 0,18,19
 271 1190 271 1190 329 1242.5 c 128,-1,20
 387 1295 387 1295 490 1295 c 0,21,22
 600 1295 600 1295 674 1228 c 128,-1,23
 748 1161 748 1161 806 1035 c 1,24,-1
 735 1004 l 1,25,26
 687 1086 687 1086 641 1119 c 128,-1,27
 595 1152 595 1152 536 1152 c 0,28,29
 484 1152 484 1152 455 1125.5 c 128,-1,30
 426 1099 426 1099 426 1049 c 0,31,32
 426 1008 426 1008 442.5 981.5 c 128,-1,33
 459 955 459 955 496 916 c 0,34,35
 542 870 542 870 569.5 825 c 128,-1,36
 597 780 597 780 606 705 c 1,37,38
 778 676 778 676 888 564.5 c 128,-1,39
 998 453 998 453 998 307 c 0,0,1
800 830 m 0,40,41
 800 939 800 939 901 939 c 0,42,43
 1001 939 1001 939 1001 830 c 0,44,45
 1001 722 1001 722 901 722 c 0,46,47
 800 722 800 722 800 830 c 0,40,41
844 394 m 0,48,49
 844 490 844 490 769.5 547.5 c 128,-1,50
 695 605 695 605 576 605 c 0,51,52
 427 605 427 605 327 523.5 c 128,-1,53
 227 442 227 442 227 320 c 0,54,55
 227 222 227 222 310 158 c 128,-1,56
 393 94 393 94 514 94 c 0,57,58
 650 94 650 94 747 182 c 128,-1,59
 844 270 844 270 844 394 c 0,48,49
EndSplineSet
EndChar

StartChar: uni1CF1
Encoding: 412 7409 156
Width: 1031
Flags: W
LayerCount: 2
Fore
SplineSet
608 639 m 2,0,1
 689 639 689 639 767.5 597 c 128,-1,2
 846 555 846 555 895.5 484.5 c 128,-1,3
 945 414 945 414 945 334 c 0,4,5
 945 223 945 223 852 126.5 c 128,-1,6
 759 30 759 30 579 -67 c 1,7,-1
 469 84 l 1,8,9
 604 136 604 136 711.5 235.5 c 128,-1,10
 819 335 819 335 819 414 c 0,11,12
 819 454 819 454 788.5 473.5 c 128,-1,13
 758 493 758 493 706 493 c 2,14,-1
 416 493 l 2,15,16
 335 493 335 493 256.5 535 c 128,-1,17
 178 577 178 577 128.5 647.5 c 128,-1,18
 79 718 79 718 79 798 c 0,19,20
 79 909 79 909 172 1005.5 c 128,-1,21
 265 1102 265 1102 445 1199 c 1,22,-1
 555 1048 l 1,23,24
 420 996 420 996 312.5 896.5 c 128,-1,25
 205 797 205 797 205 718 c 0,26,27
 205 678 205 678 235.5 658.5 c 128,-1,28
 266 639 266 639 318 639 c 2,29,-1
 608 639 l 2,0,1
605 861 m 0,30,31
 605 970 605 970 706 970 c 0,32,33
 806 970 806 970 806 861 c 0,34,35
 806 753 806 753 706 753 c 0,36,37
 605 753 605 753 605 861 c 0,30,31
231 272 m 0,38,39
 231 381 231 381 332 381 c 0,40,41
 432 381 432 381 432 272 c 0,42,43
 432 164 432 164 332 164 c 0,44,45
 231 164 231 164 231 272 c 0,38,39
EndSplineSet
EndChar

StartChar: uni1CF2
Encoding: 413 7410 157
Width: 993
Flags: W
LayerCount: 2
Fore
SplineSet
80 987 m 1,0,-1
 154 1015 l 1,1,2
 199 886 199 886 282.5 820.5 c 128,-1,3
 366 755 366 755 499 755 c 0,4,5
 616 755 616 755 695 828.5 c 128,-1,6
 774 902 774 902 800 1031 c 1,7,-1
 933 987 l 1,8,9
 899 823 899 823 785.5 726 c 128,-1,10
 672 629 672 629 512 629 c 0,11,12
 363 629 363 629 247 725 c 128,-1,13
 131 821 131 821 80 987 c 1,0,-1
923 163 m 1,14,-1
 849 135 l 1,15,16
 804 264 804 264 720 329.5 c 128,-1,17
 636 395 636 395 503 395 c 0,18,19
 386 395 386 395 307 321.5 c 128,-1,20
 228 248 228 248 202 119 c 1,21,-1
 70 165 l 1,22,23
 104 329 104 329 217 425 c 128,-1,24
 330 521 330 521 490 521 c 0,25,26
 640 521 640 521 756 425 c 128,-1,27
 872 329 872 329 923 163 c 1,14,-1
EndSplineSet
EndChar

StartChar: uni1CF3
Encoding: 414 7411 158
Width: 1111
Flags: W
LayerCount: 2
Fore
SplineSet
126 112 m 1,0,-1
 74 270 l 1,1,2
 215 299 215 299 286.5 381.5 c 128,-1,3
 358 464 358 464 358 583 c 0,4,5
 358 715 358 715 295.5 799 c 128,-1,6
 233 883 233 883 106 937 c 1,7,-1
 139 1026 l 1,8,9
 310 966 310 966 409.5 842.5 c 128,-1,10
 509 719 509 719 509 567 c 0,11,12
 509 395 509 395 407 273.5 c 128,-1,13
 305 152 305 152 126 112 c 1,0,-1
997 1016 m 1,14,-1
 1049 858 l 1,15,16
 908 829 908 829 836.5 746.5 c 128,-1,17
 765 664 765 664 765 545 c 0,18,19
 765 413 765 413 827.5 329 c 128,-1,20
 890 245 890 245 1017 191 c 1,21,-1
 984 102 l 1,22,23
 813 162 813 162 713.5 285.5 c 128,-1,24
 614 409 614 409 614 561 c 0,25,26
 614 733 614 733 716 854.5 c 128,-1,27
 818 976 818 976 997 1016 c 1,14,-1
EndSplineSet
EndChar

StartChar: uni1CF5
Encoding: 416 7413 160
Width: 1158
Flags: W
LayerCount: 2
Fore
SplineSet
83 0 m 1,0,-1
 83 54.3193359375 l 1,1,-1
 527.259765625 609.159179688 l 1,2,-1
 108.219726562 1154.29980469 l 1,3,-1
 108.219726562 1208.61914062 l 1,4,-1
 1068.52050781 1208.61914062 l 1,5,-1
 1068.52050781 1154.29980469 l 1,6,-1
 649.48046875 636.319335938 l 1,7,-1
 1093.74023438 54.3193359375 l 1,8,-1
 1093.74023438 0 l 1,9,-1
 83 0 l 1,0,-1
269.240234375 1134.89941406 m 1,10,-1
 600.98046875 700.33984375 l 1,11,-1
 948.240234375 1134.89941406 l 1,12,13
 921.081054688 1132.95898438 921.081054688 1132.95898438 889.0703125 1131.98925781 c 128,-1,14
 857.028320312 1131.01953125 857.028320312 1131.01953125 812.440429688 1131.01953125 c 2,15,-1
 403.100585938 1131.01953125 l 2,16,17
 360.452148438 1131.01953125 360.452148438 1131.01953125 328.41015625 1131.98925781 c 128,-1,18
 296.400390625 1132.95898438 296.400390625 1132.95898438 269.240234375 1134.89941406 c 1,10,-1
203.280273438 81.4794921875 m 1,19,20
 273.120117188 87.2998046875 273.120117188 87.2998046875 366.240234375 87.2998046875 c 2,21,-1
 771.700195312 87.2998046875 l 2,22,23
 862.87890625 87.2998046875 862.87890625 87.2998046875 932.719726562 81.4794921875 c 1,24,-1
 577.700195312 545.139648438 l 1,25,-1
 203.280273438 81.4794921875 l 1,19,20
EndSplineSet
EndChar

StartChar: uni1CF6
Encoding: 417 7414 161
Width: 1060
Flags: W
LayerCount: 2
Fore
SplineSet
98 661 m 0,0,1
 98 749 98 749 167 847 c 1,2,-1
 314 754 l 1,3,4
 243 657 243 657 243 585 c 0,5,6
 243 542 243 542 272 517.5 c 128,-1,7
 301 493 301 493 340 493 c 0,8,9
 402 493 402 493 443 540.5 c 128,-1,10
 484 588 484 588 484 663 c 2,11,-1
 484 781 l 1,12,-1
 626 721 l 1,13,-1
 626 611 l 2,14,15
 626 575 626 575 615 542 c 1,16,17
 662 509 662 509 726 509 c 0,18,19
 786 509 786 509 823.5 547 c 128,-1,20
 861 585 861 585 861 642 c 0,21,22
 861 720 861 720 799 792 c 1,23,-1
 861 842 l 1,24,25
 972 724 972 724 972 605 c 0,26,27
 972 510 972 510 913.5 452.5 c 128,-1,28
 855 395 855 395 757 395 c 0,29,30
 649 395 649 395 574 473 c 1,31,32
 542 437 542 437 495.5 416.5 c 128,-1,33
 449 396 449 396 396 396 c 0,34,35
 277 396 277 396 187.5 475.5 c 128,-1,36
 98 555 98 555 98 661 c 0,0,1
EndSplineSet
EndChar

StartChar: uniA830
Encoding: 418 43056 162
Width: 443
Flags: W
LayerCount: 2
Fore
SplineSet
150 83 m 1,0,-1
 150 1274 l 1,1,-1
 169 1274 l 1,2,-1
 293 1181 l 1,3,-1
 293 -10 l 1,4,-1
 274 -10 l 1,5,-1
 150 83 l 1,0,-1
EndSplineSet
EndChar

StartChar: uniA833
Encoding: 421 43059 165
Width: 1278
Flags: W
LayerCount: 2
Fore
SplineSet
205 892 m 1,0,-1
 75 1022 l 1,1,-1
 1073 1274 l 1,2,-1
 1203 1144 l 1,3,-1
 205 892 l 1,0,-1
EndSplineSet
EndChar

StartChar: uniA836
Encoding: 424 43062 168
Width: 892
Flags: W
LayerCount: 2
Fore
SplineSet
130 647 m 4,0,1
 130 783 130 783 220 873 c 132,-1,2
 310 963 310 963 446 963 c 4,3,4
 523 963 523 963 596.5 915.5 c 132,-1,5
 670 868 670 868 716 794 c 132,-1,6
 762 720 762 720 762 647 c 4,7,8
 762 511 762 511 672 421 c 132,-1,9
 582 331 582 331 446 331 c 4,10,11
 372 331 372 331 298 379 c 132,-1,12
 224 427 224 427 177 501 c 132,-1,13
 130 575 130 575 130 647 c 4,0,1
642 724 m 4,14,15
 642 776 642 776 608.5 806.5 c 132,-1,16
 575 837 575 837 525 837 c 4,17,18
 428 837 428 837 339 753.5 c 132,-1,19
 250 670 250 670 250 577 c 4,20,21
 250 521 250 521 286.5 488 c 132,-1,22
 323 455 323 455 374 455 c 4,23,24
 470 455 470 455 556 542 c 132,-1,25
 642 629 642 629 642 724 c 4,14,15
EndSplineSet
EndChar

StartChar: uniA837
Encoding: 425 43063 169
Width: 1042
Flags: W
LayerCount: 2
Fore
SplineSet
885 1274 m 1,0,-1
 995 1169 l 1,1,-1
 789 1001 l 2,2,3
 660 896 660 896 507 786 c 1,4,5
 620 765 620 765 691 684 c 128,-1,6
 762 603 762 603 762 497 c 0,7,8
 762 361 762 361 672 271 c 128,-1,9
 582 181 582 181 446 181 c 0,10,11
 331 181 331 181 230.5 285 c 128,-1,12
 130 389 130 389 130 510 c 0,13,14
 130 590 130 590 166 650 c 128,-1,15
 202 710 202 710 281 775 c 2,16,-1
 885 1274 l 1,0,-1
642 574 m 0,17,18
 642 626 642 626 608.5 656.5 c 128,-1,19
 575 687 575 687 525 687 c 0,20,21
 420 687 420 687 335 607 c 128,-1,22
 250 527 250 527 250 427 c 0,23,24
 250 371 250 371 286.5 338 c 128,-1,25
 323 305 323 305 374 305 c 0,26,27
 477 305 477 305 559.5 388.5 c 128,-1,28
 642 472 642 472 642 574 c 0,17,18
EndSplineSet
EndChar

StartChar: uniA838
Encoding: 426 43064 170
Width: 628
Flags: W
LayerCount: 2
Fore
SplineSet
-123 -383 m 0,0,1
 -213 -383 -213 -383 -313 -362 c 1,2,-1
 -280 -192 l 1,3,4
 -152 -222 -152 -222 -46 -222 c 0,5,6
 399 -222 399 -222 399 308 c 0,7,8
 399 501 399 501 340 740 c 128,-1,9
 281 979 281 979 173 1235 c 1,10,-1
 334 1296 l 1,11,12
 505 835 505 835 505 441 c 0,13,14
 505 53 505 53 338.5 -165 c 128,-1,15
 172 -383 172 -383 -123 -383 c 0,0,1
EndSplineSet
EndChar

StartChar: uniA839
Encoding: 427 43065 171
Width: 691
Flags: W
LayerCount: 2
Fore
SplineSet
-170 -497 m 0,0,1
 -259 -497 -259 -497 -347 -484 c 1,2,-1
 -317 -302 l 1,3,4
 -213 -325 -213 -325 -115 -325 c 0,5,6
 30 -325 30 -325 148.5 -277.5 c 128,-1,7
 267 -230 267 -230 337 -136 c 128,-1,8
 407 -42 407 -42 407 92 c 0,9,10
 407 183 407 183 378 269 c 128,-1,11
 349 355 349 355 292 480 c 0,12,13
 219 638 219 638 196 721.5 c 128,-1,14
 173 805 173 805 173 883 c 0,15,16
 173 1045 173 1045 288 1153 c 128,-1,17
 403 1261 403 1261 642 1297 c 1,18,-1
 691 1125 l 1,19,20
 499 1106 499 1106 388.5 1041.5 c 128,-1,21
 278 977 278 977 278 838 c 0,22,23
 278 765 278 765 304 688.5 c 128,-1,24
 330 612 330 612 384 489 c 0,25,26
 458 321 458 321 482.5 230 c 128,-1,27
 507 139 507 139 507 61 c 0,28,29
 507 -115 507 -115 419.5 -241 c 128,-1,30
 332 -367 332 -367 178.5 -432 c 128,-1,31
 25 -497 25 -497 -170 -497 c 0,0,1
EndSplineSet
EndChar

StartChar: uniA8E0
Encoding: 428 43232 172
Width: 0
Flags: W
LayerCount: 2
Fore
SplineSet
-464 1799 m 0,0,1
 -464 1887 -464 1887 -405.5 1946 c 128,-1,2
 -347 2005 -347 2005 -258 2005 c 0,3,4
 -184 2005 -184 2005 -118.5 1938.5 c 128,-1,5
 -53 1872 -53 1872 -53 1799 c 0,6,7
 -53 1712 -53 1712 -112 1653 c 128,-1,8
 -171 1594 -171 1594 -258 1594 c 0,9,10
 -331 1594 -331 1594 -397.5 1661.5 c 128,-1,11
 -464 1729 -464 1729 -464 1799 c 0,0,1
-125 1831 m 0,12,13
 -125 1877 -125 1877 -153 1902.5 c 128,-1,14
 -181 1928 -181 1928 -226 1928 c 0,15,16
 -288 1928 -288 1928 -339.5 1879 c 128,-1,17
 -391 1830 -391 1830 -391 1771 c 0,18,19
 -391 1722 -391 1722 -362 1695 c 128,-1,20
 -333 1668 -333 1668 -290 1668 c 0,21,22
 -231 1668 -231 1668 -178 1720 c 128,-1,23
 -125 1772 -125 1772 -125 1831 c 0,12,13
EndSplineSet
EndChar

StartChar: uniA8E1
Encoding: 429 43233 173
Width: 0
Flags: W
LayerCount: 2
Fore
SplineSet
-136 1486 m 0,0,1
 -136 1440 -136 1440 -177 1395 c 1,2,-1
 -253 1450 l 1,3,4
 -228 1481 -228 1481 -228 1501 c 0,5,6
 -228 1535 -228 1535 -263.5 1574 c 128,-1,7
 -299 1613 -299 1613 -360 1664 c 2,8,-1
 -401 1699 l 1,9,-1
 -290 1787 l 1,10,11
 -411 1876 -411 1876 -411 1976 c 0,12,13
 -411 2031 -411 2031 -372 2068 c 128,-1,14
 -333 2105 -333 2105 -272 2105 c 0,15,16
 -226 2105 -226 2105 -188.5 2079.5 c 128,-1,17
 -151 2054 -151 2054 -121 2012 c 128,-1,18
 -91 1970 -91 1970 -91 1918 c 0,19,20
 -91 1860 -91 1860 -149.5 1796.5 c 128,-1,21
 -208 1733 -208 1733 -290 1670 c 1,22,23
 -245 1638 -245 1638 -216 1614.5 c 128,-1,24
 -187 1591 -187 1591 -161.5 1556.5 c 128,-1,25
 -136 1522 -136 1522 -136 1486 c 0,0,1
-252 1820 m 1,26,27
 -166 1899 -166 1899 -166 1956 c 0,28,29
 -166 1988 -166 1988 -186 2008 c 128,-1,30
 -206 2028 -206 2028 -240 2028 c 0,31,32
 -281 2028 -281 2028 -305.5 2001.5 c 128,-1,33
 -330 1975 -330 1975 -330 1936 c 0,34,35
 -330 1904 -330 1904 -309.5 1873 c 128,-1,36
 -289 1842 -289 1842 -252 1820 c 1,26,27
EndSplineSet
EndChar

StartChar: uniA8E2
Encoding: 430 43234 174
Width: 0
Flags: W
LayerCount: 2
Fore
SplineSet
-235 1699 m 1,0,-1
 -226 1684 l 2,1,2
 -171 1587 -171 1587 -115 1479 c 1,3,-1
 -203 1451 l 1,4,-1
 -290 1688 l 1,5,-1
 -323 1686 l 2,6,7
 -361 1686 -361 1686 -390.5 1708.5 c 128,-1,8
 -420 1731 -420 1731 -420 1770 c 0,9,10
 -420 1793 -420 1793 -402 1810 c 128,-1,11
 -384 1827 -384 1827 -351 1827 c 0,12,13
 -313 1827 -313 1827 -282 1785 c 1,14,15
 -216 1807 -216 1807 -175 1845.5 c 128,-1,16
 -134 1884 -134 1884 -134 1933 c 0,17,18
 -134 1972 -134 1972 -162.5 1997 c 128,-1,19
 -191 2022 -191 2022 -238 2022 c 0,20,21
 -296 2022 -296 2022 -355 1978 c 1,22,-1
 -409 2054 l 1,23,24
 -342 2105 -342 2105 -268 2105 c 0,25,26
 -195 2105 -195 2105 -127 2031 c 128,-1,27
 -59 1957 -59 1957 -59 1876 c 0,28,29
 -59 1816 -59 1816 -109.5 1768 c 128,-1,30
 -160 1720 -160 1720 -235 1699 c 1,0,-1
EndSplineSet
EndChar

StartChar: uniA8E3
Encoding: 431 43235 175
Width: 0
Flags: W
LayerCount: 2
Fore
SplineSet
-221 1520 m 1,0,1
 -188 1473 -188 1473 -146 1398 c 1,2,-1
 -233 1371 l 1,3,-1
 -278 1519 l 1,4,5
 -333 1524 -333 1524 -377.5 1549 c 128,-1,6
 -422 1574 -422 1574 -422 1621 c 0,7,8
 -422 1643 -422 1643 -405 1658.5 c 128,-1,9
 -388 1674 -388 1674 -362 1674 c 0,10,11
 -310 1674 -310 1674 -267 1600 c 1,12,13
 -202 1602 -202 1602 -169.5 1630.5 c 128,-1,14
 -137 1659 -137 1659 -137 1703 c 0,15,16
 -137 1760 -137 1760 -191 1804 c 1,17,18
 -240 1785 -240 1785 -309 1772 c 1,19,-1
 -368 1853 l 1,20,21
 -274 1871 -274 1871 -213.5 1895.5 c 128,-1,22
 -153 1920 -153 1920 -153 1960 c 0,23,24
 -153 1990 -153 1990 -173.5 2006.5 c 128,-1,25
 -194 2023 -194 2023 -228 2023 c 0,26,27
 -299 2023 -299 2023 -356 1985 c 1,28,-1
 -410 2062 l 1,29,30
 -342 2106 -342 2106 -265 2106 c 0,31,32
 -196 2106 -196 2106 -135 2042.5 c 128,-1,33
 -74 1979 -74 1979 -74 1921 c 0,34,35
 -74 1867 -74 1867 -142 1827 c 1,36,37
 -49 1756 -49 1756 -49 1674 c 0,38,39
 -49 1610 -49 1610 -99 1570 c 128,-1,40
 -149 1530 -149 1530 -221 1520 c 1,0,1
EndSplineSet
EndChar

StartChar: uniA8E4
Encoding: 432 43236 176
Width: 0
Flags: W
LayerCount: 2
Fore
SplineSet
-83 1614 m 0,0,1
 -83 1560 -83 1560 -123 1524 c 128,-1,2
 -163 1488 -163 1488 -219 1488 c 0,3,4
 -290 1488 -290 1488 -348.5 1521 c 128,-1,5
 -407 1554 -407 1554 -432.5 1589.5 c 128,-1,6
 -458 1625 -458 1625 -458 1673 c 0,7,8
 -458 1749 -458 1749 -368 1821 c 1,9,10
 -431 1858 -431 1858 -466 1894.5 c 128,-1,11
 -501 1931 -501 1931 -501 1977 c 0,12,13
 -501 2033 -501 2033 -459 2069 c 128,-1,14
 -417 2105 -417 2105 -375 2119 c 1,15,-1
 -313 2053 l 1,16,17
 -412 2006 -412 2006 -412 1950 c 0,18,19
 -412 1924 -412 1924 -390 1901.5 c 128,-1,20
 -368 1879 -368 1879 -325 1853 c 1,21,-1
 -259 1896 l 2,22,23
 -189 1941 -189 1941 -156 1969.5 c 128,-1,24
 -123 1998 -123 1998 -123 2028 c 0,25,26
 -123 2044 -123 2044 -129.5 2060 c 128,-1,27
 -136 2076 -136 2076 -143 2084 c 1,28,-1
 -111 2112 l 1,29,30
 -41 2070 -41 2070 -41 2004 c 0,31,32
 -41 1966 -41 1966 -74 1928 c 128,-1,33
 -107 1890 -107 1890 -201 1833 c 2,34,-1
 -242 1807 l 1,35,36
 -167 1764 -167 1764 -125 1720 c 128,-1,37
 -83 1676 -83 1676 -83 1614 c 0,0,1
-167 1649 m 0,38,39
 -167 1685 -167 1685 -197.5 1714 c 128,-1,40
 -228 1743 -228 1743 -287 1776 c 1,41,42
 -369 1713 -369 1713 -369 1650 c 0,43,44
 -369 1610 -369 1610 -340.5 1584.5 c 128,-1,45
 -312 1559 -312 1559 -274 1559 c 0,46,47
 -233 1559 -233 1559 -200 1584 c 128,-1,48
 -167 1609 -167 1609 -167 1649 c 0,38,39
EndSplineSet
EndChar

StartChar: uniA8E5
Encoding: 433 43237 177
Width: 0
Flags: W
LayerCount: 2
Fore
SplineSet
-96 1426 m 1,0,1
 -114 1457 -114 1457 -149 1538 c 128,-1,2
 -184 1619 -184 1619 -201 1670 c 1,3,4
 -241 1650 -241 1650 -287 1650 c 0,5,6
 -350 1650 -350 1650 -397.5 1683 c 128,-1,7
 -445 1716 -445 1716 -478 1767.5 c 128,-1,8
 -511 1819 -511 1819 -511 1880 c 0,9,10
 -511 1929 -511 1929 -484.5 1991.5 c 128,-1,11
 -458 2054 -458 2054 -404 2117 c 1,12,-1
 -323 2071 l 1,13,14
 -429 1949 -429 1949 -429 1829 c 0,15,16
 -429 1780 -429 1780 -397.5 1749 c 128,-1,17
 -366 1718 -366 1718 -324 1718 c 0,18,19
 -266 1718 -266 1718 -234 1756 c 1,20,21
 -251 1785 -251 1785 -251 1816 c 0,22,23
 -251 1852 -251 1852 -232 1869.5 c 128,-1,24
 -213 1887 -213 1887 -187 1887 c 0,25,26
 -156 1887 -156 1887 -136 1863 c 128,-1,27
 -116 1839 -116 1839 -116 1802 c 0,28,29
 -116 1743 -116 1743 -159 1700 c 1,30,31
 -94 1576 -94 1576 -15 1470 c 1,32,-1
 -96 1426 l 1,0,1
EndSplineSet
EndChar

StartChar: uniA8E6
Encoding: 434 43238 178
Width: 0
Flags: W
LayerCount: 2
Fore
SplineSet
-20 1416 m 1,0,-1
 -97 1372 l 1,1,2
 -112 1398 -112 1398 -134.5 1455 c 128,-1,3
 -157 1512 -157 1512 -164 1542 c 1,4,5
 -197 1531 -197 1531 -228 1531 c 0,6,7
 -285 1531 -285 1531 -330.5 1556 c 128,-1,8
 -376 1581 -376 1581 -415 1628 c 128,-1,9
 -454 1675 -454 1675 -454 1727 c 0,10,11
 -454 1799 -454 1799 -387 1843 c 1,12,13
 -461 1900 -461 1900 -461 1973 c 0,14,15
 -461 2032 -461 2032 -417.5 2068.5 c 128,-1,16
 -374 2105 -374 2105 -296 2105 c 0,17,18
 -241 2105 -241 2105 -190 2093 c 1,19,-1
 -158 2008 l 1,20,21
 -224 2022 -224 2022 -286 2022 c 0,22,23
 -328 2022 -328 2022 -354.5 2001.5 c 128,-1,24
 -381 1981 -381 1981 -381 1943 c 0,25,26
 -381 1904 -381 1904 -343 1866 c 1,27,28
 -292 1886 -292 1886 -217 1888 c 1,29,-1
 -187 1806 l 1,30,31
 -269 1804 -269 1804 -321.5 1772 c 128,-1,32
 -374 1740 -374 1740 -374 1690 c 0,33,34
 -374 1647 -374 1647 -346 1624 c 128,-1,35
 -318 1601 -318 1601 -279 1601 c 0,36,37
 -222 1601 -222 1601 -186 1628 c 1,38,39
 -192 1646 -192 1646 -192 1662 c 0,40,41
 -192 1697 -192 1697 -174 1714 c 128,-1,42
 -156 1731 -156 1731 -130 1731 c 0,43,44
 -99 1731 -99 1731 -74 1706.5 c 128,-1,45
 -49 1682 -49 1682 -49 1646 c 0,46,47
 -49 1588 -49 1588 -120 1555 c 1,48,49
 -74 1477 -74 1477 -20 1416 c 1,0,-1
EndSplineSet
EndChar

StartChar: uniA8E7
Encoding: 435 43239 179
Width: 0
Flags: W
LayerCount: 2
Fore
SplineSet
-31 1772 m 0,0,1
 -31 1681 -31 1681 -61.5 1620.5 c 128,-1,2
 -92 1560 -92 1560 -137.5 1531 c 128,-1,3
 -183 1502 -183 1502 -230 1502 c 0,4,5
 -384 1502 -384 1502 -466 1660 c 128,-1,6
 -548 1818 -548 1818 -548 2109 c 1,7,-1
 -498 2119 l 1,8,9
 -481 1835 -481 1835 -416 1708.5 c 128,-1,10
 -351 1582 -351 1582 -256 1582 c 0,11,12
 -211 1582 -211 1582 -174.5 1621 c 128,-1,13
 -138 1660 -138 1660 -124 1730 c 1,14,15
 -179 1732 -179 1732 -238 1756 c 128,-1,16
 -297 1780 -297 1780 -336.5 1827 c 128,-1,17
 -376 1874 -376 1874 -376 1939 c 0,18,19
 -376 1997 -376 1997 -343 2029.5 c 128,-1,20
 -310 2062 -310 2062 -255 2062 c 0,21,22
 -163 2062 -163 2062 -97 1974.5 c 128,-1,23
 -31 1887 -31 1887 -31 1772 c 0,0,1
-119 1776 m 1,24,-1
 -118 1803 l 2,25,26
 -118 1896 -118 1896 -145.5 1945 c 128,-1,27
 -173 1994 -173 1994 -223 1994 c 0,28,29
 -251 1994 -251 1994 -269.5 1973 c 128,-1,30
 -288 1952 -288 1952 -288 1920 c 0,31,32
 -288 1863 -288 1863 -240.5 1823.5 c 128,-1,33
 -193 1784 -193 1784 -119 1776 c 1,24,-1
EndSplineSet
EndChar

StartChar: uniA8E8
Encoding: 436 43240 180
Width: 0
Flags: W
LayerCount: 2
Fore
SplineSet
-474 1717 m 0,0,1
 -474 1758 -474 1758 -446.5 1801.5 c 128,-1,2
 -419 1845 -419 1845 -369.5 1894.5 c 128,-1,3
 -320 1944 -320 1944 -216 2038 c 2,4,-1
 -143 2105 l 1,5,-1
 -77 2042 l 1,6,7
 -273 1863 -273 1863 -313 1819 c 128,-1,8
 -353 1775 -353 1775 -370 1741.5 c 128,-1,9
 -387 1708 -387 1708 -387 1676 c 0,10,11
 -387 1622 -387 1622 -353.5 1595 c 128,-1,12
 -320 1568 -320 1568 -271 1568 c 0,13,14
 -219 1568 -219 1568 -169.5 1602 c 128,-1,15
 -120 1636 -120 1636 -83 1682 c 1,16,-1
 -14 1619 l 2,17,18
 -14 1615 -14 1615 -47 1580.5 c 128,-1,19
 -80 1546 -80 1546 -130 1517 c 128,-1,20
 -180 1488 -180 1488 -240 1488 c 0,21,22
 -301 1488 -301 1488 -357 1530 c 128,-1,23
 -413 1572 -413 1572 -443.5 1619 c 128,-1,24
 -474 1666 -474 1666 -474 1717 c 0,0,1
EndSplineSet
EndChar

StartChar: uniA8E9
Encoding: 437 43241 181
Width: 0
Flags: W
LayerCount: 2
Fore
SplineSet
-84 1543 m 0,0,1
 -84 1491 -84 1491 -150 1434 c 1,2,-1
 -228 1486 l 1,3,4
 -181 1529 -181 1529 -181 1562 c 0,5,6
 -181 1592 -181 1592 -204 1621 c 128,-1,7
 -227 1650 -227 1650 -280 1699 c 0,8,9
 -372 1781 -372 1781 -401 1832 c 128,-1,10
 -430 1883 -430 1883 -430 1942 c 0,11,12
 -430 2009 -430 2009 -383 2057 c 128,-1,13
 -336 2105 -336 2105 -268 2105 c 0,14,15
 -189 2105 -189 2105 -133.5 2049.5 c 128,-1,16
 -78 1994 -78 1994 -78 1928 c 0,17,18
 -78 1864 -78 1864 -134.5 1823.5 c 128,-1,19
 -191 1783 -191 1783 -271 1771 c 1,20,-1
 -238 1742 l 2,21,22
 -143 1661 -143 1661 -113.5 1624.5 c 128,-1,23
 -84 1588 -84 1588 -84 1543 c 0,0,1
-340 1911 m 0,24,25
 -340 1872 -340 1872 -323 1838 c 1,26,27
 -250 1846 -250 1846 -202.5 1880 c 128,-1,28
 -155 1914 -155 1914 -155 1960 c 0,29,30
 -155 1995 -155 1995 -177.5 2016.5 c 128,-1,31
 -200 2038 -200 2038 -233 2038 c 0,32,33
 -280 2038 -280 2038 -310 2001 c 128,-1,34
 -340 1964 -340 1964 -340 1911 c 0,24,25
EndSplineSet
EndChar

StartChar: uniA8EA
Encoding: 438 43242 182
Width: 0
Flags: W
LayerCount: 2
Fore
SplineSet
87 2030 m 1,0,-1
 -35 2030 l 1,1,-1
 -35 1458 l 1,2,-1
 -45 1458 l 1,3,-1
 -110 1508 l 1,4,-1
 -110 1755 l 1,5,6
 -137 1745 -137 1745 -168 1745 c 0,7,8
 -226 1745 -226 1745 -285 1786 c 1,9,10
 -250 1738 -250 1738 -250 1678 c 0,11,12
 -250 1619 -250 1619 -289.5 1585 c 128,-1,13
 -329 1551 -329 1551 -390 1551 c 0,14,15
 -470 1551 -470 1551 -531.5 1616.5 c 128,-1,16
 -593 1682 -593 1682 -631 1785 c 1,17,-1
 -588 1802 l 1,18,19
 -519 1628 -519 1628 -405 1628 c 0,20,21
 -368 1628 -368 1628 -343.5 1650.5 c 128,-1,22
 -319 1673 -319 1673 -319 1705 c 0,23,24
 -319 1774 -319 1774 -367 1818 c 1,25,26
 -392 1807 -392 1807 -433 1796 c 1,27,-1
 -468 1869 l 1,28,29
 -385 1891 -385 1891 -347.5 1914.5 c 128,-1,30
 -310 1938 -310 1938 -310 1973 c 0,31,32
 -310 2000 -310 2000 -329.5 2016 c 128,-1,33
 -349 2032 -349 2032 -379 2032 c 0,34,35
 -429 2032 -429 2032 -504 1998 c 1,36,-1
 -542 2074 l 1,37,38
 -476 2105 -476 2105 -414 2105 c 0,39,40
 -349 2105 -349 2105 -301 2055.5 c 128,-1,41
 -253 2006 -253 2006 -253 1944 c 0,42,43
 -253 1875 -253 1875 -326 1837 c 1,44,45
 -269 1812 -269 1812 -216 1812 c 0,46,47
 -153 1812 -153 1812 -110 1844 c 1,48,-1
 -110 2030 l 1,49,-1
 -192 2030 l 1,50,-1
 -234 2090 l 1,51,-1
 -234 2100 l 1,52,-1
 45 2100 l 1,53,-1
 87 2040 l 1,54,-1
 87 2030 l 1,0,-1
EndSplineSet
EndChar

StartChar: uniA8EB
Encoding: 439 43243 183
Width: 0
Flags: W
LayerCount: 2
Fore
SplineSet
26 2030 m 1,0,-1
 -130 2030 l 1,1,2
 -90 1981 -90 1981 -90 1917 c 0,3,4
 -90 1846 -90 1846 -154 1801 c 1,5,6
 -111 1764 -111 1764 -86.5 1717.5 c 128,-1,7
 -62 1671 -62 1671 -62 1627 c 0,8,9
 -62 1556 -62 1556 -106.5 1517 c 128,-1,10
 -151 1478 -151 1478 -219 1478 c 0,11,12
 -292 1478 -292 1478 -362.5 1541 c 128,-1,13
 -433 1604 -433 1604 -491 1745 c 1,14,-1
 -447 1763 l 1,15,16
 -357 1561 -357 1561 -238 1561 c 0,17,18
 -188 1561 -188 1561 -162 1587.5 c 128,-1,19
 -136 1614 -136 1614 -136 1654 c 0,20,21
 -136 1725 -136 1725 -192 1779 c 1,22,23
 -230 1761 -230 1761 -283 1749 c 1,24,-1
 -325 1827 l 1,25,26
 -154 1862 -154 1862 -154 1949 c 0,27,28
 -154 1997 -154 1997 -183 2030 c 1,29,-1
 -508 2030 l 1,30,-1
 -550 2090 l 1,31,-1
 -550 2100 l 1,32,-1
 -16 2100 l 1,33,-1
 26 2040 l 1,34,-1
 26 2030 l 1,0,-1
EndSplineSet
EndChar

StartChar: uniA8EC
Encoding: 440 43244 184
Width: 0
Flags: W
LayerCount: 2
Fore
SplineSet
-229 2030 m 1,0,-1
 -229 1835 l 1,1,2
 -177 1879 -177 1879 -125 1879 c 0,3,4
 -63 1879 -63 1879 -17 1833 c 128,-1,5
 29 1787 29 1787 31 1706 c 0,6,7
 31 1666 31 1666 11 1621.5 c 128,-1,8
 -9 1577 -9 1577 -38 1543 c 1,9,-1
 -108 1592 l 1,10,11
 -32 1685 -32 1685 -32 1753 c 0,12,13
 -32 1780 -32 1780 -47 1797.5 c 128,-1,14
 -62 1815 -62 1815 -87 1815 c 0,15,16
 -146 1815 -146 1815 -229 1724 c 1,17,-1
 -229 1458 l 1,18,-1
 -238 1458 l 1,19,-1
 -304 1508 l 1,20,-1
 -304 1643 l 1,21,22
 -355 1594 -355 1594 -420 1594 c 0,23,24
 -495 1594 -495 1594 -555 1651 c 128,-1,25
 -615 1708 -615 1708 -615 1778 c 0,26,27
 -615 1840 -615 1840 -569 1882 c 128,-1,28
 -523 1924 -523 1924 -457 1924 c 0,29,30
 -372 1924 -372 1924 -304 1870 c 1,31,-1
 -304 2030 l 1,32,-1
 -656 2030 l 1,33,-1
 -698 2090 l 1,34,-1
 -698 2100 l 1,35,-1
 62 2100 l 1,36,-1
 104 2040 l 1,37,-1
 104 2030 l 1,38,-1
 -229 2030 l 1,0,-1
-304 1750 m 1,39,-1
 -304 1821 l 1,40,41
 -359 1855 -359 1855 -417 1855 c 0,42,43
 -472 1855 -472 1855 -509 1821.5 c 128,-1,44
 -546 1788 -546 1788 -546 1741 c 0,45,46
 -546 1709 -546 1709 -523 1686 c 128,-1,47
 -500 1663 -500 1663 -458 1663 c 0,48,49
 -372 1663 -372 1663 -304 1750 c 1,39,-1
EndSplineSet
EndChar

StartChar: uniA8ED
Encoding: 441 43245 185
Width: 0
Flags: W
LayerCount: 2
Fore
SplineSet
-4 2030 m 1,0,-1
 -126 2030 l 1,1,-1
 -126 1458 l 1,2,-1
 -135 1458 l 1,3,-1
 -201 1508 l 1,4,-1
 -201 1762 l 1,5,-1
 -341 1766 l 1,6,-1
 -376 1766 l 1,7,8
 -371 1731 -371 1731 -371 1706 c 0,9,10
 -371 1656 -371 1656 -419 1656 c 0,11,12
 -462 1656 -462 1656 -499 1695 c 128,-1,13
 -536 1734 -536 1734 -536 1775 c 0,14,15
 -536 1805 -536 1805 -515 1824 c 128,-1,16
 -494 1843 -494 1843 -450 1843 c 0,17,18
 -381 1843 -381 1843 -307.5 1836 c 128,-1,19
 -234 1829 -234 1829 -201 1823 c 1,20,-1
 -201 2030 l 1,21,-1
 -562 2030 l 1,22,-1
 -604 2090 l 1,23,-1
 -604 2100 l 1,24,-1
 -46 2100 l 1,25,-1
 -4 2040 l 1,26,-1
 -4 2030 l 1,0,-1
EndSplineSet
EndChar

StartChar: uniA8EE
Encoding: 442 43246 186
Width: 0
Flags: W
LayerCount: 2
Fore
SplineSet
24 2030 m 1,0,-1
 -97 2030 l 1,1,-1
 -97 1458 l 1,2,-1
 -107 1458 l 1,3,-1
 -172 1508 l 1,4,-1
 -172 1665 l 1,5,6
 -222 1627 -222 1627 -274 1627 c 0,7,8
 -309 1627 -309 1627 -342 1643 c 128,-1,9
 -375 1659 -375 1659 -409 1694 c 128,-1,10
 -443 1729 -443 1729 -454 1761.5 c 128,-1,11
 -465 1794 -465 1794 -465 1860 c 2,12,-1
 -465 2030 l 1,13,-1
 -547 2030 l 1,14,-1
 -589 2090 l 1,15,-1
 -589 2100 l 1,16,-1
 -18 2100 l 1,17,-1
 24 2040 l 1,18,-1
 24 2030 l 1,0,-1
-172 2030 m 1,19,-1
 -388 2030 l 1,20,-1
 -388 1788 l 2,21,22
 -388 1698 -388 1698 -312 1698 c 0,23,24
 -278 1698 -278 1698 -240 1717 c 128,-1,25
 -202 1736 -202 1736 -172 1769 c 1,26,-1
 -172 2030 l 1,19,-1
EndSplineSet
EndChar

StartChar: uniA8EF
Encoding: 443 43247 187
Width: 0
Flags: W
LayerCount: 2
Fore
SplineSet
-42 2030 m 1,0,-1
 -175 2030 l 1,1,2
 -144 1965 -144 1965 -144 1900 c 0,3,4
 -144 1838 -144 1838 -190 1782 c 128,-1,5
 -236 1726 -236 1726 -314 1691 c 1,6,7
 -253 1600 -253 1600 -111 1512 c 1,8,-1
 -171 1453 l 1,9,10
 -270 1538 -270 1538 -341 1640 c 128,-1,11
 -412 1742 -412 1742 -412 1799 c 0,12,13
 -412 1828 -412 1828 -396 1844.5 c 128,-1,14
 -380 1861 -380 1861 -355 1861 c 0,15,16
 -333 1861 -333 1861 -318 1851.5 c 128,-1,17
 -303 1842 -303 1842 -283 1821 c 1,18,19
 -248 1838 -248 1838 -229.5 1869.5 c 128,-1,20
 -211 1901 -211 1901 -211 1937 c 0,21,22
 -211 1990 -211 1990 -231 2030 c 1,23,-1
 -456 2030 l 1,24,-1
 -498 2090 l 1,25,-1
 -498 2100 l 1,26,-1
 -84 2100 l 1,27,-1
 -42 2040 l 1,28,-1
 -42 2030 l 1,0,-1
EndSplineSet
EndChar

StartChar: uniA8F0
Encoding: 444 43248 188
Width: 0
Flags: W
LayerCount: 2
Fore
SplineSet
46 1898 m 1,0,-1
 -39 1898 l 1,1,-1
 -39 1498 l 1,2,-1
 -46 1498 l 1,3,-1
 -92 1533 l 1,4,-1
 -92 1616 l 1,5,6
 -126 1586 -126 1586 -169 1586 c 0,7,8
 -201 1586 -201 1586 -223 1597.5 c 128,-1,9
 -245 1609 -245 1609 -268 1631 c 0,10,11
 -309 1670 -309 1670 -309 1722 c 0,12,13
 -309 1768 -309 1768 -276 1796.5 c 128,-1,14
 -243 1825 -243 1825 -199 1825 c 0,15,16
 -141 1825 -141 1825 -92 1788 c 1,17,-1
 -92 1898 l 1,18,-1
 -382 1898 l 1,19,-1
 -382 1498 l 1,20,-1
 -389 1498 l 1,21,-1
 -435 1533 l 1,22,-1
 -435 1898 l 1,23,-1
 -498 1898 l 1,24,-1
 -527 1940 l 1,25,-1
 -527 1947 l 1,26,-1
 -423 1947 l 1,27,28
 -440 1966 -440 1966 -450.5 1990.5 c 128,-1,29
 -461 2015 -461 2015 -461 2039 c 0,30,31
 -461 2087 -461 2087 -424.5 2115 c 128,-1,32
 -388 2143 -388 2143 -335 2143 c 0,33,34
 -245 2143 -245 2143 -171 2083.5 c 128,-1,35
 -97 2024 -97 2024 -50 1947 c 1,36,-1
 17 1947 l 1,37,-1
 46 1905 l 1,38,-1
 46 1898 l 1,0,-1
-87 1947 m 1,39,40
 -130 2011 -130 2011 -188.5 2051.5 c 128,-1,41
 -247 2092 -247 2092 -313 2092 c 0,42,43
 -357 2092 -357 2092 -384 2068.5 c 128,-1,44
 -411 2045 -411 2045 -411 2006 c 0,45,46
 -411 1977 -411 1977 -395 1947 c 1,47,-1
 -87 1947 l 1,39,40
-92 1693 m 1,48,-1
 -92 1751 l 1,49,50
 -112 1764 -112 1764 -130.5 1769.5 c 128,-1,51
 -149 1775 -149 1775 -171 1775 c 0,52,53
 -212 1775 -212 1775 -236.5 1750.5 c 128,-1,54
 -261 1726 -261 1726 -261 1696 c 0,55,56
 -261 1672 -261 1672 -243.5 1653.5 c 128,-1,57
 -226 1635 -226 1635 -195 1635 c 0,58,59
 -167 1635 -167 1635 -140.5 1650.5 c 128,-1,60
 -114 1666 -114 1666 -92 1693 c 1,48,-1
EndSplineSet
EndChar

StartChar: uniA8F1
Encoding: 445 43249 189
Width: 0
Flags: W
LayerCount: 2
Fore
SplineSet
-490 1691 m 1,0,-1
 -453 1715 l 1,1,2
 -362 1582 -362 1582 -254 1582 c 0,3,4
 -210 1582 -210 1582 -184 1605.5 c 128,-1,5
 -158 1629 -158 1629 -158 1666 c 0,6,7
 -158 1704 -158 1704 -186.5 1739 c 128,-1,8
 -215 1774 -215 1774 -271 1822 c 0,9,10
 -347 1887 -347 1887 -373.5 1928.5 c 128,-1,11
 -400 1970 -400 1970 -400 2009 c 0,12,13
 -400 2047 -400 2047 -371.5 2073.5 c 128,-1,14
 -343 2100 -343 2100 -288 2100 c 2,15,-1
 -146 2100 l 1,16,-1
 -104 2040 l 1,17,-1
 -104 2030 l 1,18,-1
 -251 2030 l 2,19,20
 -321 2030 -321 2030 -321 1982 c 0,21,22
 -321 1952 -321 1952 -295.5 1923 c 128,-1,23
 -270 1894 -270 1894 -216 1849 c 0,24,25
 -170 1810 -170 1810 -141.5 1782 c 128,-1,26
 -113 1754 -113 1754 -93 1718 c 128,-1,27
 -73 1682 -73 1682 -73 1643 c 0,28,29
 -73 1582 -73 1582 -118 1545 c 128,-1,30
 -163 1508 -163 1508 -237 1508 c 0,31,32
 -315 1508 -315 1508 -381.5 1563.5 c 128,-1,33
 -448 1619 -448 1619 -490 1691 c 1,0,-1
EndSplineSet
EndChar

StartChar: uniA8F5
Encoding: 449 43253 193
Width: 1002
Flags: W
LayerCount: 2
Fore
SplineSet
406 1073 m 0,0,1
 406 1168 406 1168 494 1168 c 0,2,3
 581 1168 581 1168 581 1073 c 0,4,5
 581 979 581 979 494 979 c 0,6,7
 406 979 406 979 406 1073 c 0,0,1
120 1094 m 1,8,-1
 192 1119 l 1,9,10
 279 867 279 867 502 867 c 0,11,12
 720 867 720 867 768 1140 c 1,13,-1
 902 1104 l 1,14,15
 872 933 872 933 770.5 837 c 128,-1,16
 669 741 669 741 515 741 c 0,17,18
 433 741 433 741 351.5 782.5 c 128,-1,19
 270 824 270 824 208 904 c 128,-1,20
 146 984 146 984 120 1094 c 1,8,-1
871 204 m 0,21,22
 871 105 871 105 782 12.5 c 128,-1,23
 693 -80 693 -80 562 -119 c 1,24,-1
 771 -497 l 1,25,-1
 609 -546 l 1,26,-1
 458 -139 l 1,27,-1
 428 -140 l 2,28,29
 345 -140 345 -140 290.5 -96 c 128,-1,30
 236 -52 236 -52 236 14 c 0,31,32
 236 54 236 54 268.5 83.5 c 128,-1,33
 301 113 301 113 357 113 c 0,34,35
 423 113 423 113 476 40 c 1,36,37
 586 80 586 80 659.5 151 c 128,-1,38
 733 222 733 222 733 301 c 0,39,40
 733 365 733 365 685.5 406.5 c 128,-1,41
 638 448 638 448 565 448 c 0,42,43
 511 448 511 448 452.5 427 c 128,-1,44
 394 406 394 406 352 376 c 1,45,-1
 246 509 l 1,46,47
 298 550 298 550 371 575 c 128,-1,48
 444 600 444 600 507 600 c 0,49,50
 630 600 630 600 750.5 473.5 c 128,-1,51
 871 347 871 347 871 204 c 0,21,22
EndSplineSet
EndChar

StartChar: uniA8F6
Encoding: 450 43254 194
Width: 1002
Flags: W
LayerCount: 2
Fore
SplineSet
406 1073 m 0,0,1
 406 1168 406 1168 494 1168 c 0,2,3
 581 1168 581 1168 581 1073 c 0,4,5
 581 979 581 979 494 979 c 0,6,7
 406 979 406 979 406 1073 c 0,0,1
120 1094 m 1,8,-1
 192 1119 l 1,9,10
 279 867 279 867 502 867 c 0,11,12
 720 867 720 867 768 1140 c 1,13,-1
 902 1104 l 1,14,15
 872 933 872 933 770.5 837 c 128,-1,16
 669 741 669 741 515 741 c 0,17,18
 433 741 433 741 351.5 782.5 c 128,-1,19
 270 824 270 824 208 904 c 128,-1,20
 146 984 146 984 120 1094 c 1,8,-1
860 -99 m 0,21,22
 860 -192 860 -192 784 -256 c 128,-1,23
 708 -320 708 -320 581 -337 c 1,24,-1
 710 -546 l 1,25,-1
 551 -592 l 1,26,-1
 473 -338 l 1,27,28
 370 -327 370 -327 307.5 -282 c 128,-1,29
 245 -237 245 -237 245 -175 c 0,30,31
 245 -138 245 -138 272.5 -112.5 c 128,-1,32
 300 -87 300 -87 343 -87 c 0,33,34
 438 -87 438 -87 511 -213 c 1,35,36
 604 -206 604 -206 654 -161 c 128,-1,37
 704 -116 704 -116 704 -49 c 0,38,39
 704 31 704 31 619 112 c 1,40,41
 534 81 534 81 430 63 c 1,42,-1
 333 205 l 1,43,44
 697 272 697 272 697 369 c 0,45,46
 697 411 697 411 663.5 432.5 c 128,-1,47
 630 454 630 454 572 454 c 0,48,49
 518 454 518 454 458 436 c 128,-1,50
 398 418 398 418 351 388 c 1,51,-1
 250 525 l 1,52,53
 302 559 302 559 371.5 579.5 c 128,-1,54
 441 600 441 600 503 600 c 0,55,56
 579 600 579 600 649.5 552 c 128,-1,57
 720 504 720 504 770 434.5 c 128,-1,58
 820 365 820 365 820 301 c 0,59,60
 820 215 820 215 704 150 c 1,61,62
 780 94 780 94 820 29.5 c 128,-1,63
 860 -35 860 -35 860 -99 c 0,21,22
EndSplineSet
EndChar

StartChar: uniA8F7
Encoding: 451 43255 195
Width: 1002
Flags: W
LayerCount: 2
Fore
SplineSet
406 1073 m 0,0,1
 406 1168 406 1168 494 1168 c 0,2,3
 581 1168 581 1168 581 1073 c 0,4,5
 581 979 581 979 494 979 c 0,6,7
 406 979 406 979 406 1073 c 0,0,1
120 1094 m 1,8,-1
 192 1119 l 1,9,10
 279 867 279 867 502 867 c 0,11,12
 720 867 720 867 768 1140 c 1,13,-1
 902 1104 l 1,14,15
 872 933 872 933 770.5 837 c 128,-1,16
 669 741 669 741 515 741 c 0,17,18
 433 741 433 741 351.5 782.5 c 128,-1,19
 270 824 270 824 208 904 c 128,-1,20
 146 984 146 984 120 1094 c 1,8,-1
112 -82 m 1,21,-1
 176 -42 l 1,22,23
 252 -154 252 -154 332.5 -207 c 128,-1,24
 413 -260 413 -260 507 -260 c 0,25,26
 583 -260 583 -260 627.5 -222.5 c 128,-1,27
 672 -185 672 -185 672 -123 c 0,28,29
 672 -72 672 -72 633.5 -16 c 128,-1,30
 595 40 595 40 479 137 c 0,31,32
 408 198 408 198 364 241.5 c 128,-1,33
 320 285 320 285 290 337.5 c 128,-1,34
 260 390 260 390 260 448 c 0,35,36
 260 515 260 515 308 559.5 c 128,-1,37
 356 604 356 604 451 604 c 2,38,-1
 687 604 l 1,39,-1
 757 501 l 1,40,-1
 757 484 l 1,41,-1
 511 484 l 2,42,43
 394 484 394 484 394 406 c 0,44,45
 394 370 394 370 417 334 c 128,-1,46
 440 298 440 298 475 265.5 c 128,-1,47
 510 233 510 233 571 181 c 0,48,49
 648 117 648 117 696 69.5 c 128,-1,50
 744 22 744 22 778 -37 c 128,-1,51
 812 -96 812 -96 812 -162 c 0,52,53
 812 -265 812 -265 736.5 -328.5 c 128,-1,54
 661 -392 661 -392 535 -392 c 0,55,56
 423 -392 423 -392 308.5 -307.5 c 128,-1,57
 194 -223 194 -223 112 -82 c 1,21,-1
EndSplineSet
EndChar

StartChar: uniA8F8
Encoding: 452 43256 196
Width: 1328
Flags: W
LayerCount: 2
Fore
SplineSet
1208 614 m 256,0,1
 1208 456 1208 456 1130 317 c 128,-1,2
 1052 178 1052 178 913.5 94 c 128,-1,3
 775 10 775 10 605 10 c 0,4,5
 511 10 511 10 420 55 c 128,-1,6
 329 100 329 100 269.5 176 c 128,-1,7
 210 252 210 252 210 329 c 0,8,9
 210 440 210 440 294 512 c 1,10,11
 210 544 210 544 160 611 c 128,-1,12
 110 678 110 678 110 768 c 0,13,14
 110 868 110 868 177.5 930 c 128,-1,15
 245 992 245 992 351 992 c 0,16,17
 411 992 411 992 467.5 969.5 c 128,-1,18
 524 947 524 947 561 904 c 1,19,-1
 539 857 l 1,20,21
 498 877 498 877 450 877 c 0,22,23
 372 877 372 877 320.5 835 c 128,-1,24
 269 793 269 793 269 722 c 0,25,26
 269 679 269 679 293 633.5 c 128,-1,27
 317 588 317 588 361 556 c 1,28,29
 445 600 445 600 556 600 c 2,30,-1
 569 600 l 1,31,-1
 623 480 l 1,32,33
 503 480 503 480 424 431.5 c 128,-1,34
 345 383 345 383 345 295 c 0,35,36
 345 217 345 217 394 174 c 128,-1,37
 443 131 443 131 538 131 c 0,38,39
 675 131 675 131 792 192 c 128,-1,40
 909 253 909 253 986 357 c 1,41,42
 828 429 828 429 742.5 529 c 128,-1,43
 657 629 657 629 657 751 c 0,44,45
 657 857 657 857 725.5 922.5 c 128,-1,46
 794 988 794 988 904 988 c 0,47,48
 1032 988 1032 988 1120 880 c 128,-1,49
 1208 772 1208 772 1208 614 c 256,0,1
1097 690 m 0,50,51
 1097 776 1097 776 1054 823.5 c 128,-1,52
 1011 871 1011 871 945 871 c 0,53,54
 878 871 878 871 834.5 828 c 128,-1,55
 791 785 791 785 791 711 c 0,56,57
 791 619 791 619 861 546 c 128,-1,58
 931 473 931 473 1029 424 c 1,59,60
 1097 548 1097 548 1097 690 c 0,50,51
EndSplineSet
EndChar

StartChar: uniA8F9
Encoding: 453 43257 197
Width: 1344
Flags: W
LayerCount: 2
Fore
SplineSet
523 462 m 1,0,1
 406 462 406 462 325.5 413 c 128,-1,2
 245 364 245 364 245 287 c 0,3,4
 245 207 245 207 306.5 170 c 128,-1,5
 368 133 368 133 474 133 c 0,6,7
 634 133 634 133 778 202.5 c 128,-1,8
 922 272 922 272 1010 391 c 128,-1,9
 1098 510 1098 510 1098 652 c 0,10,11
 1098 764 1098 764 1052 812.5 c 128,-1,12
 1006 861 1006 861 933 861 c 0,13,14
 858 861 858 861 810 820 c 128,-1,15
 762 779 762 779 762 714 c 0,16,17
 762 642 762 642 816.5 604 c 128,-1,18
 871 566 871 566 965 546 c 1,19,-1
 953 469 l 1,20,21
 804 491 804 491 705.5 568.5 c 128,-1,22
 607 646 607 646 607 775 c 0,23,24
 607 873 607 873 677.5 933.5 c 128,-1,25
 748 994 748 994 861 994 c 0,26,27
 1018 994 1018 994 1121 870 c 128,-1,28
 1224 746 1224 746 1224 555 c 0,29,30
 1224 404 1224 404 1137.5 276.5 c 128,-1,31
 1051 149 1051 149 901.5 74 c 128,-1,32
 752 -1 752 -1 572 -1 c 0,33,34
 355 -1 355 -1 232.5 101 c 128,-1,35
 110 203 110 203 110 331 c 0,36,37
 110 461 110 461 208 541.5 c 128,-1,38
 306 622 306 622 463 622 c 2,39,-1
 469 622 l 1,40,-1
 523 462 l 1,0,1
EndSplineSet
EndChar

StartChar: uniA8FA
Encoding: 454 43258 198
Width: 0
Flags: W
LayerCount: 2
Fore
SplineSet
411 1753 m 1,0,-1
 30 1297 l 1,1,-1
 -384 1790 l 1,2,-1
 -317 1844 l 1,3,-1
 -27 1504 l 1,4,-1
 270 1854 l 1,5,-1
 411 1753 l 1,0,-1
EndSplineSet
EndChar

StartChar: uniA8FB
Encoding: 455 43259 199
Width: 1425
Flags: W
LayerCount: 2
Fore
SplineSet
1325 1148 m 1,0,-1
 1325 1128 l 1,1,-1
 217 1128 l 1,2,-1
 130 1254 l 1,3,-1
 130 1274 l 1,4,-1
 1238 1274 l 1,5,-1
 1325 1148 l 1,0,-1
EndSplineSet
EndChar

StartChar: uni20B9
Encoding: 456 8377 200
Width: 1145
Flags: W
LayerCount: 2
Fore
SplineSet
121 690 m 1,0,-1
 121 748 l 1,1,-1
 291 748 l 2,2,3
 473 748 473 748 549.5 810 c 128,-1,4
 626 872 626 872 637 1018 c 1,5,-1
 121 1018 l 1,6,-1
 121 1114 l 1,7,-1
 637 1114 l 1,8,9
 628 1249 628 1249 555 1307.5 c 128,-1,10
 482 1366 482 1366 322 1366 c 2,11,-1
 121 1366 l 1,12,-1
 121 1462 l 1,13,-1
 1085 1462 l 1,14,-1
 1085 1366 l 1,15,-1
 733 1366 l 1,16,17
 846 1278 846 1278 858 1114 c 1,18,-1
 1085 1114 l 1,19,-1
 1085 1018 l 1,20,-1
 856 1018 l 1,21,22
 824 668 824 668 377 651 c 1,23,-1
 612 250 l 2,24,25
 663 165 663 165 713.5 125.5 c 128,-1,26
 764 86 764 86 827 86 c 2,27,-1
 854 86 l 1,28,-1
 854 0 l 1,29,-1
 805 0 l 2,30,31
 672 0 672 0 603.5 13.5 c 128,-1,32
 535 27 535 27 492.5 64.5 c 128,-1,33
 450 102 450 102 403 184 c 2,34,-1
 121 690 l 1,0,-1
EndSplineSet
EndChar

StartChar: uni200C
Encoding: 458 8204 202
Width: 0
Flags: W
LayerCount: 2
Fore
SplineSet
-43 1286 m 1,0,-1
 43 1286 l 1,1,-1
 43 -272 l 1,2,-1
 -43 -272 l 1,3,-1
 -43 1286 l 1,0,-1
EndSplineSet
EndChar

StartChar: uni200D
Encoding: 459 8205 203
Width: 0
Flags: W
LayerCount: 2
Fore
SplineSet
-43 1096 m 1,0,-1
 -170 969 l 1,1,-1
 -223 1024 l 1,2,-1
 -55 1192 l 1,3,-1
 -223 1358 l 1,4,-1
 -170 1413 l 1,5,-1
 0 1243 l 1,6,-1
 170 1413 l 1,7,-1
 223 1358 l 1,8,-1
 55 1192 l 1,9,-1
 223 1024 l 1,10,-1
 170 969 l 1,11,-1
 43 1096 l 1,12,-1
 43 -272 l 1,13,-1
 -43 -272 l 1,14,-1
 -43 1096 l 1,0,-1
EndSplineSet
EndChar

StartChar: uni25CC
Encoding: 460 9676 204
Width: 1217
Flags: W
LayerCount: 2
Fore
SplineSet
555 1053 m 0,0,1
 555 1074 555 1074 571 1090 c 128,-1,2
 587 1106 587 1106 608 1106 c 0,3,4
 630 1106 630 1106 646 1090 c 128,-1,5
 662 1074 662 1074 662 1053 c 0,6,7
 662 1031 662 1031 646 1015 c 128,-1,8
 630 999 630 999 608 999 c 0,9,10
 587 999 587 999 571 1015 c 128,-1,11
 555 1031 555 1031 555 1053 c 0,0,1
383 1016 m 0,12,13
 383 1037 383 1037 399 1053 c 128,-1,14
 415 1069 415 1069 436 1069 c 0,15,16
 458 1069 458 1069 473.5 1053 c 128,-1,17
 489 1037 489 1037 489 1016 c 0,18,19
 489 994 489 994 473.5 978.5 c 128,-1,20
 458 963 458 963 436 963 c 0,21,22
 415 963 415 963 399 978.5 c 128,-1,23
 383 994 383 994 383 1016 c 0,12,13
727 1016 m 0,24,25
 727 1037 727 1037 743 1053 c 128,-1,26
 759 1069 759 1069 780 1069 c 0,27,28
 802 1069 802 1069 818 1053 c 128,-1,29
 834 1037 834 1037 834 1016 c 0,30,31
 834 994 834 994 818 978.5 c 128,-1,32
 802 963 802 963 780 963 c 0,33,34
 759 963 759 963 743 978.5 c 128,-1,35
 727 994 727 994 727 1016 c 0,24,25
231 920 m 0,36,37
 231 941 231 941 247 957 c 128,-1,38
 263 973 263 973 285 973 c 0,39,40
 306 973 306 973 322 957 c 128,-1,41
 338 941 338 941 338 920 c 0,42,43
 338 898 338 898 322 882 c 128,-1,44
 306 866 306 866 285 866 c 0,45,46
 263 866 263 866 247 882 c 128,-1,47
 231 898 231 898 231 920 c 0,36,37
879 920 m 0,48,49
 879 941 879 941 894.5 957 c 128,-1,50
 910 973 910 973 932 973 c 256,51,52
 954 973 954 973 969.5 957 c 128,-1,53
 985 941 985 941 985 920 c 0,54,55
 985 898 985 898 969.5 882 c 128,-1,56
 954 866 954 866 932 866 c 256,57,58
 910 866 910 866 894.5 882 c 128,-1,59
 879 898 879 898 879 920 c 0,48,49
135 768 m 256,60,61
 135 790 135 790 151 805.5 c 128,-1,62
 167 821 167 821 188 821 c 0,63,64
 210 821 210 821 226 805.5 c 128,-1,65
 242 790 242 790 242 768 c 256,66,67
 242 746 242 746 226 730.5 c 128,-1,68
 210 715 210 715 188 715 c 0,69,70
 167 715 167 715 151 730.5 c 128,-1,71
 135 746 135 746 135 768 c 256,60,61
975 768 m 256,72,73
 975 790 975 790 990.5 805.5 c 128,-1,74
 1006 821 1006 821 1028 821 c 256,75,76
 1050 821 1050 821 1065.5 805.5 c 128,-1,77
 1081 790 1081 790 1081 768 c 256,78,79
 1081 746 1081 746 1065.5 730.5 c 128,-1,80
 1050 715 1050 715 1028 715 c 256,81,82
 1006 715 1006 715 990.5 730.5 c 128,-1,83
 975 746 975 746 975 768 c 256,72,73
98 596 m 256,84,85
 98 618 98 618 114 633.5 c 128,-1,86
 130 649 130 649 152 649 c 0,87,88
 173 649 173 649 189 633.5 c 128,-1,89
 205 618 205 618 205 596 c 256,90,91
 205 574 205 574 189 558.5 c 128,-1,92
 173 543 173 543 152 543 c 0,93,94
 130 543 130 543 114 558.5 c 128,-1,95
 98 574 98 574 98 596 c 256,84,85
1012 596 m 256,96,97
 1012 618 1012 618 1027.5 633.5 c 128,-1,98
 1043 649 1043 649 1065 649 c 256,99,100
 1087 649 1087 649 1102.5 633.5 c 128,-1,101
 1118 618 1118 618 1118 596 c 256,102,103
 1118 574 1118 574 1102.5 558.5 c 128,-1,104
 1087 543 1087 543 1065 543 c 256,105,106
 1043 543 1043 543 1027.5 558.5 c 128,-1,107
 1012 574 1012 574 1012 596 c 256,96,97
135 424 m 256,108,109
 135 446 135 446 151 461.5 c 128,-1,110
 167 477 167 477 188 477 c 0,111,112
 210 477 210 477 226 461.5 c 128,-1,113
 242 446 242 446 242 424 c 256,114,115
 242 402 242 402 226 386.5 c 128,-1,116
 210 371 210 371 188 371 c 0,117,118
 167 371 167 371 151 386.5 c 128,-1,119
 135 402 135 402 135 424 c 256,108,109
975 424 m 256,120,121
 975 446 975 446 990.5 461.5 c 128,-1,122
 1006 477 1006 477 1028 477 c 256,123,124
 1050 477 1050 477 1065.5 461.5 c 128,-1,125
 1081 446 1081 446 1081 424 c 256,126,127
 1081 402 1081 402 1065.5 386.5 c 128,-1,128
 1050 371 1050 371 1028 371 c 256,129,130
 1006 371 1006 371 990.5 386.5 c 128,-1,131
 975 402 975 402 975 424 c 256,120,121
231 272 m 0,132,133
 231 294 231 294 247 310 c 128,-1,134
 263 326 263 326 285 326 c 0,135,136
 306 326 306 326 322 310 c 128,-1,137
 338 294 338 294 338 272 c 0,138,139
 338 251 338 251 322 235 c 128,-1,140
 306 219 306 219 285 219 c 0,141,142
 263 219 263 219 247 235 c 128,-1,143
 231 251 231 251 231 272 c 0,132,133
879 272 m 0,144,145
 879 294 879 294 894.5 310 c 128,-1,146
 910 326 910 326 932 326 c 256,147,148
 954 326 954 326 969.5 310 c 128,-1,149
 985 294 985 294 985 272 c 0,150,151
 985 251 985 251 969.5 235 c 128,-1,152
 954 219 954 219 932 219 c 256,153,154
 910 219 910 219 894.5 235 c 128,-1,155
 879 251 879 251 879 272 c 0,144,145
383 176 m 256,156,157
 383 198 383 198 399 213.5 c 128,-1,158
 415 229 415 229 436 229 c 0,159,160
 458 229 458 229 473.5 213.5 c 128,-1,161
 489 198 489 198 489 176 c 256,162,163
 489 154 489 154 473.5 138.5 c 128,-1,164
 458 123 458 123 436 123 c 0,165,166
 415 123 415 123 399 138.5 c 128,-1,167
 383 154 383 154 383 176 c 256,156,157
727 176 m 256,168,169
 727 198 727 198 743 213.5 c 128,-1,170
 759 229 759 229 780 229 c 0,171,172
 802 229 802 229 818 213.5 c 128,-1,173
 834 198 834 198 834 176 c 256,174,175
 834 154 834 154 818 138.5 c 128,-1,176
 802 123 802 123 780 123 c 0,177,178
 759 123 759 123 743 138.5 c 128,-1,179
 727 154 727 154 727 176 c 256,168,169
555 139 m 0,180,181
 555 161 555 161 571 177 c 128,-1,182
 587 193 587 193 608 193 c 0,183,184
 630 193 630 193 646 177 c 128,-1,185
 662 161 662 161 662 139 c 0,186,187
 662 118 662 118 646 102 c 128,-1,188
 630 86 630 86 608 86 c 0,189,190
 587 86 587 86 571 102 c 128,-1,191
 555 118 555 118 555 139 c 0,180,181
EndSplineSet
EndChar

StartChar: dvReph
Encoding: 515 -1 259
Width: 0
GlyphClass: 4
Flags: W
AnchorPoint: "+BBEENQQ3BEsEPARPBD0EPQQ+BDUA--0" -170 1274 mark 0
LayerCount: 2
Fore
SplineSet
-405 1596 m 0,0,1
 -405 1694 -405 1694 -344 1754.5 c 128,-1,2
 -283 1815 -283 1815 -184 1815 c 0,3,4
 -28 1815 -28 1815 65 1656 c 1,5,-1
 24 1621 l 1,6,7
 -39 1680 -39 1680 -116 1680 c 0,8,9
 -187 1680 -187 1680 -229 1636 c 128,-1,10
 -271 1592 -271 1592 -271 1516 c 0,11,12
 -271 1394 -271 1394 -172 1252 c 1,13,-1
 -256 1259 l 1,14,15
 -331 1355 -331 1355 -368 1433.5 c 128,-1,16
 -405 1512 -405 1512 -405 1596 c 0,0,1
EndSplineSet
Substitution2: "Single Substitution lookup 53 subtable" NULL
Ligature2: "'rphf' Reph Form lookup 5 subtable" dvRA dvVirama
EndChar

StartChar: dvEyelash
Encoding: 516 -1 260
Width: 579
Flags: W
LayerCount: 2
Fore
SplineSet
-87 1254 m 1,0,-1
 -87 1274 l 1,1,-1
 569 1274 l 1,2,-1
 646 1162 l 1,3,-1
 646 1142 l 1,4,-1
 -10 1142 l 1,5,-1
 -87 1254 l 1,0,-1
94 708 m 1,6,-1
 150 776 l 1,7,8
 278 672 278 672 471 672 c 0,9,10
 608 672 608 672 718 713 c 1,11,-1
 764 552 l 1,12,13
 710 534 710 534 660 527 c 128,-1,14
 610 520 610 520 539 520 c 0,15,16
 431 520 431 520 310.5 565 c 128,-1,17
 190 610 190 610 94 708 c 1,6,-1
EndSplineSet
Ligature2: "Ligature Substitution lookup 34 subtable" dvRA dvVirama uni200D
Ligature2: "'half' Half Forms lookup 9 subtable" dvRxA dvVirama
EndChar

StartChar: dvRAc2
Encoding: 517 -1 261
Width: 0
GlyphClass: 4
Flags: W
AnchorPoint: "+BBEENQQ3BEsEPARPBD0EPQQ+BDUA--1" -151 -86 mark 0
LayerCount: 2
Fore
SplineSet
70 -441 m 1,0,-1
 -197 -218 l 1,1,-1
 -477 -439 l 1,2,-1
 -608 -328 l 1,3,-1
 -247 -59 l 1,4,-1
 130 -383 l 1,5,-1
 70 -441 l 1,0,-1
EndSplineSet
Substitution2: "Single Substitution lookup 20 subtable" dvVirama
Ligature2: "'blwf' Below Base Forms in +BBQENQQyBDAEPQQwBDMEMARABDgA lookup 8 subtable" dvRA dvVirama
Ligature2: "'blwf' Below Base Forms in Devanagari2 lookup 7 subtable" dvVirama dvRA
EndChar

StartChar: dvK
Encoding: 518 -1 262
Width: 1112
Flags: W
LayerCount: 2
Fore
SplineSet
1343 701 m 1,0,-1
 1282 639 l 1,1,2
 1249 677 1249 677 1215 696 c 128,-1,3
 1181 715 1181 715 1137 715 c 0,4,5
 1017 715 1017 715 840 524 c 1,6,-1
 840 -10 l 1,7,-1
 821 -10 l 1,8,-1
 697 83 l 1,9,-1
 697 362 l 1,10,11
 653 317 653 317 592 289.5 c 128,-1,12
 531 262 531 262 461 262 c 0,13,14
 373 262 373 262 312.5 291 c 128,-1,15
 252 320 252 320 191 376 c 0,16,17
 72 487 72 487 72 629 c 0,18,19
 72 754 72 754 163 838 c 128,-1,20
 254 922 254 922 387 922 c 0,21,22
 558 922 558 922 697 812 c 1,23,-1
 697 1142 l 1,24,-1
 -10 1142 l 1,25,-1
 -87 1254 l 1,26,-1
 -87 1274 l 1,27,-1
 1102 1274 l 1,28,-1
 1179 1162 l 1,29,-1
 1179 1142 l 1,30,-1
 840 1142 l 1,31,-1
 840 741 l 1,32,33
 951 838 951 838 1071 838 c 0,34,35
 1223 838 1223 838 1343 701 c 1,0,-1
697 578 m 1,36,-1
 697 718 l 1,37,38
 638 756 638 756 585.5 772.5 c 128,-1,39
 533 789 533 789 468 789 c 0,40,41
 387 789 387 789 326.5 754.5 c 128,-1,42
 266 720 266 720 234.5 666.5 c 128,-1,43
 203 613 203 613 203 556 c 0,44,45
 203 483 203 483 252.5 438 c 128,-1,46
 302 393 302 393 386 393 c 0,47,48
 472 393 472 393 552.5 442.5 c 128,-1,49
 633 492 633 492 697 578 c 1,36,-1
EndSplineSet
Ligature2: "'half' Half Forms lookup 9 subtable" dvKA dvVirama
EndChar

StartChar: dvKH
Encoding: 519 -1 263
Width: 1061
Flags: W
LayerCount: 2
Fore
SplineSet
1405 284 m 1,0,1
 1305 166 1305 166 1151 95.5 c 128,-1,2
 997 25 997 25 793 25 c 0,3,4
 620 25 620 25 458 122 c 128,-1,5
 296 219 296 219 185.5 387 c 128,-1,6
 75 555 75 555 75 680 c 0,7,8
 75 735 75 735 105.5 767 c 128,-1,9
 136 799 136 799 183 799 c 0,10,11
 225 799 225 799 256.5 779 c 128,-1,12
 288 759 288 759 324 719 c 1,13,14
 438 780 438 780 438 955 c 0,15,16
 438 1055 438 1055 389 1142 c 1,17,-1
 -10 1142 l 1,18,-1
 -87 1254 l 1,19,-1
 -87 1274 l 1,20,-1
 1051 1274 l 1,21,-1
 1128 1162 l 1,22,-1
 1128 1142 l 1,23,-1
 498 1142 l 1,24,25
 565 1002 565 1002 565 881 c 0,26,27
 565 625 565 625 255 466 c 1,28,29
 318 331 318 331 444.5 248.5 c 128,-1,30
 571 166 571 166 771 166 c 0,31,32
 964 166 964 166 1094.5 226 c 128,-1,33
 1225 286 1225 286 1320 385 c 1,34,-1
 1405 284 l 1,0,1
939 966 m 0,35,36
 1030 966 1030 966 1123 915 c 128,-1,37
 1216 864 1216 864 1282 781 c 1,38,-1
 1245 738 l 1,39,40
 1140 831 1140 831 1020 831 c 0,41,42
 912 831 912 831 842.5 779.5 c 128,-1,43
 773 728 773 728 773 644 c 0,44,45
 773 571 773 571 821 530.5 c 128,-1,46
 869 490 869 490 942 490 c 0,47,48
 1082 490 1082 490 1182 600 c 1,49,-1
 1272 494 l 1,50,51
 1161 369 1161 369 1009 369 c 0,52,53
 921 369 921 369 836.5 414 c 128,-1,54
 752 459 752 459 696 538.5 c 128,-1,55
 640 618 640 618 640 707 c 0,56,57
 640 821 640 821 724.5 893.5 c 128,-1,58
 809 966 809 966 939 966 c 0,35,36
EndSplineSet
Ligature2: "'half' Half Forms lookup 9 subtable" dvKHA dvVirama
EndChar

StartChar: dvG
Encoding: 520 -1 264
Width: 629
Flags: W
LayerCount: 2
Fore
SplineSet
696 1142 m 1,0,-1
 361 1142 l 1,1,2
 411 842 411 842 411 574 c 0,3,4
 411 388 411 388 305 388 c 0,5,6
 224 388 224 388 144 477 c 128,-1,7
 64 566 64 566 64 654 c 0,8,9
 64 746 64 746 162 746 c 0,10,11
 206 746 206 746 249 741 c 1,12,13
 257 805 257 805 257 874 c 0,14,15
 257 1003 257 1003 244 1142 c 1,16,-1
 -10 1142 l 1,17,-1
 -87 1254 l 1,18,-1
 -87 1274 l 1,19,-1
 619 1274 l 1,20,-1
 696 1162 l 1,21,-1
 696 1142 l 1,0,-1
EndSplineSet
Ligature2: "'half' Half Forms lookup 9 subtable" dvGA dvVirama
EndChar

